<svg width="136" height="136" viewBox="0 0 136 136" fill="none" xmlns="http://www.w3.org/2000/svg"><circle cx="68" cy="68" r="68" fill="url(#paint0_linear_1346_48791)"/><path d="M0 87h42a7 7 0 017 7v42H0V87z" fill="#EDF2F4"/><mask id="mask0_1346_48791" style="mask-type:alpha" maskUnits="userSpaceOnUse" x="0" y="0" width="136" height="136"><circle cx="68" cy="68" r="68" fill="#fff"/></mask><g mask="url(#mask0_1346_48791)"><path d="M34.65 42.717l11.843-3.173 8.023 29.943-6.048 1.62a6 6 0 01-7.348-4.242l-6.47-24.148z" fill="url(#paint1_linear_1346_48791)"/><path fill-rule="evenodd" clip-rule="evenodd" d="M27.863 38.608l-1.624-6.06L141.91 1.552a6 6 0 017.349 4.243l5.144 19.197-104.43 27.982-22.111-14.367z" fill="url(#paint2_linear_1346_48791)"/><path fill-rule="evenodd" clip-rule="evenodd" d="M26.239 32.547l-.239.064 1.553 5.796.31.201-1.624-6.06zm23.735 20.428l.142.092 5.176 19.318a6 6 0 007.349 4.243L155.37 51.78a6 6 0 004.242-7.348l-5.209-19.44L49.974 52.975z" fill="#E0E6FA" fill-opacity=".8"/><path fill-rule="evenodd" clip-rule="evenodd" d="M96.83 58.953a6 6 0 10-4 0v21.564a9 9 0 109.484 13.777h51.516v-10h-51.516a9.01 9.01 0 00-5.484-3.777V58.953z" fill="url(#paint3_linear_1346_48791)"/><circle cx="94.83" cy="89.294" r="5" fill="url(#paint4_linear_1346_48791)"/></g><rect y="90" width="46" height="46" rx="4" fill="#EDF2F4"/><path fill-rule="evenodd" clip-rule="evenodd" d="M4 90a4 4 0 00-4 4v38a4 4 0 004 4h38a4 4 0 004-4V94a4 4 0 00-4-4H4zm29 34h2a2 2 0 002-2v-10a4.022 4.022 0 00-2.314-3.628L31 101H15l-3.686 7.372A4.013 4.013 0 009 112v10a2 2 0 002 2h2a2 2 0 002-2v-2h16v2a2 2 0 002 2zm-1.111-11.663a1.998 1.998 0 012.525.249 2 2 0 11-2.525-.249zm-20 0a1.998 1.998 0 012.525.249 2 2 0 11-2.525-.249zM15 108l2-4h12l2 4H15z" fill="url(#paint5_linear_1346_48791)" fill-opacity=".9"/><defs><linearGradient id="paint0_linear_1346_48791" x1="68" y1=".047" x2="64.918" y2="135.977" gradientUnits="userSpaceOnUse"><stop stop-color="#2E3250"/><stop offset="1" stop-color="#656A93"/></linearGradient><linearGradient id="paint1_linear_1346_48791" x1="53.783" y1="68.095" x2="46.254" y2="41.054" gradientUnits="userSpaceOnUse"><stop stop-color="#E0E6FA"/><stop offset="1" stop-color="#B0B3CD"/></linearGradient><linearGradient id="paint2_linear_1346_48791" x1="40.83" y1="55.901" x2="196.83" y2="55.901" gradientUnits="userSpaceOnUse"><stop stop-color="#fff"/><stop offset="1" stop-color="#E0E6FA"/></linearGradient><linearGradient id="paint3_linear_1346_48791" x1="95.33" y1="62.294" x2="95.33" y2="113.294" gradientUnits="userSpaceOnUse"><stop stop-color="#fff"/><stop offset="1" stop-color="#E0E6FA"/></linearGradient><linearGradient id="paint4_linear_1346_48791" x1="99.546" y1="93.799" x2="99.511" y2="84.744" gradientUnits="userSpaceOnUse"><stop stop-color="#2E3250"/><stop offset="1" stop-color="#656A93"/></linearGradient><linearGradient id="paint5_linear_1346_48791" x1="41.08" y1="90" x2="41.08" y2="136" gradientUnits="userSpaceOnUse"><stop stop-color="#EF233C"/><stop offset="1" stop-color="#9B2352"/></linearGradient></defs></svg>