<svg width="32" height="32" viewBox="0 0 32 32" fill="none" xmlns="http://www.w3.org/2000/svg"><g clip-path="url(#clip0_837_4605)"><path fill-rule="evenodd" clip-rule="evenodd" d="M22 1a2 2 0 00-2 2v1h2-2c0 1.834-.315 3.636-.915 5.333a2 2 0 00.471 2.081l4.26 4.26a22.995 22.995 0 01-8.141 8.143l-4.26-4.26a2 2 0 00-2.082-.472C7.636 19.685 5.834 20 4 20H3a2 2 0 00-2 2v7a2 2 0 002 2h1A27 27 0 0031 4h-2 2V3a2 2 0 00-2-2h-7zm4.978 4h-3.003a19.985 19.985 0 01-.73 4.445l2.382 2.383A22.994 22.994 0 0026.978 5zM5 26.978a22.994 22.994 0 006.828-1.351l-2.383-2.383A19.99 19.99 0 015 23.975v3.003z" fill="#2B2D42"/></g><defs><clipPath id="clip0_837_4605"><path fill="#fff" d="M0 0h32v32H0z"/></clipPath></defs></svg>