<svg width="72" height="72" viewBox="0 0 72 72" fill="none" xmlns="http://www.w3.org/2000/svg"><path fill-rule="evenodd" clip-rule="evenodd" d="M54 20H18a2 2 0 00-2 2v28a2 2 0 002 2h36a2 2 0 002-2V22a2 2 0 00-2-2zm-36-4a6 6 0 00-6 6v28a6 6 0 006 6h36a6 6 0 006-6V22a6 6 0 00-6-6H18z" fill="#2B2D42"/><circle cx="36" cy="36" r="2" fill="#2B2D42"/><path fill="#2B2D42" d="M18 54h8v4h-8zm28 0h8v4h-8zM10 25h4v4h-4zm41 4h3v14h-3zM10 43h4v4h-4z"/><path fill-rule="evenodd" clip-rule="evenodd" d="M36 42a6 6 0 100-12 6 6 0 000 12zm0 4c5.523 0 10-4.477 10-10s-4.477-10-10-10-10 4.477-10 10 4.477 10 10 10z" fill="#2B2D42"/></svg>