<svg width="139" height="140" viewBox="0 0 139 140" fill="none" xmlns="http://www.w3.org/2000/svg"><circle cx="68" cy="68" r="68" fill="url(#paint0_linear_1359_13158)"/><path fill-rule="evenodd" clip-rule="evenodd" d="M125 84h-22v7.255c-8.846 4.002-15 12.905-15 23.245 0 14.083 11.417 25.5 25.5 25.5s25.5-11.417 25.5-25.5c0-9.946-5.694-18.562-14-22.766V84z" fill="#EDF2F4"/><mask id="mask0_1359_13158" style="mask-type:alpha" maskUnits="userSpaceOnUse" x="0" y="0" width="136" height="136"><path d="M136 68c0 37.555-30.445 68-68 68S0 105.555 0 68 30.445 0 68 0s68 30.445 68 68z" fill="#2B2D42"/></mask><g mask="url(#mask0_1359_13158)"><path d="M18 34a8 8 0 018-8h84a8 8 0 018 8v99a8 8 0 01-8 8H26a8 8 0 01-8-8V34z" fill="url(#paint1_linear_1359_13158)"/></g><path fill-rule="evenodd" clip-rule="evenodd" d="M33 53h15v-4H33v4zm0 22h15v-4H33v4zm15 22H33v-4h15v4zM33 61h50v-4H33v4zm50 22H33v-4h50v4zm-50 22h36v-4H33v4z" fill="#CFD5E6"/><path fill-rule="evenodd" clip-rule="evenodd" d="M95.5 61.828l10.914-10.914-2.828-2.828-8.086 8.086-3.086-3.086-2.828 2.828 5.914 5.914zm0 21.915l10.914-10.915L103.586 70 95.5 78.086 92.414 75l-2.828 2.828 5.914 5.915z" fill="url(#paint2_linear_1359_13158)"/><circle cx="68" cy="27" r="17" fill="#E0E6FA"/><path fill-rule="evenodd" clip-rule="evenodd" d="M71.224 18.213l-3.117 3.117-3.118-3.117-2.121 2.121 5.239 5.239 5.239-5.239-2.122-2.121zm-10.77 2.086a7.5 7.5 0 006.199 11.938l-2.65 4.099A7.465 7.465 0 0068 37.488a7.46 7.46 0 004.147-1.25l-2.586-4a7.5 7.5 0 006.074-11.815l-7.528 7.529-7.653-7.653z" fill="#62668F"/><path fill-rule="evenodd" clip-rule="evenodd" d="M113 100H80v28h33v-.035c.33.023.664.035 1 .035 7.732 0 14-6.268 14-14s-6.268-14-14-14c-.336 0-.67.012-1 .035V100z" fill="url(#paint3_linear_1359_13158)"/><path fill-rule="evenodd" clip-rule="evenodd" d="M106 86h16v4h-4v2.363c10.241 1.88 18 10.853 18 21.637 0 12.15-9.85 22-22 22-6.832 0-12.936-3.114-16.971-8H114c7.732 0 14-6.268 14-14s-6.268-14-14-14H97.029A21.984 21.984 0 01110 92.363V90h-4v-4zm-26 18h24v4H80v-4zm8 8h12v4H88v-4zm16 8H80v4h24v-4zm12-13a2 2 0 10-4 0v10.5a1.999 1.999 0 003.266 1.548l5.5-4.5a2 2 0 00-2.532-3.096L116 113.28V107z" fill="url(#paint4_linear_1359_13158)"/><defs><linearGradient id="paint0_linear_1359_13158" x1="68" y1=".047" x2="64.918" y2="135.977" gradientUnits="userSpaceOnUse"><stop stop-color="#2E3250"/><stop offset="1" stop-color="#656A93"/></linearGradient><linearGradient id="paint1_linear_1359_13158" x1="56" y1="51.5" x2="56" y2="133" gradientUnits="userSpaceOnUse"><stop stop-color="#fff"/><stop offset="1" stop-color="#E0E6FA"/></linearGradient><linearGradient id="paint2_linear_1359_13158" x1="105.937" y1="83.336" x2="106.556" y2="48.045" gradientUnits="userSpaceOnUse"><stop stop-color="#8D99AE" stop-opacity=".5"/><stop offset="1" stop-color="#656A93"/></linearGradient><linearGradient id="paint3_linear_1359_13158" x1="104" y1="108.5" x2="80" y2="108.5" gradientUnits="userSpaceOnUse"><stop stop-color="#EDF2F4"/><stop offset="1" stop-color="#EDF2F4" stop-opacity="0"/></linearGradient><linearGradient id="paint4_linear_1359_13158" x1="120.484" y1="86" x2="120.484" y2="136" gradientUnits="userSpaceOnUse"><stop stop-color="#EF233C"/><stop offset="1" stop-color="#9B2352"/></linearGradient></defs></svg>