<svg width="72" height="72" viewBox="0 0 72 72" fill="none" xmlns="http://www.w3.org/2000/svg"><path fill-rule="evenodd" clip-rule="evenodd" d="M24 56V16a2 2 0 012-2h20a2 2 0 012 2v1.264c1.4.25 2.741.67 4 1.24V16a6 6 0 00-6-6H26a6 6 0 00-6 6v40a6 6 0 006 6h20a6 6 0 006-6v-6.504c-1.259.57-2.6.99-4 1.24V56a2 2 0 01-2 2H26a2 2 0 01-2-2z" fill="#2B2D42"/><circle cx="36" cy="53" r="2" fill="#2B2D42"/><path fill-rule="evenodd" clip-rule="evenodd" d="M45 47c7.18 0 13-5.82 13-13s-5.82-13-13-13-13 5.82-13 13 5.82 13 13 13zm0 4c9.389 0 17-7.611 17-17s-7.611-17-17-17-17 7.611-17 17 7.611 17 17 17z" fill="#2B2D42"/><path fill-rule="evenodd" clip-rule="evenodd" d="M43 29h4a2 2 0 110 4h-4v-4zm4 7h-4v2h7v2h-7v3h-3v-3h-2v-2h2v-2h-2v-3h2v-7h7a5 5 0 010 10z" fill="#2B2D42"/></svg>