<svg width="139" height="139" viewBox="0 0 139 139" fill="none" xmlns="http://www.w3.org/2000/svg"><path fill-rule="evenodd" clip-rule="evenodd" d="M68 139c37.555 0 68-30.445 68-68S105.555 3 68 3C40.472 3 16.765 19.357 6.067 42.882c-.455 1 .29 2.118 1.39 2.118C8.309 45 9 45.69 9 46.543V47a2 2 0 01-2 2H5.115c-.884 0-1.672.558-1.939 1.4-.413 1.3.576 2.6 1.94 2.6H12a2 2 0 110 4H3.118c-.976 0-1.821.68-1.998 1.64C.893 59.876 1.86 61 3.118 61H6a2 2 0 110 4H2.148c-1.068 0-1.961.81-2.025 1.876C.053 68.035.988 69 2.149 69H18a2 2 0 110 4H2.149c-1.161 0-2.096.965-2.026 2.124C.187 76.19 1.08 77 2.148 77H9a2 2 0 110 4H3.118C1.86 81 .893 82.123 1.12 83.36A2.015 2.015 0 003.118 85H21a2 2 0 110 4H5.116c-1.364 0-2.353 1.3-1.94 2.6A2.022 2.022 0 005.115 93H9a2 2 0 110 4h-.75c-1.478 0-2.477 1.502-1.85 2.84A2.031 2.031 0 008.248 101H37a2 2 0 110 4H12.71c-1.606 0-2.598 1.734-1.721 3.078.378.58 1.026.922 1.718.922H27a2 2 0 110 4h-4.249c-3.338 0-5.13 3.794-2.767 6.151C32.284 131.417 49.257 139 68 139zM11 63a2 2 0 104 0 2 2 0 00-4 0zm22 32a2 2 0 01-2 2h-7a2 2 0 110-4h7a2 2 0 012 2zM15 79a2 2 0 002 2h8a2 2 0 000-4h-8a2 2 0 00-2 2zm15 8a2 2 0 11-4 0 2 2 0 014 0zm-12 8a2 2 0 11-4 0 2 2 0 014 0z" fill="url(#paint0_linear_1359_13399)"/><circle cx="112" cy="27" r="27" fill="#EDF2F4"/><path fill-rule="evenodd" clip-rule="evenodd" d="M41.774 96.32c3.07 5.293 8.785 8.68 14.924 8.68h72.187c5.186 0 8.467-5.61 5.821-10.161l-27.837-48.265C103.799 41.28 98.084 38 91.945 38H19.758c-5.186 0-8.467 5.61-5.821 10.161l27.837 48.16z" fill="url(#paint1_linear_1359_13399)"/><path fill-rule="evenodd" clip-rule="evenodd" d="M106.642 46.194c.077.125.153.252.227.38l-.017-.002c1.359 2.57 1.526 5.33.35 7.495l-19.64 28.736c-2.113 3.064-8.555 3.064-14.258 0L20.18 54.067c-4.519-2.427-7.314-6.115-7.176-9.066C12.865 41.367 15.74 38 19.758 38h72.187c5.28 0 10.248 2.428 13.487 6.475.465.554.869 1.13 1.21 1.719z" fill="url(#paint2_linear_1359_13399)"/><path fill-rule="evenodd" clip-rule="evenodd" d="M135.224 100.58L90.906 77.91l-3.345 4.893c-2.112 3.064-8.554 3.064-14.257 0l-11.427-6.18L45.5 100.5v.301c3.079 2.646 7.041 4.199 11.198 4.199h72.187c3.032 0 5.413-1.918 6.339-4.42z" fill="url(#paint3_linear_1359_13399)"/><path fill-rule="evenodd" clip-rule="evenodd" d="M112 50c12.703 0 23-10.297 23-23S124.703 4 112 4 89 14.297 89 27s10.297 23 23 23zm.349-39c.925 0 1.675.75 1.675 1.676v1.843a8.38 8.38 0 016.703 8.21v8.156a6 6 0 013.351 5.385v.703h-23.459v-.703a6 6 0 013.351-5.385V22.73a8.382 8.382 0 016.703-8.211v-1.843c0-.926.75-1.676 1.676-1.676zm3.351 27.65a3.35 3.35 0 11-6.703 0h6.703z" fill="url(#paint4_linear_1359_13399)"/><defs><linearGradient id="paint0_linear_1359_13399" x1="68" y1="3.047" x2="64.918" y2="138.977" gradientUnits="userSpaceOnUse"><stop stop-color="#2E3250"/><stop offset="1" stop-color="#656A93"/></linearGradient><linearGradient id="paint1_linear_1359_13399" x1="79.5" y1="120.5" x2="57.5" y2="67.5" gradientUnits="userSpaceOnUse"><stop stop-color="#fff"/><stop offset="1" stop-color="#E0E6FA"/></linearGradient><linearGradient id="paint2_linear_1359_13399" x1="40" y1="38" x2="71" y2="86.5" gradientUnits="userSpaceOnUse"><stop offset=".489" stop-color="#fff"/><stop offset="1" stop-color="#D5DEFC"/></linearGradient><linearGradient id="paint3_linear_1359_13399" x1="77" y1="72.5" x2="81.373" y2="108.345" gradientUnits="userSpaceOnUse"><stop stop-color="#fff"/><stop offset="1" stop-color="#E0E6FA"/></linearGradient><linearGradient id="paint4_linear_1359_13399" x1="122.255" y1="4" x2="122.255" y2="50" gradientUnits="userSpaceOnUse"><stop stop-color="#EF233C"/><stop offset="1" stop-color="#9B2352"/></linearGradient></defs></svg>