<svg width="72" height="72" viewBox="0 0 72 72" fill="none" xmlns="http://www.w3.org/2000/svg"><path fill-rule="evenodd" clip-rule="evenodd" d="M13.894 40.477L11.7 41.884c-2.265 1.43-2.265 4.75 0 6.181l19.46 12.517c2.987 1.89 6.745 1.89 9.68 0L60.3 48.065a3.615 3.615 0 000-6.13L58.07 40.5l-3.698 2.378 3.3 2.122-19 12.22c-1.6 1.03-3.673 1.053-5.363-.011L14.29 44.975l3.306-2.118-3.7-2.38z" fill="#2B2D42"/><path fill-rule="evenodd" clip-rule="evenodd" d="M13.894 31.477L11.7 32.883c-2.265 1.431-2.265 4.752 0 6.182l19.46 12.517c2.987 1.89 6.745 1.89 9.68 0L60.3 39.065a3.615 3.615 0 000-6.13L58.07 31.5l-3.698 2.378 3.3 2.122-19 12.22c-1.6 1.03-3.673 1.053-5.363-.011L14.29 35.975l3.306-2.118-3.7-2.38z" fill="#2B2D42"/><path fill-rule="evenodd" clip-rule="evenodd" d="M57.672 27L38.69 14.79c-1.69-1.063-3.763-1.04-5.363-.01l-.01.006L14.29 26.975l19.02 12.234c1.69 1.064 3.762 1.042 5.363.01l19-12.219zM40.84 11.418L60.3 23.935a3.615 3.615 0 010 6.13L40.84 42.582c-2.935 1.89-6.694 1.89-9.68 0L11.7 30.065c-2.265-1.43-2.265-4.751 0-6.181l19.46-12.466c2.935-1.89 6.693-1.89 9.68 0z" fill="#2B2D42"/></svg>