<svg width="24" height="24" viewBox="0 0 24 24" fill="none" xmlns="http://www.w3.org/2000/svg"><g clip-path="url(#clip0_1239_7023)" fill="#fff"><path fill-rule="evenodd" clip-rule="evenodd" d="M22.61 15.75c-1.544 4.37-5.712 7.5-10.61 7.5C5.787 23.25.75 18.213.75 12h3a8.25 8.25 0 0015.6 3.75h3.26zM4.65 8.25A8.25 8.25 0 0120.25 12h3C23.25 5.787 18.213.75 12 .75c-4.898 0-9.065 3.13-10.61 7.5h3.26z"/><path d="M3 2.25a.75.75 0 00-.75-.75H1.5a.75.75 0 00-.75.75V9c0 .414.336.75.75.75h6.75A.75.75 0 009 9v-.75a.75.75 0 00-.75-.75h-4.5A.75.75 0 013 6.75v-4.5zM15.75 16.5a.75.75 0 01-.75-.75V15a.75.75 0 01.75-.75h6.75a.75.75 0 01.75.75v6.75a.75.75 0 01-.75.75h-.75a.75.75 0 01-.75-.75v-4.5a.75.75 0 00-.75-.75h-4.5z"/><path d="M.75 8.25h1.5v1.5H.75zm21 6h1.5v1.5h-1.5z"/></g><defs><clipPath id="clip0_1239_7023"><path fill="#fff" d="M0 0h24v24H0z"/></clipPath></defs></svg>