<svg width="72" height="72" viewBox="0 0 72 72" fill="none" xmlns="http://www.w3.org/2000/svg"><path fill-rule="evenodd" clip-rule="evenodd" d="M20 42v10h10V42H20zm-2-4a2 2 0 00-2 2v14a2 2 0 002 2h14a2 2 0 002-2V40a2 2 0 00-2-2H18zm2-18v10h10V20H20zm-2-4a2 2 0 00-2 2v14a2 2 0 002 2h14a2 2 0 002-2V18a2 2 0 00-2-2H18zm24 4v10h10V20H42zm-2-4a2 2 0 00-2 2v14a2 2 0 002 2h14a2 2 0 002-2V18a2 2 0 00-2-2H40zm-1 23h8v4h-4v4h-4v-8zm4 12v-4h4v-4h4v4h4v4h-4v4h-4v-4h-4zm0 0v4h-4v-4h4zm8-8v-4h4v4h-4z" fill="#2B2D42"/></svg>