<svg width="164" height="96" viewBox="0 0 164 96" fill="none" xmlns="http://www.w3.org/2000/svg"><g clip-path="url(#clip0_1243_7263)" fill="#2B2D42"><path fill-rule="evenodd" clip-rule="evenodd" d="M51.655 53.091a1.67 1.67 0 01-.023-2.912l52.561-30.345a10.552 10.552 0 016.266-1.362l.004.243c1.102-.018 2.065.159 2.865.444.358.142.71.305 1.053.488.172.1.33.205.476.314.863.644 1.135 1.274 1.19 1.668l-2.191 28.778-.001.002c-.044.078-.281.498-1.264 1.065-1.248.72-3.12 1.29-5.254 1.356h-.005l-50.76 1.409c-1.59.048-2.912-.196-3.87-.544l-1.047-.604zm50.538-36.721a14.556 14.556 0 0112.547-.954 10.24 10.24 0 011.595.74c.11.059.219.12.328.183l40.559 23.44c3.84 2.202 3.809 7.666.033 9.846L104.694 79.97c-4.47 2.58-10.055 2.517-14.515-.046l-39.206-22.61c-1.571-.637-2.748-1.564-3.316-2.665-1.628-2.587-.95-6.246 1.975-7.935l52.561-30.345zm48.443 24.223l-30.672-17.727-1.47 19.31 9.335-.229 22.807-1.354zm5.401 3.686a1.663 1.663 0 01-.782 1.882l-52.561 30.345c-2.245 1.297-4.916 1.671-7.435 1.132l1.115-14.18.482-6.336 10.598-.294c5.44-.167 10.131-2.875 10.381-5.993l.372-4.885.006.234 9.783-.24 28.041-1.665zM92.836 57.234l-32.437.9 30.977 17.863 1.01-12.842v-.005l.45-5.916z"/><path d="M38 77.52h35v-4H38zM28 67h20v-4H28zm11-22h8v-4h-8zm0-22h8v-4h-8zM25 34h40v-4H25zm27-11h32v-4H52zM16 45h19v-4H16zm0 11h26v-4H16zm0 11h8v-4h-8zM4 56h8v-4H4z"/></g><defs><clipPath id="clip0_1243_7263"><path fill="#fff" d="M0 0h164v96H0z"/></clipPath></defs></svg>