<svg width="72" height="72" viewBox="0 0 72 72" fill="none" xmlns="http://www.w3.org/2000/svg"><path fill-rule="evenodd" clip-rule="evenodd" d="M37.414 21.272l4.243-4.243a2 2 0 012.829 0l15.556 15.557a2 2 0 010 2.828L46.607 48.849l-9.193 9.193a2 2 0 01-2.828 0L17.374 40.83a5.99 5.99 0 001.655-1.173l9.193-9.193 9.192-9.192zm-12.02 6.364l7.778-7.778-2.829-2.829a2 2 0 00-2.828 0L11.958 32.586a2 2 0 000 2.828l.707.707.708.707a2 2 0 002.828 0l9.192-9.192zM38.828 14.2L36 17.029l-2.828-2.828a6 6 0 00-8.486 0L9.13 29.757a6 6 0 000 8.486L31.757 60.87a6 6 0 008.486 0l9.192-9.192L62.87 38.242a6 6 0 00.039-8.446L47.275 14.162a6 6 0 00-8.443.036l-.003.003z" fill="#2B2D42"/><circle cx="48.728" cy="28.343" r="2" transform="rotate(-45 48.728 28.343)" fill="#2B2D42"/></svg>