<svg width="72" height="72" viewBox="0 0 72 72" fill="none" xmlns="http://www.w3.org/2000/svg"><path d="M34 12h4v6h-4v-6z" fill="#2B2D42"/><path fill-rule="evenodd" clip-rule="evenodd" d="M36 26a3 3 0 100-6 3 3 0 000 6zm0 4a7 7 0 100-14 7 7 0 000 14z" fill="#2B2D42"/><path fill-rule="evenodd" clip-rule="evenodd" d="M31.155 25.228l3.69 1.544L24 52.685V60h-4v-8.118l11.155-26.654zm9.69 0l-3.69 1.544L48 52.685V60h4v-8.118L40.845 25.228z" fill="#2B2D42"/><path fill-rule="evenodd" clip-rule="evenodd" d="M51.167 40.29A22.912 22.912 0 0136 46a22.912 22.912 0 01-15.167-5.71l-2.638 3.008A26.897 26.897 0 0036 50a26.9 26.9 0 0017.805-6.702l-2.638-3.008z" fill="#2B2D42"/></svg>