<svg width="137" height="136" viewBox="0 0 137 136" fill="none" xmlns="http://www.w3.org/2000/svg"><path fill-rule="evenodd" clip-rule="evenodd" d="M128.58 98.92C133.324 89.644 136 79.135 136 68c0-37.555-30.445-68-68-68S0 30.445 0 68s30.445 68 68 68c1.35 0 2.69-.039 4.02-.117a21.03 21.03 0 01-3.874-3.059c-8.195-8.195-8.195-21.482 0-29.678 8.196-8.195 21.483-8.195 29.678 0l3.567 3.56.017-.017.004-.005c1.39-1.385 2.662-2.654 3.546-3.538 6.388-6.388 15.869-7.796 23.622-4.226z" fill="url(#paint0_linear_1359_13440)"/><path fill-rule="evenodd" clip-rule="evenodd" d="M105.391 13c1.693 0 3.351.525 4.68 1.573a68.357 68.357 0 0114.716 16.007c.814 1.232 1.213 2.687 1.213 4.164V75a8 8 0 01-8 8H50a8 8 0 01-8-8V21a8 8 0 018-8h55.391z" fill="#E0E6FA" fill-opacity=".5"/><path d="M30 33a8 8 0 018-8h68a8 8 0 018 8v54a8 8 0 01-8 8H38a8 8 0 01-8-8V33z" fill="#E0E6FA" fill-opacity=".75"/><path d="M18 45a8 8 0 018-8h68a8 8 0 018 8v54a8 8 0 01-8 8H26a8 8 0 01-8-8V45z" fill="#E0E6FA"/><path d="M6 57a8 8 0 018-8h68a8 8 0 018 8v54a8 8 0 01-8 8H14a8 8 0 01-8-8V57z" fill="url(#paint1_linear_1359_13440)"/><path fill-rule="evenodd" clip-rule="evenodd" d="M32 96H17v-4h15v4zm45 8H17v-4h60v4z" fill="#CFD5E6"/><path fill-rule="evenodd" clip-rule="evenodd" d="M51 71a6 6 0 11-12 0 6 6 0 0112 0zm-.589 8.411A9.954 9.954 0 0145 81c-5.523 0-10-4.477-10-10s4.477-10 10-10 10 4.477 10 10a9.953 9.953 0 01-1.726 5.617l4.555 4.555A2 2 0 1155 84l-4.589-4.589z" fill="url(#paint2_linear_1359_13440)"/><path fill-rule="evenodd" clip-rule="evenodd" d="M101.391 124.618a5743.52 5743.52 0 016.395 6.378c6.633 6.633 17.388 6.633 24.021 0 6.633-6.634 6.633-17.388 0-24.021-6.633-6.633-17.388-6.633-24.021 0-.886.886-2.159 2.156-3.55 3.542l5.646 5.646c1.301-1.296 2.732-2.722 3.546-3.536a8.992 8.992 0 0112.717 0 8.992 8.992 0 010 12.717 8.994 8.994 0 01-12.717 0c-1.33-1.33-4.306-4.294-5.672-5.653l-.001.001-.707-.707-.015-.014-5.63-5.63-.012.012c-2.374-2.365-4.92-4.903-6.395-6.378-6.633-6.633-17.388-6.633-24.021 0-6.633 6.633-6.633 17.387 0 24.021 6.633 6.633 17.388 6.633 24.02 0 .887-.887 2.16-2.157 3.55-3.543l-5.645-5.645a3344.826 3344.826 0 00-3.547 3.536 8.993 8.993 0 01-12.716-12.717 8.992 8.992 0 0112.716 0c1.33 1.33 4.307 4.294 5.672 5.653l.002-.002.707.707.025.025 5.62 5.62.012-.012z" fill="url(#paint3_linear_1359_13440)"/><defs><linearGradient id="paint0_linear_1359_13440" x1="68" y1=".047" x2="64.918" y2="135.977" gradientUnits="userSpaceOnUse"><stop stop-color="#2E3250"/><stop offset="1" stop-color="#656A93"/></linearGradient><linearGradient id="paint1_linear_1359_13440" x1="37.5" y1="49" x2="37.5" y2="119" gradientUnits="userSpaceOnUse"><stop stop-color="#fff"/><stop offset="1" stop-color="#E0E6FA"/></linearGradient><linearGradient id="paint2_linear_1359_13440" x1="57.75" y1="83.418" x2="57.667" y2="62.062" gradientUnits="userSpaceOnUse"><stop stop-color="#8D99AE"/><stop offset="1" stop-color="#656A93"/></linearGradient><linearGradient id="paint3_linear_1359_13440" x1="117.17" y1="102" x2="117.17" y2="135.971" gradientUnits="userSpaceOnUse"><stop stop-color="#EF233C"/><stop offset="1" stop-color="#9B2352"/></linearGradient></defs></svg>