<svg width="72" height="72" viewBox="0 0 72 72" fill="none" xmlns="http://www.w3.org/2000/svg"><path fill-rule="evenodd" clip-rule="evenodd" d="M14.06 53.515l10-40 3.88.97-10 40-3.88-.97zm38.13-23l-4.25-17-3.88.97 4.25 17 3.88-.97zM38 14h-4v6h4v-6zm0 11h-4v6h4v-6z" fill="#2B2D42"/><path fill-rule="evenodd" clip-rule="evenodd" d="M48 59c7.18 0 13-5.82 13-13s-5.82-13-13-13-13 5.82-13 13 5.82 13 13 13zm0 4c9.389 0 17-7.611 17-17s-7.611-17-17-17-17 7.611-17 17 7.611 17 17 17z" fill="#2B2D42"/><path fill-rule="evenodd" clip-rule="evenodd" d="M46 41h4a2 2 0 110 4h-4v-4zm4 7h-4v2h7v2h-7v3h-3v-3h-2v-2h2v-2h-2v-3h2v-7h7a5 5 0 010 10z" fill="#2B2D42"/></svg>