<svg width="72" height="72" viewBox="0 0 72 72" fill="none" xmlns="http://www.w3.org/2000/svg"><path fill-rule="evenodd" clip-rule="evenodd" d="M50.1 59l3 3H55V12a2 2 0 00-2-2H19a2 2 0 00-2 2v50h1.9l3-3h2.2l3 3h4.8l3-3h2.2l3 3h4.8l3-3h2.2zm-6.857-1l3-3H51V14H21v41h4.757l3 3h1.486l3-3h5.514l3 3h1.486z" fill="#2B2D42"/><path d="M38.505 20l-2.41 2.414L33.685 20l-1.652 1.655 4.062 4.068 4.062-4.068L38.505 20zm-8.368 1.628A5.899 5.899 0 0029 25.072c0 3.228 2.6 5.832 5.822 5.832h.108l-2.058 3.2c.894.57 1.977.896 3.114.896a5.719 5.719 0 003.223-.977l-2.004-3.119C40.4 30.877 43 28.274 43 25.072a5.77 5.77 0 00-1.056-3.363l-5.85 5.886-5.957-5.967zM27 40h18v3H27zm0 6h18v3H27z" fill="#2B2D42"/></svg>