<svg width="139" height="139" viewBox="0 0 139 139" fill="none" xmlns="http://www.w3.org/2000/svg"><circle cx="71" cy="68" r="68" fill="url(#paint0_linear_1346_48597)"/><circle cx="21" cy="118" r="21" fill="#EDF2F4"/><mask id="mask0_1346_48597" style="mask-type:alpha" maskUnits="userSpaceOnUse" x="3" y="0" width="136" height="136"><circle cx="71" cy="68" r="68" fill="#8D99AE"/></mask><g mask="url(#mask0_1346_48597)"><path d="M21 34a8 8 0 018-8h84a8 8 0 018 8v99a8 8 0 01-8 8H29a8 8 0 01-8-8V34z" fill="url(#paint1_linear_1346_48597)"/></g><circle cx="71" cy="54" r="12" fill="#CFD5E6"/><path fill-rule="evenodd" clip-rule="evenodd" d="M71 58a5 5 0 100-10 5 5 0 000 10zm0 8c3.49 0 6.632-1.49 8.825-3.869A13.942 13.942 0 0071 59a13.942 13.942 0 00-8.825 3.131A11.968 11.968 0 0071 66z" fill="url(#paint2_linear_1346_48597)"/><path fill-rule="evenodd" clip-rule="evenodd" d="M35 75h19v4H35v-4zm0 16h19v4H35v-4zm14-8H35v4h14v-4zm13-8h19v4H62v-4zm0 16h19v4H62v-4zm14-8H62v4h14v-4zm32-8H89v4h19v-4zm0 16H89v4h19v-4zm-19-8h14v4H89v-4z" fill="#CFD5E6"/><path fill-rule="evenodd" clip-rule="evenodd" d="M37.588 125c-2.73 6.464-9.13 11-16.588 11-9.941 0-18-8.059-18-18s8.059-18 18-18c7.458 0 13.857 4.536 16.588 11h42.986l4.926 4.667L76.167 125H71.5l-4.667-4.667H64.5L59.833 125h-4.666l-4.667-4.667h-2.333L43.5 125h-5.912zM17 118a4 4 0 11-8 0 4 4 0 018 0z" fill="url(#paint3_linear_1346_48597)"/><defs><linearGradient id="paint0_linear_1346_48597" x1="71" y1=".047" x2="67.918" y2="135.977" gradientUnits="userSpaceOnUse"><stop stop-color="#2E3250"/><stop offset="1" stop-color="#656A93"/></linearGradient><linearGradient id="paint1_linear_1346_48597" x1="44.214" y1="70.584" x2="134.561" y2="106.468" gradientUnits="userSpaceOnUse"><stop stop-color="#fff"/><stop offset="1" stop-color="#E0E6FA"/></linearGradient><linearGradient id="paint2_linear_1346_48597" x1="71" y1="48" x2="71" y2="66" gradientUnits="userSpaceOnUse"><stop stop-color="#2E3250"/><stop offset="1" stop-color="#656A93"/></linearGradient><linearGradient id="paint3_linear_1346_48597" x1="76.677" y1="100" x2="76.677" y2="136" gradientUnits="userSpaceOnUse"><stop stop-color="#EF233C"/><stop offset="1" stop-color="#9B2352"/></linearGradient></defs></svg>