<svg width="72" height="72" viewBox="0 0 72 72" fill="none" xmlns="http://www.w3.org/2000/svg"><path fill-rule="evenodd" clip-rule="evenodd" d="M30 48h12v9a4 4 0 01-4 4h-4a4 4 0 01-4-4v-9zm4 4v5h4v-5h-4z" fill="#2B2D42"/><path fill-rule="evenodd" clip-rule="evenodd" d="M47.446 38.072l.199-.297A13.916 13.916 0 0050 30c0-7.732-6.268-14-14-14s-14 6.268-14 14c0 2.884.867 5.553 2.355 7.775l.199.297.133.178.013.017c.06.082.121.163.183.244l.013.017L32 48h8l7.104-9.472.013-.017c.062-.08.123-.162.183-.244l.013-.017.133-.178zm3.08 2.56c-.078.106-.156.21-.235.314L42 52H30l-8.29-11.054c-.08-.104-.159-.208-.236-.314L21 40h.031l-.01-.016-.021-.03A17.941 17.941 0 0119.024 36 17.971 17.971 0 0118 30c0-9.941 8.059-18 18-18s18 8.059 18 18c0 2.104-.36 4.123-1.024 6A17.941 17.941 0 0151 39.953l-.02.031-.011.016H51l-.474.632z" fill="#2B2D42"/><path fill-rule="evenodd" clip-rule="evenodd" d="M30.5 31.489c.076.284.136.572.235.85l.008.02L34.6 42.465l-2.802 1.07-3.866-10.125-.003-.007-.004-.011c-.22-.608-.426-1.24-.426-1.892 0-1.926 1.212-3.462 2.74-4.444 1.542-.992 3.583-1.556 5.76-1.556 2.177 0 4.218.564 5.76 1.556 1.528.982 2.74 2.518 2.74 4.444 0 .77-.196 1.29-.453 1.962L40.2 43.535l-2.802-1.07 3.858-10.106.008-.02c.1-.278.159-.566.235-.85-.005-.558-.361-1.266-1.361-1.91-.991-.636-2.45-1.079-4.139-1.079s-3.148.443-4.139 1.08c-1 .643-1.356 1.351-1.361 1.909z" fill="#2B2D42"/></svg>