<svg width="72" height="72" viewBox="0 0 72 72" fill="none" xmlns="http://www.w3.org/2000/svg"><path fill-rule="evenodd" clip-rule="evenodd" d="M11.243 28.758l.707-.708a2 2 0 002.828-2.828l9.9-9.9a2 2 0 102.828-2.828l.707-.707a6 6 0 018.486 0l7.07 7.071a6 6 0 010 8.485l-.706.707a2 2 0 10-2.829 2.829L36.7 34.414l5.328 5.328a3.998 3.998 0 013.864 1.036l11.314 11.314a4 4 0 11-5.657 5.657L40.234 46.435a3.998 3.998 0 01-1.036-3.864l-5.328-5.328-3.535 3.535a2 2 0 00-2.829 0l-.007.007a2 2 0 00.007 2.822l-.707.707a6 6 0 01-8.485 0l-7.071-7.071a6 6 0 010-8.486zm16.263 9.192l9.9-9.9-9.9-9.9-9.9 9.9 9.9 9.9zm-12.728-7.071l9.9 9.9-.707.706a2 2 0 01-2.829 0l-7.07-7.07a2 2 0 010-2.83l.706-.706zm15.557-15.557l9.9 9.9.706-.707a2 2 0 000-2.829l-7.07-7.07a2 2 0 00-2.83 0l-.706.706z" fill="#2B2D42"/></svg>