<svg width="140" height="61" viewBox="0 0 140 61" fill="none" xmlns="http://www.w3.org/2000/svg"><path fill-rule="evenodd" clip-rule="evenodd" d="M26.079 25.229h-8.194c-.11 0-.164.054-.164.163v11.363c0 .11.054.164.164.164h2.786c.109 0 .163-.055.163-.164V27.96h4.316c.055 0 .11-.055.164-.11.328-.764.656-1.584.983-2.403v-.164c-.109 0-.164-.054-.218-.054zm23.053 8.959a.118.118 0 00-.11-.11h-.163c-.656.219-1.912.492-2.841.492-1.912 0-2.84-.492-2.84-3.496 0-2.35.273-3.496 2.84-3.496.71 0 1.42.109 2.24.382.054 0 .164 0 .164-.11.327-.6.71-1.31 1.147-2.239v-.164a.118.118 0 00-.11-.11c-1.092-.327-2.458-.49-3.66-.49-4.042 0-5.845 1.856-5.845 6.172 0 4.37 1.803 6.282 5.846 6.282.983 0 3.004-.218 3.987-.6.11-.055.11-.11.11-.164.109-.055-.765-2.35-.765-2.35zM32.47 24.9c-3.988 0-5.572 1.693-5.572 6.173 0 4.534 1.53 6.227 5.572 6.227 4.043 0 5.627-1.748 5.627-6.227 0-4.425-1.584-6.173-5.627-6.173zm0 9.778c-1.857 0-2.403-.491-2.403-3.55 0-3.278.6-3.551 2.403-3.551s2.459.273 2.459 3.55c0 3.06-.601 3.551-2.459 3.551z" fill="#0065B1"/><path fill-rule="evenodd" clip-rule="evenodd" d="M109.496 25.229h-8.194c-.109 0-.164.054-.164.163v11.363c0 .11.055.164.164.164h2.786c.109 0 .163-.055.163-.164V27.96h4.316c.055 0 .164-.055.164-.11.328-.764.656-1.584.983-2.403v-.164c-.164 0-.164-.055-.218-.055zm-10.38.054h-2.84c-.054 0-.164.055-.164.11a59.635 59.635 0 01-2.567 7.757l-2.841-7.812c0-.055-.11-.11-.164-.11h-2.841c-.055 0-.109.055-.163.055-.055.055-.055.11 0 .164l4.26 11.581c-.437.874-.873 1.584-1.201 2.35-.273.49-.547 1.037-.875 1.583-.054.055 0 .11 0 .164.055.055.11.11.165.11h3.058c.055 0 .11-.055.165-.11.491-.983 1.201-2.403 1.802-3.824 1.803-4.26 3.278-8.194 4.316-11.854 0-.055 0-.11-.055-.164h-.054zm-26.385 8.904a.117.117 0 00-.109-.109h-.164c-.655.219-1.912.492-2.84.492-1.912 0-2.841-.492-2.841-3.496 0-2.35.273-3.497 2.84-3.497.71 0 1.42.11 2.24.383.11 0 .164 0 .164-.11.328-.6.71-1.31 1.147-2.24v-.163a.118.118 0 00-.109-.11c-1.147-.382-2.513-.546-3.66-.546-3.988 0-5.79 1.858-5.79 6.174 0 4.37 1.802 6.282 5.845 6.282.983 0 3.004-.219 3.987-.601.11-.055.11-.11.11-.164 0-.055-.82-2.294-.82-2.294zm-10.106-8.904h-2.84c-.11 0-.164.055-.164.11a59.731 59.731 0 01-2.568 7.757l-2.786-7.867c0-.055-.11-.11-.164-.11h-2.84c-.055 0-.11.056-.164.056-.055.054-.055.109 0 .163l4.315 11.582c-.437.874-.874 1.638-1.202 2.349-.273.491-.546 1.038-.874 1.584-.054.054 0 .109 0 .164.055.054.11.109.164.109h3.06c.054 0 .109-.055.163-.11.492-.983 1.202-2.403 1.803-3.823 1.803-4.261 3.278-8.195 4.316-11.855 0-.054 0-.109-.055-.163-.055.054-.11.054-.164.054zm58.725-.055h-2.786c-.109 0-.163.055-.163.164v8.796c-.602.163-1.203.218-1.913.218-1.857 0-2.239-.546-2.239-3.005v-6.009c0-.109-.055-.163-.165-.163h-2.786c-.109 0-.163.054-.163.163v6.337c0 3.933 1.311 5.518 4.752 5.518 1.912 0 4.152-.492 5.409-.984.054 0 .109-.109.109-.163V25.392c.109-.109.054-.163-.055-.163zm-35.89 0h-8.468c-.109 0-.164.055-.164.164-.218 3.824-.928 7.976-1.966 11.308v.11c.054.054.109.054.164.054h2.95c.054 0 .163-.054.163-.109.82-2.568 1.475-6.009 1.694-8.85h2.786v8.85c0 .11.055.164.164.164h2.786c.11 0 .164-.055.164-.164V25.392c-.11-.109-.164-.163-.273-.163z" fill="#EE3F58"/></svg>