<svg width="255" height="51" viewBox="0 0 255 51" fill="none" xmlns="http://www.w3.org/2000/svg"><g clip-path="url(#clip0_4443_579)"><path d="M35.543 42.915c-3.689 0-7.23-15.263-8.41-19.264C25.596 18.44 22.88 7.364 16.76 3.905c-1.054-.596-2.265-.853-3.475-.853H7.038a7.51 7.51 0 00-4.334 1.377C1.671 5.157.54 6.07-.017 6.905c6.492-.444 10.784 12.647 12.74 19.5 1.967 6.897 6.147 22.585 13.23 22.585h8.41c3.393 0 6.05-6.075 6.05-6.075l-1.329-3.408s-.885 3.408-3.54 3.408zm24.199 0c-3.686-.14-7.23-15.263-8.41-19.264-1.537-5.21-4.252-16.287-10.373-19.746-1.054-.596-2.265-.853-3.475-.853h-6.248a7.51 7.51 0 00-4.334 1.377c-1.032.728-2.164 1.642-2.72 2.476 6.492-.444 10.784 12.647 12.74 19.5 1.967 6.897 6.147 22.585 13.229 22.585h8.41c7.424 0 9.785-21.487 9.785-21.487l-1.623-.444s-3.099 16.004-6.981 15.856z" fill="#000"/><mask id="mask0_4443_579" style="mask-type:luminance" maskUnits="userSpaceOnUse" x="49" y="3" width="37" height="24"><path d="M66.394 3.052h-9.281c-5.44 0-7.673 8.419-7.673 8.419l1.495 3.881s1.622-6.508 4.875-6.224c6.782.593 3.24 16.893 16.447 16.893h6.896c4.096 0 6.604-4.445 6.604-4.445-10.77.444-7.967-18.524-19.363-18.524z" fill="#fff"/></mask><g mask="url(#mask0_4443_579)"><path d="M66.394 3.052h-9.281c-5.44 0-7.673 8.419-7.673 8.419l1.495 3.881s1.622-6.508 4.875-6.224c6.782.593 3.24 16.893 16.447 16.893h6.896c4.096 0 6.604-4.445 6.604-4.445-10.77.444-7.967-18.524-19.363-18.524z" fill="#FFD000"/></g><mask id="mask1_4443_579" style="mask-type:luminance" maskUnits="userSpaceOnUse" x="49" y="3" width="37" height="24"><path d="M66.394 3.052h-9.281c-5.44 0-7.673 8.419-7.673 8.419l1.495 3.881s1.622-6.508 4.875-6.224c6.782.593 3.24 16.893 16.447 16.893h6.896c4.096 0 6.604-4.445 6.604-4.445-10.77.444-7.967-18.524-19.363-18.524z" fill="#fff"/></mask><g mask="url(#mask1_4443_579)"><path d="M62.263 3.052H52.98c-5.44 0-7.672 8.419-7.672 8.419l1.494 3.881s1.623-6.508 4.876-6.224c6.781.593 3.24 16.893 16.447 16.893h6.895c4.097 0 6.605-4.445 6.605-4.445-10.771.444-7.968-18.524-19.363-18.524z" fill="#DE0A14"/></g><mask id="mask2_4443_579" style="mask-type:luminance" maskUnits="userSpaceOnUse" x="49" y="3" width="37" height="24"><path d="M66.394 3.052h-9.281c-5.44 0-7.673 8.419-7.673 8.419l1.495 3.881s1.622-6.508 4.875-6.224c6.782.593 3.24 16.893 16.447 16.893h6.896c4.096 0 6.604-4.445 6.604-4.445-10.77.444-7.967-18.524-19.363-18.524z" fill="#fff"/></mask><g mask="url(#mask2_4443_579)"><path d="M58.131 3.052H48.85c-5.44 0 1.937 22.97 15.144 22.97h6.896c4.096 0 6.605-4.446 6.605-4.446-10.772.444-7.968-18.524-19.364-18.524z" fill="#000"/></g><path d="M95.382 21.976v-1.832a6.86 6.86 0 00.83-.095c.248-.046.455-.145.622-.3.167-.153.295-.388.385-.706.09-.317.135-.756.135-1.318V7.055a39.804 39.804 0 01.027-1.447c.009-.222.02-.424.034-.605.013-.18.029-.33.047-.448l-2.08.081V2.519l8.065-.027c1.216 0 2.321.127 3.316.38a10.51 10.51 0 012.669 1.056 8.807 8.807 0 012.039 1.599 9.292 9.292 0 011.433 1.985c.378.709.659 1.45.844 2.222a9.94 9.94 0 01.277 2.31c0 .751-.086 1.52-.257 2.302a9.9 9.9 0 01-.804 2.284 9.606 9.606 0 01-1.398 2.078 8.742 8.742 0 01-2.04 1.698c-.793.485-1.704.867-2.735 1.148-1.032.281-2.191.422-3.479.422h-7.93zm5.863-2.063c.135-.009.317-.014.547-.014.23 0 .473.005.73.014a42.499 42.499 0 001.371.028c1.008 0 1.875-.206 2.6-.62a5.33 5.33 0 001.79-1.644 7.312 7.312 0 001.04-2.344c.226-.879.338-1.78.338-2.705 0-1.422-.146-2.65-.439-3.683-.293-1.033-.711-1.887-1.256-2.562a5.143 5.143 0 00-1.979-1.515c-.775-.335-1.639-.517-2.594-.544h-.162c-.279 0-.527.018-.743.054a1.17 1.17 0 00-.628.313c-.167.163-.293.403-.379.72-.085.317-.128.743-.128 1.278v10.723a45.61 45.61 0 01-.027 1.448c-.009.222-.021.424-.034.605a5.806 5.806 0 01-.047.448zm13.925-4.857c0-.977.164-1.91.492-2.801a7.48 7.48 0 011.393-2.368 6.702 6.702 0 012.177-1.642c.85-.407 1.797-.61 2.842-.61.513 0 1.024.045 1.533.135.509.09.995.242 1.459.455.464.213.896.49 1.297.834.401.344.745.77 1.033 1.276.298.506.527 1.103.69 1.79.162.652.238 1.398.229 2.24v.135l-9.092.163c0 .76.07 1.463.21 2.11.139.646.362 1.203.668 1.668a3.28 3.28 0 001.203 1.1c.495.266 1.103.4 1.823.4.279 0 .59-.037.932-.109.343-.072.692-.19 1.048-.353a6.082 6.082 0 001.074-.644c.36-.267.697-.595 1.013-.984l1.243 1.18c-.496.715-1.023 1.294-1.581 1.737a7.573 7.573 0 01-1.682 1.031 6.877 6.877 0 01-1.661.495 9.817 9.817 0 01-1.52.13c-1.018 0-1.945-.172-2.781-.516a6.072 6.072 0 01-2.157-1.48c-.601-.641-1.066-1.415-1.393-2.32-.328-.904-.492-1.92-.492-3.052zm4.242-2.347h5.094c-.019-.57-.086-1.054-.203-1.452-.117-.398-.277-.721-.48-.97a1.76 1.76 0 00-.709-.536 2.376 2.376 0 00-.892-.163c-.405 0-.768.077-1.087.231a2.54 2.54 0 00-.831.638 3.29 3.29 0 00-.574.983 5.59 5.59 0 00-.318 1.27zm9.508-1.967V8.598c.641 0 1.206-.026 1.698-.077.491-.052.91-.117 1.258-.194a4.85 4.85 0 00.839-.252c.212-.09.367-.178.466-.264h1.508v8.507c0 1.221.156 2.116.467 2.686.312.57.82.855 1.525.855.225 0 .46-.034.704-.102.244-.068.483-.162.718-.285a4.501 4.501 0 001.233-.943v-5.44c0-.335.007-.72.021-1.153.013-.434.042-.86.087-1.276l-1.945.082V8.598c.64 0 1.203-.026 1.689-.077.486-.052.903-.117 1.249-.194a4.92 4.92 0 00.838-.252c.211-.09.367-.178.466-.264h1.513v9.701a34.938 34.938 0 01-.108 2.428l1.797-.081v2.117h-5.255l-.149-1.452h-.027c-.28.244-.571.481-.874.712a6.593 6.593 0 01-.962.61c-.338.177-.7.317-1.083.421a4.748 4.748 0 01-1.24.156c-.818 0-1.516-.12-2.095-.36a3.302 3.302 0 01-1.422-1.105c-.368-.497-.638-1.133-.808-1.906-.171-.773-.257-1.698-.257-2.775v-3.188c0-.335.007-.72.02-1.153.014-.434.043-.86.088-1.276l-1.959.082zm16.344-.34v-2.32a2.814 2.814 0 001.338-.36c.414-.23.786-.517 1.114-.86a5.64 5.64 0 00.838-1.127c.23-.407.399-.787.507-1.14h2.04l-.014 3.487h3.54v2.144l-3.539.068c-.01 1.311-.017 2.4-.021 3.263-.005.864-.009 1.556-.014 2.076-.004.52-.006.89-.006 1.112v.387c0 .325.02.649.06.97.041.321.122.61.244.868.121.258.292.466.513.625.221.158.507.237.858.237a2.267 2.267 0 001.033-.278c.221-.113.457-.28.71-.502.251-.222.508-.518.769-.89l1.338 1.25c-.504.741-1.009 1.316-1.513 1.723-.505.407-.986.705-1.446.895-.459.19-.877.303-1.256.34-.378.035-.693.053-.945.053-.307 0-.623-.024-.951-.074a4.003 4.003 0 01-.969-.278 3.329 3.329 0 01-.902-.577 3.572 3.572 0 01-.754-.97c-.22-.398-.393-.88-.519-1.445-.126-.565-.188-1.232-.188-2.002l.04-6.702-1.905.027zm11.359 1.703c0-.533.102-1.065.305-1.598a4.059 4.059 0 01.938-1.436c.424-.425.964-.77 1.622-1.037.657-.266 1.44-.4 2.35-.4a7.088 7.088 0 011.723.224c.301.077.593.175.875.292.283.118.538.258.766.42h.027l-.041-.786h2.108v4.904h-1.824a3.87 3.87 0 00-.452-1.293 3.425 3.425 0 00-.831-.975 3.724 3.724 0 00-1.142-.615 4.297 4.297 0 00-1.384-.217 2.86 2.86 0 00-.683.081 1.81 1.81 0 00-.588.258 1.28 1.28 0 00-.405.453 1.433 1.433 0 00-.148.684c0 .324.085.593.256.805.171.212.41.394.717.548.306.154.663.295 1.073.426.41.13.854.278 1.331.44.703.244 1.351.51 1.945.799a6.732 6.732 0 011.541 1.008c.432.383.772.821 1.02 1.313.247.491.371 1.062.371 1.711 0 .728-.142 1.362-.425 1.903-.284.54-.66.988-1.128 1.343a4.96 4.96 0 01-1.608.797 6.64 6.64 0 01-1.878.266c-.398 0-.797-.027-1.196-.082a9.617 9.617 0 01-1.141-.226 6.46 6.46 0 01-.999-.35 4.052 4.052 0 01-.78-.454h-.028l.118.854h-2.107l-.109-4.795h1.635c.037.424.177.821.42 1.191.242.37.558.69.95.96.391.272.85.484 1.377.637a6.04 6.04 0 001.698.23c.225 0 .452-.027.682-.08a2.02 2.02 0 00.615-.251 1.43 1.43 0 00.439-.426c.112-.172.169-.38.169-.623 0-.262-.07-.485-.21-.67a2.06 2.06 0 00-.614-.515 6.99 6.99 0 00-1.007-.466c-.4-.154-.862-.334-1.385-.542-.576-.225-1.157-.457-1.742-.697a7.689 7.689 0 01-1.594-.873 4.227 4.227 0 01-1.169-1.265c-.302-.5-.453-1.126-.453-1.875zm12.507 3.222c0-1.04.176-2.028.527-2.964a7.575 7.575 0 011.473-2.449 7.026 7.026 0 012.27-1.662c.882-.412 1.86-.617 2.932-.617.89 0 1.676.108 2.356.325.68.217 1.248.502 1.703.855.455.353.797.758 1.027 1.214.229.457.344.93.344 1.418 0 .28-.044.547-.132.8a1.923 1.923 0 01-.389.665c-.172.19-.382.34-.633.448-.25.109-.533.163-.847.163-.353 0-.645-.059-.876-.177a1.784 1.784 0 01-.57-.44 1.579 1.579 0 01-.313-.584 2.22 2.22 0 01-.09-.604c0-.162.028-.36.083-.59.056-.23.144-.436.264-.617a1.36 1.36 0 00-.387-.448 2.311 2.311 0 00-1.032-.434 3.077 3.077 0 00-.468-.04c-.469 0-.897.106-1.284.318-.387.213-.722.53-1.006.95-.284.42-.505.938-.662 1.553-.158.616-.236 1.326-.236 2.13 0 .706.065 1.385.196 2.036a5.4 5.4 0 00.641 1.723c.297.498.689.895 1.176 1.194.486.298 1.085.448 1.797.448.377 0 .757-.053 1.139-.157a5.323 5.323 0 001.098-.434 5.938 5.938 0 001.85-1.54l1.27 1.235c-.504.696-1.025 1.264-1.563 1.703a7.434 7.434 0 01-1.632 1.03 6.621 6.621 0 01-1.636.51c-.54.09-1.067.135-1.58.135a7.304 7.304 0 01-2.642-.474 6.243 6.243 0 01-2.161-1.385c-.617-.605-1.106-1.347-1.466-2.224-.36-.878-.541-1.882-.541-3.013zM182.408 3.93V1.788c.639 0 1.204-.026 1.696-.077.49-.052.909-.117 1.256-.194s.626-.161.838-.252a1.84 1.84 0 00.466-.264h1.499v8.181c.27-.217.579-.418.926-.604a9.454 9.454 0 011.067-.488c.364-.14.725-.251 1.081-.332.355-.082.673-.122.952-.122.847 0 1.565.12 2.155.36a3.344 3.344 0 011.445 1.105c.374.498.647 1.135.818 1.913.171.778.256 1.7.256 2.768v3.731a23.654 23.654 0 01-.027 1.099 31.433 31.433 0 01-.08 1.33l1.796-.082v2.117h-7.254v-1.832c.387 0 .69-.058.911-.176.221-.117.385-.284.493-.5a2.15 2.15 0 00.203-.778c.027-.302.041-.639.041-1.009l-.014-3.95c-.009-1.218-.194-2.111-.554-2.68-.36-.568-.923-.852-1.689-.852a3.596 3.596 0 00-1.384.305 4.266 4.266 0 00-1.142.712v6.296a30.221 30.221 0 01-.061 1.77c-.013.231-.029.45-.047.659l1.797-.082v2.117h-7.255v-1.832c.387 0 .691-.058.912-.174.221-.117.385-.282.493-.497.108-.214.176-.472.203-.772.027-.3.041-.632.041-1V6.279c0-.335.006-.72.02-1.153.013-.434.042-.86.087-1.276l-1.945.082zm16.83 11.126c0-.977.164-1.91.492-2.801a7.501 7.501 0 011.393-2.368 6.713 6.713 0 012.177-1.642c.85-.407 1.797-.61 2.842-.61.513 0 1.024.045 1.533.135.509.09.995.242 1.459.455.464.213.896.49 1.297.834.401.344.745.77 1.034 1.276.297.506.526 1.103.689 1.79.162.652.238 1.398.229 2.24v.135l-9.092.163c0 .76.07 1.463.21 2.11.139.646.362 1.203.668 1.668.307.466.707.832 1.203 1.1.495.266 1.103.4 1.823.4.279 0 .591-.037.933-.109.342-.072.691-.19 1.047-.353a6.046 6.046 0 001.074-.644c.36-.267.697-.595 1.013-.984l1.243 1.18c-.496.715-1.022 1.294-1.581 1.737a7.55 7.55 0 01-1.682 1.031 6.877 6.877 0 01-1.661.495 9.817 9.817 0 01-1.52.13c-1.018 0-1.945-.172-2.781-.516a6.09 6.09 0 01-2.157-1.48c-.601-.641-1.065-1.415-1.393-2.32-.328-.904-.492-1.92-.492-3.052zm4.242-2.347h5.094c-.018-.57-.086-1.054-.203-1.452-.117-.398-.277-.721-.48-.97a1.76 1.76 0 00-.709-.536 2.376 2.376 0 00-.892-.163c-.405 0-.768.077-1.087.231a2.54 2.54 0 00-.831.638 3.311 3.311 0 00-.574.983 5.59 5.59 0 00-.318 1.27zM94.827 46.507c0-.572.104-1.087.31-1.545a4.09 4.09 0 01.857-1.228c.364-.36.793-.673 1.288-.937a9.02 9.02 0 011.598-.66 12.7 12.7 0 011.787-.41c.62-.096 1.241-.158 1.861-.186v-1.487c0-.38-.032-.729-.095-1.048a2.27 2.27 0 00-.326-.827 1.588 1.588 0 00-.61-.542c-.235-.12-.524-.18-.868-.18h-.081a3.144 3.144 0 00-1.057.228 2.478 2.478 0 00-.84.563c.144.153.236.327.277.524.04.196.06.361.06.496 0 .196-.038.395-.116.596a1.58 1.58 0 01-.363.55 1.937 1.937 0 01-.625.41 2.29 2.29 0 01-.9.16 2.05 2.05 0 01-.785-.17 1.745 1.745 0 01-.582-.406 1.719 1.719 0 01-.355-.59 2.12 2.12 0 01-.124-.733c0-.543.158-1.04.474-1.492.316-.453.75-.84 1.302-1.16.552-.322 1.201-.57 1.947-.747a10.38 10.38 0 012.392-.264c.814 0 1.539.106 2.176.319a4.02 4.02 0 011.614.985c.438.444.772 1.008 1.003 1.692.23.685.346 1.499.346 2.442 0 .454-.003.854-.007 1.199-.005.345-.007.673-.007.983 0 .31-.002.647-.006 1.009a92.13 92.13 0 00-.007 1.248c0 .136-.003.298-.007.488l-.014.611a18.992 18.992 0 01-.075 1.33l1.784-.082v2.117h-5.24a11.018 11.018 0 01-.109-1.276h-.027c-.635.634-1.297 1.079-1.986 1.337a6.047 6.047 0 01-2.136.386 4.227 4.227 0 01-1.577-.278 3.24 3.24 0 01-1.168-.78 3.469 3.469 0 01-.729-1.174 4.126 4.126 0 01-.254-1.471zm3.918-.462c.01.263.059.484.15.665.09.18.205.33.345.447a1.3 1.3 0 00.488.258c.185.055.377.082.576.082.434 0 .836-.09 1.207-.271.371-.181.7-.43.99-.747l.013-3.107a8.25 8.25 0 00-1.477.285 4.503 4.503 0 00-1.2.536 2.62 2.62 0 00-.8.794c-.195.307-.292.66-.292 1.058zm9.481-7.516v-2.144c.64 0 1.206-.026 1.698-.077.491-.052.91-.116 1.257-.194.348-.077.628-.161.839-.252.212-.09.368-.178.467-.264h1.508v8.507c0 1.221.156 2.116.467 2.687.312.57.82.854 1.525.854.225 0 .46-.034.704-.102.244-.068.483-.162.718-.284a4.537 4.537 0 001.233-.944v-5.44c0-.335.007-.72.02-1.153.014-.434.043-.86.088-1.276l-1.945.082v-2.144c.639 0 1.202-.026 1.688-.077.487-.052.903-.116 1.25-.194.347-.077.626-.161.838-.252.211-.09.367-.178.466-.264h1.513V45.3a34.938 34.938 0 01-.108 2.429l1.797-.082v2.117h-5.256l-.148-1.452h-.027c-.28.244-.572.481-.874.712a6.74 6.74 0 01-.962.611c-.338.176-.7.316-1.084.42a4.74 4.74 0 01-1.239.156c-.818 0-1.516-.12-2.096-.36a3.304 3.304 0 01-1.421-1.105c-.369-.497-.638-1.133-.809-1.906-.17-.773-.256-1.698-.256-2.775v-3.188c0-.335.007-.72.02-1.153.013-.434.043-.86.088-1.276l-1.959.082zm16.344-.339v-2.32c.477-.01.923-.13 1.338-.36.414-.23.785-.518 1.114-.862.329-.343.608-.719.838-1.126a5.92 5.92 0 00.507-1.14h2.039l-.013 3.487h3.54v2.144l-3.54.068a3146.496 3146.496 0 00-.034 5.339c-.005.52-.007.89-.007 1.112v.387c0 .326.02.65.061.97.041.321.122.61.244.868.121.258.292.466.513.625.22.158.506.237.857.237.117 0 .264-.018.44-.054.176-.036.373-.111.594-.224a3.58 3.58 0 00.71-.502 5.11 5.11 0 00.769-.889l1.338 1.248c-.504.742-1.009 1.317-1.513 1.724-.505.407-.986.705-1.446.895-.459.19-.878.303-1.256.34-.378.035-.694.053-.946.053-.306 0-.623-.025-.95-.074a4.01 4.01 0 01-.97-.278 3.347 3.347 0 01-.902-.577 3.592 3.592 0 01-.754-.97c-.22-.398-.392-.88-.518-1.445-.126-.565-.189-1.232-.189-2.001l.041-6.703-1.905.027zm11.143 4.946c0-1.15.184-2.2.553-3.151.369-.95.871-1.764 1.505-2.438a6.717 6.717 0 012.221-1.569 6.604 6.604 0 012.685-.556 7.62 7.62 0 012.755.489 6.293 6.293 0 012.202 1.412c.62.615 1.107 1.365 1.462 2.247.355.883.532 1.882.532 2.995 0 1.166-.168 2.22-.505 3.165-.337.945-.808 1.749-1.415 2.413a6.155 6.155 0 01-2.174 1.532c-.845.357-1.77.535-2.776.535a7.722 7.722 0 01-2.787-.494 6.536 6.536 0 01-2.233-1.41 6.5 6.5 0 01-1.485-2.223c-.36-.871-.54-1.854-.54-2.947zm4.053-.748c0 .716.056 1.424.169 2.126.113.702.294 1.33.542 1.882.248.552.568 1 .961 1.344.393.345.869.517 1.429.517.551-.009.999-.163 1.347-.462.347-.299.623-.686.826-1.162a6.049 6.049 0 00.42-1.596 13.7 13.7 0 00.115-1.78c0-.688-.048-1.383-.142-2.084a7.681 7.681 0 00-.488-1.896c-.23-.561-.533-1.019-.907-1.372-.374-.353-.846-.53-1.415-.53-.541.019-.993.175-1.354.47a3.286 3.286 0 00-.88 1.147 5.785 5.785 0 00-.481 1.596 11.37 11.37 0 00-.142 1.8zm10.454-10.67v-2.144c.639 0 1.204-.026 1.695-.077.491-.052.91-.116 1.256-.194a4.9 4.9 0 00.838-.252c.212-.09.367-.178.466-.264h1.5V45.3a39.962 39.962 0 01-.061 1.77c-.013.231-.029.45-.047.659l1.797-.082v2.117h-7.255V47.93c.387 0 .691-.058.912-.174.221-.116.385-.282.493-.497.108-.214.175-.472.202-.771.027-.3.041-.633.041-1V34.065c0-.335.007-.72.02-1.153.014-.434.043-.86.088-1.276l-1.945.082zm8.292 11.418c0-1.15.184-2.2.553-3.151.369-.95.871-1.764 1.505-2.438a6.717 6.717 0 012.221-1.569 6.604 6.604 0 012.685-.556 7.62 7.62 0 012.755.489 6.293 6.293 0 012.202 1.412c.62.615 1.107 1.365 1.462 2.247.355.883.532 1.882.532 2.995 0 1.166-.169 2.22-.505 3.165-.337.945-.808 1.749-1.415 2.413a6.15 6.15 0 01-2.175 1.532c-.844.357-1.769.535-2.775.535a7.718 7.718 0 01-2.787-.494 6.536 6.536 0 01-2.233-1.41 6.5 6.5 0 01-1.485-2.223c-.36-.871-.54-1.854-.54-2.947zm4.053-.748c0 .716.056 1.424.169 2.126.113.702.294 1.33.542 1.882.248.552.568 1 .961 1.344.393.345.869.517 1.429.517.551-.009.999-.163 1.347-.462.347-.299.623-.686.826-1.162a6.049 6.049 0 00.42-1.596 13.7 13.7 0 00.115-1.78c0-.688-.048-1.383-.142-2.084a7.681 7.681 0 00-.488-1.896c-.23-.561-.533-1.019-.907-1.372-.374-.353-.846-.53-1.415-.53-.541.019-.993.175-1.354.47a3.286 3.286 0 00-.88 1.147 5.785 5.785 0 00-.481 1.596 11.37 11.37 0 00-.142 1.8zm11.021-3.859v-2.144c.64 0 1.205-.026 1.696-.077.491-.052.909-.116 1.256-.194.347-.077.626-.161.838-.252.211-.09.367-.178.466-.264h1.364l.122 1.344h.041a8.531 8.531 0 011.884-1.074 6.434 6.434 0 011.054-.326c.365-.08.727-.12 1.087-.12.847 0 1.547.148 2.101.443.554.295.998.752 1.331 1.369a8.643 8.643 0 011.054-.752 7.72 7.72 0 012.317-.933 5.382 5.382 0 011.141-.127c.738 0 1.391.102 1.959.305.567.204 1.04.534 1.418.99.379.457.665 1.052.858 1.785.194.732.291 1.632.291 2.7v4.097a39.92 39.92 0 01-.061 1.77c-.013.231-.029.45-.047.659l1.796-.082v2.117h-6.984V47.93c.315 0 .565-.058.75-.176a1.09 1.09 0 00.418-.5 2.36 2.36 0 00.176-.778c.023-.302.034-.638.034-1.009l-.014-4.248c0-.623-.056-1.141-.169-1.556-.112-.415-.265-.744-.459-.988a1.569 1.569 0 00-.702-.514 2.669 2.669 0 00-.912-.149c-.469.01-.892.1-1.27.271a4.884 4.884 0 00-1.04.638c.072.38.128.787.169 1.221.04.434.06.91.06 1.425v3.731a30.221 30.221 0 01-.027 1.099 25.699 25.699 0 01-.081 1.33l1.797-.082v2.117h-7.119V47.93c.35 0 .628-.058.83-.176.203-.117.354-.284.453-.5.099-.217.162-.476.189-.778.027-.302.04-.638.04-1.009l-.013-4.33c0-.604-.05-1.109-.149-1.515-.099-.406-.236-.73-.412-.974a1.441 1.441 0 00-.634-.514 2.26 2.26 0 00-.845-.149c-.441 0-.86.102-1.257.305a4.803 4.803 0 00-1.04.712V45.3a23.662 23.662 0 01-.027 1.099 25.699 25.699 0 01-.081 1.33l1.662-.082v2.117h-7.119V47.93c.387 0 .69-.058.911-.176.221-.117.385-.284.493-.5a2.15 2.15 0 00.203-.778c.027-.302.041-.638.041-1.008V40.8c0-.333.007-.705.02-1.116.013-.41.043-.823.088-1.238l-1.946.082zm23.707-6.811v-2.144c.64 0 1.205-.026 1.695-.077.492-.052.91-.116 1.257-.194.347-.077.626-.161.838-.252a1.84 1.84 0 00.466-.264h1.499v8.127c.622-.56 1.254-.95 1.898-1.167a5.733 5.733 0 011.831-.325c.828 0 1.585.165 2.27.495.684.33 1.272.8 1.762 1.41.492.611.872 1.35 1.142 2.219.27.869.405 1.841.405 2.917 0 1.122-.153 2.155-.459 3.1-.306.946-.75 1.762-1.33 2.45a6.163 6.163 0 01-2.115 1.614c-.828.389-1.765.583-2.81.583-.252 0-.54-.02-.865-.06a5.25 5.25 0 01-1.026-.245 5.534 5.534 0 01-1.088-.515 4.777 4.777 0 01-1.033-.862h-.027l-.797 1.235h-1.676V34.065c0-.335.007-.72.021-1.153.013-.434.043-.86.088-1.276l-1.946.082zm5.755 13.88c0 .488.063.898.19 1.227.125.33.29.595.492.794.203.2.43.341.683.428.252.085.504.128.756.128.604 0 1.106-.149 1.507-.447.4-.299.722-.695.966-1.188a5.842 5.842 0 00.513-1.689 12.71 12.71 0 00.149-1.967c0-.651-.059-1.276-.176-1.873a5.677 5.677 0 00-.54-1.58 3.11 3.11 0 00-.939-1.092c-.383-.272-.84-.407-1.372-.407a2.888 2.888 0 00-1.276.345 2.76 2.76 0 00-.953.835v6.485zm10.332.909c0-.572.104-1.087.31-1.545a4.11 4.11 0 01.857-1.228c.364-.36.793-.673 1.288-.937a9.001 9.001 0 011.598-.66 12.711 12.711 0 011.787-.41c.62-.096 1.241-.158 1.861-.186v-1.487c0-.38-.032-.729-.095-1.048a2.27 2.27 0 00-.326-.827 1.588 1.588 0 00-.61-.542c-.235-.12-.524-.18-.868-.18h-.081a3.143 3.143 0 00-1.057.228 2.482 2.482 0 00-.84.563c.144.153.236.327.277.524.04.196.06.361.06.496a1.641 1.641 0 01-.479 1.147 1.945 1.945 0 01-.625.409c-.252.107-.552.16-.901.16a2.047 2.047 0 01-.784-.17 1.753 1.753 0 01-.582-.406 1.714 1.714 0 01-.355-.59 2.11 2.11 0 01-.124-.733c0-.543.158-1.04.474-1.492.316-.453.751-.84 1.303-1.16.552-.322 1.2-.57 1.946-.747a10.382 10.382 0 012.392-.264c.814 0 1.539.106 2.176.319a4.02 4.02 0 011.614.985c.438.444.773 1.008 1.003 1.692.231.685.346 1.499.346 2.442 0 .454-.003.854-.007 1.199a85.82 85.82 0 00-.007.983c0 .31-.002.647-.006 1.009a92.13 92.13 0 00-.007 1.248c0 .136-.003.298-.007.488l-.014.611a21.949 21.949 0 01-.074 1.33l1.783-.082v2.117h-5.24a11.018 11.018 0 01-.109-1.276h-.027c-.635.634-1.297 1.079-1.986 1.337a6.045 6.045 0 01-2.135.386c-.589 0-1.114-.093-1.577-.278a3.238 3.238 0 01-1.169-.78 3.464 3.464 0 01-.729-1.174 4.134 4.134 0 01-.254-1.471zm3.918-.462c.009.263.059.484.149.665a1.316 1.316 0 00.834.705c.185.055.377.082.576.082.434 0 .836-.09 1.207-.271.371-.181.7-.43.99-.747l.013-3.107a8.25 8.25 0 00-1.477.285 4.496 4.496 0 00-1.2.536c-.34.222-.606.486-.8.794-.195.307-.292.66-.292 1.058zm10.008-7.475v-2.144c.639 0 1.205-.027 1.695-.082.491-.054.91-.122 1.257-.203a4.83 4.83 0 00.838-.265c.211-.095.366-.188.466-.278h1.364l.122 2.418h.04c.18-.247.399-.521.656-.823a5.82 5.82 0 01.891-.845 5.33 5.33 0 011.115-.658 3.242 3.242 0 011.323-.268c.325 0 .633.046.926.137.293.091.549.23.77.418.221.188.396.428.527.72.131.293.196.645.196 1.056 0 .215-.036.436-.108.663a1.89 1.89 0 01-.338.623 1.75 1.75 0 01-.601.462c-.248.12-.547.181-.899.181-.188 0-.382-.025-.58-.073a1.577 1.577 0 01-.548-.253 1.604 1.604 0 01-.432-.486c-.121-.204-.196-.465-.223-.785-.279 0-.56.093-.844.279a4.01 4.01 0 00-.797.692 5.744 5.744 0 00-.656.89 4.209 4.209 0 00-.405.854v4.51a23.496 23.496 0 01-.027 1.094 34.51 34.51 0 01-.081 1.324l1.797-.082v2.117h-7.255V47.93c.387 0 .691-.058.912-.175a1.12 1.12 0 00.493-.498c.108-.215.176-.473.203-.773.027-.301.041-.635.041-1.003V40.84c0-.334.006-.706.02-1.116.013-.41.042-.822.088-1.237l-1.946.081zm12.345 4.599c0-1.122.164-2.155.493-3.1.329-.945.793-1.762 1.392-2.45a6.374 6.374 0 012.162-1.614c.841-.389 1.776-.583 2.803-.583.513 0 .966.052 1.357.156.392.104.759.22 1.102.345V34.08a23.69 23.69 0 01.027-1.1c.008-.216.02-.44.033-.671.014-.23.029-.45.048-.658l-1.946.081v-2.116c.639 0 1.204-.027 1.696-.081.49-.055.909-.123 1.256-.204a4.81 4.81 0 00.838-.265c.211-.095.366-.188.466-.278h1.499V45.3a23.662 23.662 0 01-.027 1.099 34.938 34.938 0 01-.081 1.33l1.797-.082v2.117h-5.255l-.149-1.29h-.027c-.613.643-1.245 1.093-1.898 1.35a5.42 5.42 0 01-2.006.387c-.829 0-1.585-.165-2.27-.495a5.071 5.071 0 01-1.763-1.41c-.491-.611-.871-1.35-1.141-2.22-.27-.867-.406-1.84-.406-2.916zm4.053-.434c0 .599.054 1.193.162 1.782.108.59.282 1.118.521 1.585.238.467.546.846.925 1.136.378.29.833.435 1.365.435a2.49 2.49 0 001.31-.367c.405-.244.729-.563.973-.952v-8.38c-.199-.136-.473-.256-.824-.36a3.987 3.987 0 00-1.135-.157c-.64.018-1.171.179-1.595.483a3.284 3.284 0 00-1.013 1.197 5.73 5.73 0 00-.533 1.68 11.682 11.682 0 00-.156 1.918z" fill="#000"/></g><defs><clipPath id="clip0_4443_579"><path fill="#fff" transform="translate(0 .5)" d="M0 0h255v50H0z"/></clipPath></defs></svg>