<svg width="140" height="62" viewBox="0 0 140 62" fill="none" xmlns="http://www.w3.org/2000/svg"><path d="M85.963 39.142v-3.027c-1.143.78-3.057 1.467-4.848 1.467-2.686 0-3.705-1.28-3.859-3.901h8.861v-1.966c0-5.461-2.377-7.52-6.051-7.52-4.478 0-6.608 3.463-6.608 8.206 0 5.462 2.655 8.115 7.348 8.115 2.347 0 4.076-.625 5.157-1.374zm22.971 1.374c1.698 0 2.903-.313 3.798-.968V36.52c-.927.655-2.038 1.06-3.581 1.06-2.625 0-3.706-2.059-3.706-5.305 0-3.4 1.328-5.149 3.736-5.149 1.421 0 2.81.5 3.551.968v-3.153c-.772-.436-2.13-.748-3.952-.748-4.693 0-7.132 3.402-7.132 8.176 0 5.243 2.377 8.146 7.286 8.146zm-56.626-16.01v6.21H47.4v-6.21h-3.674v15.698H47.4V33.65h4.91v6.554h3.674V24.506h-3.675zM72.563 37.27h-1.636V24.507H60.21v1.341c0 3.839-.246 8.8-1.543 11.422h-1.143v6.522h3.397v-3.589h8.244v3.589h3.397V37.27zm25.132 2.933h4.169l-5.898-8.457 5.187-7.24h-3.705l-5.187 7.24v-7.24h-3.674v15.697h3.674v-7.708l5.434 7.708zM80.004 27.127c1.821 0 2.377 1.53 2.377 3.495v.313h-5.126c.093-2.497.988-3.807 2.748-3.807zM67.252 37.27h-5.187c1.018-2.372 1.296-6.647 1.296-9.362v-.468h3.891v9.83z" fill="#050505"/><path d="M36.901 40.203h3.736V18.514h-5.434c-5.465 0-8.337 2.84-8.337 7.021 0 3.34 1.575 5.306 4.385 7.335l-4.878 7.333h4.044l5.435-8.208-1.884-1.278c-2.285-1.562-3.396-2.778-3.396-5.4 0-2.31 1.606-3.87 4.662-3.87H36.9v18.756z" fill="#FC3F1D"/></svg>