<svg width="140" height="61" viewBox="0 0 140 61" fill="none" xmlns="http://www.w3.org/2000/svg"><path fill-rule="evenodd" clip-rule="evenodd" d="M27.889 44.675l-6.973-6.744-4.546 4.496a1.401 1.401 0 001.117 2.248h10.402z" fill="#FF4F12"/><path fill-rule="evenodd" clip-rule="evenodd" d="M32.385 26.69L22.268 16.575l-5.648 5.884a3.934 3.934 0 00-1.096 2.724v17.245a2.248 2.248 0 002.248 2.248 1.393 1.393 0 01-.983-2.379" fill="#7800FF"/><path fill-rule="evenodd" clip-rule="evenodd" d="M104.477 34.095h-2.432l-2.906 2.938v-2.938h-2.057v8.098h2.057v-3.347l2.955 3.347h2.482l-3.821-4.343 3.722-3.755zm-65.28 2.102h-2.971v-3.592h2.971c1.502 0 2.188.719 2.188 1.796 0 1.078-.686 1.796-2.188 1.796zm.066-5.518H34.07v11.428h2.155v-3.983h3.037c2.58 0 4.277-1.323 4.277-3.723s-1.698-3.722-4.277-3.722zm9.142 9.816c-1.208 0-2.335-.866-2.335-2.351 0-1.486 1.127-2.351 2.335-2.351s2.335.865 2.335 2.35c0 1.486-1.127 2.352-2.335 2.352zm0-6.629c-2.22 0-4.425 1.437-4.425 4.278 0 2.84 2.205 4.277 4.425 4.277 2.22 0 4.425-1.436 4.425-4.277s-2.204-4.278-4.425-4.278zm9.675 6.629c-1.24 0-2.154-.898-2.154-2.351 0-1.437.947-2.351 2.155-2.351.735 0 1.371.343 1.877 1.11l1.764-1.012c-.588-1.258-1.862-2.025-3.625-2.025-2.302 0-4.261 1.698-4.261 4.278 0 2.58 1.861 4.277 4.261 4.277 1.73 0 2.89-.783 3.706-2.171l-1.698-.93c-.49.685-1.012 1.175-2.024 1.175zm21.905-1.813c-.098 1.241-.343 1.519-.768 1.519a2.07 2.07 0 01-.625-.084l.01 2.095s.256.078.73.078c1.747 0 2.4-1.126 2.563-3.526l.196-2.824h2.318v6.236h2.057v-8.081h-6.138l-.343 4.587zm-8.089-1.616c.294-.914 1.11-1.633 2.188-1.633 1.143 0 1.91.62 2.106 1.633h-4.294zm2.254-3.2c-2.352 0-4.262 1.715-4.262 4.278 0 2.563 1.91 4.277 4.163 4.277 1.78 0 2.907-.67 3.723-2.057l-1.633-.816c-.506.637-.963 1.11-2.057 1.11-1.208 0-2.09-.784-2.22-2.024H78.1v-.719c0-2.367-1.632-4.049-3.95-4.049zm15.476 3.2c.294-.914 1.11-1.633 2.188-1.633 1.142 0 1.91.62 2.106 1.633h-4.294zm2.253-3.2c-2.351 0-4.261 1.715-4.261 4.278 0 2.563 1.91 4.277 4.163 4.277 1.78 0 2.906-.67 3.722-2.057l-1.632-.816c-.506.637-.963 1.11-2.057 1.11-1.209 0-2.09-.784-2.22-2.024h6.236v-.719c0-2.367-1.633-4.049-3.951-4.049zM62.444 35.89h2.416v6.303h2.057V35.89h2.417v-1.796h-6.89v1.796z" fill="#101828"/><path fill-rule="evenodd" clip-rule="evenodd" d="M108.659 40.495c-1.208 0-2.334-.866-2.334-2.351 0-1.486 1.126-2.351 2.334-2.351 1.209 0 2.335.865 2.335 2.35 0 1.486-1.126 2.352-2.335 2.352zm0-6.629c-2.22 0-4.424 1.437-4.424 4.278 0 2.84 2.204 4.277 4.424 4.277 2.221 0 4.425-1.436 4.425-4.277s-2.204-4.278-4.425-4.278zm12.61.227l-2.232 5.672-2.233-5.672h-2.689v8.083h1.956V37.06l2.167 5.117h1.597l2.168-5.117v5.117h1.955v-8.083h-2.689z" fill="#101828"/></svg>