<svg width="127" height="35" viewBox="0 0 127 35" fill="none" xmlns="http://www.w3.org/2000/svg"><path d="M10.512 17.637l5.998 7.988h-3.734L7.57 18.65H3.609v6.975H.327V9.875H3.61v7.087h3.735l5.205-7.087h3.622l-5.659 7.762zm11.994 2.476h7.017l-3.395-8.325H25.9l-3.395 8.325zm6.111-10.238l6.451 15.75h-3.26L30.316 21.8h-8.6l-1.495 3.825h-3.259l6.45-15.75h5.206zm21.963 1.912l-10.526 12.15h10.752v1.688H36.094v-1.913l10.524-12.15H36.32V9.876h14.26v1.912zm18.892-1.912v15.75h-4.3L56.684 12.8h-.226v12.825h-3.282V9.875h4.3L65.964 22.7h.226V9.875h3.282zm7.364 10.238h7.016l-3.395-8.325h-.226l-3.395 8.325zm6.111-10.238l6.45 15.75h-3.259L84.645 21.8h-8.601l-1.494 3.825h-3.26l6.451-15.75h5.206z" fill="#2B2D42"/><path fill-rule="evenodd" clip-rule="evenodd" d="M98.03 0a8.125 8.125 0 100 16.25h20.845a8.125 8.125 0 000-16.25H98.031zm5.637 11.875l-.704-1.62h-3.52l-.695 1.62H97.4l3.169-7h1.287l3.179 7h-1.368zm-3.782-2.64h2.645l-1.328-3.06-1.317 3.06zm10.955-4.36c1.851 0 2.997.94 2.997 2.49 0 1.54-1.146 2.49-2.997 2.49h-1.59v2.02h-1.307v-7h2.897zm-.061 3.88c1.147 0 1.741-.51 1.741-1.39 0-.88-.594-1.39-1.741-1.39h-1.529v2.78h1.529zm6.376-3.88v7h1.308v-7h-1.308z" fill="#EF233C"/></svg>