<svg width="140" height="62" viewBox="0 0 140 62" fill="none" xmlns="http://www.w3.org/2000/svg"><path fill-rule="evenodd" clip-rule="evenodd" d="M43.595 23.42l.287-1.127H19.394c-1.073 0-2.01.73-2.268 1.77l-1.046 4.203a.358.358 0 00.493.413c7.274-3.198 16.564-4.875 26.58-4.916.209 0 .39-.14.442-.343zM24.758 39.825a.237.237 0 01-.216-.33c3.268-7.544 10.585-11.17 17.916-11.518l-.328 1.305a.45.45 0 01-.35.33c-5.715 1.164-9.444 5.064-10.902 9.935a.385.385 0 01-.369.278h-5.75zm10.102-.27c.65-4.133 3.393-7.442 6.865-8.642l-1.837 7.342a2.078 2.078 0 01-2.017 1.57h-2.778a.236.236 0 01-.233-.27zm-21.208-1.578l.908-3.655c.079-.316.263-.6.523-.797 7.144-5.407 16.046-8.292 28.098-8.425l-.301 1.221a.451.451 0 01-.42.34c-11.363.52-18.916 5.427-22.57 12.87a.515.515 0 01-.463.291h-4.325a1.49 1.49 0 01-1.45-1.845z" fill="#ED7239"/><path d="M48.581 37.386c.22 0 .298.024.358.094.1.117.14.287-.057 1.073-.198.786-.32.956-.482 1.072-.095.07-.182.095-.401.095h-.67c-.22 0-.3-.025-.36-.095-.1-.116-.138-.286.06-1.072.197-.786.316-.956.476-1.073.095-.07.185-.094.404-.094h.672zm-1.29 1.974c.02.025.044.038.158.038h.588c.113.003.143-.013.176-.038.046-.032.116-.137.287-.81.168-.673.146-.775.117-.81-.02-.025-.044-.038-.158-.038h-.588c-.114 0-.143.013-.176.038-.043.032-.116.137-.284.81-.168.673-.147.778-.12.81zm3.556.262c-.095.07-.182.095-.401.095h-.648c-.22 0-.3-.025-.36-.095-.1-.116-.139-.286.06-1.072.197-.786.316-.956.476-1.073.095-.07.184-.094.404-.094h.648c.22 0 .298.024.357.094.1.117.125.27.03.673h-.374c.063-.294.054-.375.025-.41-.02-.025-.044-.038-.158-.038h-.569c-.114 0-.143.013-.176.037-.043.033-.116.138-.284.81-.171.673-.147.776-.12.811.02.024.044.038.158.038h.569c.113.003.143-.014.176-.038.046-.032.095-.1.19-.446h.376c-.133.462-.22.592-.38.708zm1.487.095h-.415l.45-.708-.57-1.623h.391l.423 1.264.019-.014.797-1.25h.43l-1.525 2.331zm5.534-.657h-.888l-.369.657h-.371l1.303-2.25c.044-.076.068-.09.157-.09h.326c.084 0 .103.014.11.09l.182 2.25h-.403l-.047-.657zm-.712-.313h.69l-.059-1.045h-.051l-.58 1.045zm3.419.025c-.089.067-.21.086-.382.086h-.79l-.215.859h-.374l.583-2.331h1.165c.17 0 .285.019.341.086.076.09.13.24.025.66-.1.4-.23.548-.352.64zm-.392-.236c.116 0 .16-.01.187-.03.043-.029.11-.105.181-.386.07-.283.043-.356.014-.386-.02-.019-.057-.03-.174-.03h-.699l-.206.832h.697zm2.495 1.086c-.094.07-.181.095-.4.095h-.648c-.22 0-.301-.025-.36-.095-.101-.116-.14-.286.059-1.072.198-.786.317-.956.477-1.073.095-.07.184-.094.404-.094h.647c.22 0 .298.024.358.094.1.117.125.27.03.673h-.374c.062-.294.054-.375.024-.41-.019-.025-.043-.038-.157-.038h-.57c-.113 0-.143.013-.175.037-.044.033-.117.138-.285.81-.17.673-.146.776-.12.811.02.024.044.038.158.038h.57c.113.003.143-.014.175-.038.046-.032.095-.1.19-.446h.377c-.133.462-.22.592-.38.708zm2.142-1.917l-.502 2.012h-.374l.501-2.012h-.734l.081-.32h1.846l-.082.32h-.737zm-18.97 0l-.502 2.012h-.374l.502-2.012.075-.32h1.513l-.082.32H45.85zm20.237-.319h1.22c.17 0 .284.027.344.097.076.09.09.205.005.546-.08.324-.225.418-.463.475v.006c.257.043.325.167.238.524-.097.383-.181.489-.3.58-.09.07-.233.103-.399.103h-1.225l.58-2.331zm.992 1.304c-.013-.018-.04-.026-.149-.026h-.789l-.184.731h.789c.103 0 .143-.002.17-.027.033-.026.074-.08.139-.332.065-.262.048-.316.024-.346zm-.09-.34c.104 0 .139-.005.169-.027.04-.03.073-.084.127-.3.054-.213.049-.262.025-.294-.014-.02-.05-.027-.158-.027h-.77l-.16.645h.768v.003zm2.502 1.367h-1.596l.583-2.331h1.596l-.081.319H68.77l-.16.642h1.014l-.081.32h-1.014l-.184.728h1.222l-.076.322zm2.469 0h-.373l.26-1.048H70.73l-.26 1.048h-.374l.583-2.331h.374l-.241.961h1.116l.241-.961h.374l-.582 2.331zm2.578 0h-.374l.26-1.048h-1.116l-.26 1.048h-.374l.582-2.331h.374l-.24.961h1.116l.24-.961h.375l-.583 2.331zm2.064-.657h-.889l-.368.657h-.371l1.303-2.25c.043-.076.068-.09.157-.09h.326c.084 0 .102.014.11.09l.182 2.25h-.404l-.046-.657zm-.712-.313h.69l-.059-1.045h-.049l-.582 1.045zm7.737-1.361l-1.176 1.1.615 1.231h-.445l-.507-1.048h-.21l-.261 1.048h-.374l.583-2.331h.374l-.242.961h.201l1.008-.961h.434zm1.593 0c.22 0 .299.024.359.094.1.117.14.287-.058 1.073s-.32.956-.482 1.072c-.095.07-.182.095-.4.095h-.67c-.22 0-.301-.025-.36-.095-.101-.116-.14-.286.059-1.072.198-.786.317-.956.477-1.073.095-.07.184-.094.403-.094h.672zm-1.29 1.974c.02.025.044.038.158.038h.588c.114.003.144-.013.176-.038.046-.032.117-.137.287-.81.169-.673.146-.775.117-.81-.02-.025-.043-.038-.157-.038h-.589c-.113 0-.143.013-.175.038-.044.032-.117.137-.285.81-.171.673-.146.778-.12.81zm4.377.357h-.382l.493-1.983h-.049l-1.016 1.878c-.046.086-.062.102-.154.102h-.242c-.089 0-.102-.016-.105-.102l-.068-1.913h-.052l-.495 2.018h-.363l.583-2.331h.582c.095 0 .117.03.117.116l.043 1.729h.048l.903-1.73c.046-.086.081-.115.173-.115h.57l-.586 2.331zm2.567 0H90.5l.5-2.012h-1.115l-.502 2.012h-.374l.583-2.331h1.864l-.582 2.331zm2.035-.657h-.89l-.368.657h-.371l1.303-2.25c.044-.076.068-.09.158-.09h.325c.084 0 .103.014.11.09l.182 2.25h-.404l-.045-.657zm-.713-.313h.69l-.059-1.045h-.048l-.583 1.045zm3.404.97h-.374l.26-1.048H94.37l-.26 1.048h-.374l.582-2.331h.374l-.24.961h1.116l.24-.961h.375l-.583 2.331zm1.3-2.331h.364l-.434 1.758h.051l1.269-1.648c.062-.089.102-.11.198-.11h.414l-.582 2.331h-.364l.464-1.84h-.05l-1.327 1.73c-.062.088-.106.11-.2.11h-.382l.58-2.331zm2.483 1.688c-.073.268-.15.548-.203.643h-.374c.046-.127.103-.327.203-.654.09-.297.187-.408.466-.445l.003-.006c-.247-.062-.328-.23-.241-.562.092-.348.203-.478.336-.567a.78.78 0 01.406-.097h1.166l-.583 2.331h-.374l.239-.962h-.648c-.26 0-.347.133-.396.32zm1.125-.627l.184-.742h-.68c-.228 0-.328.089-.404.367-.065.238-.014.375.195.375h.705zm-22.58.627c-.073.268-.15.548-.203.643h-.374c.046-.127.103-.327.203-.654.09-.297.187-.408.466-.445l.003-.006c-.247-.062-.328-.23-.242-.562.093-.348.204-.478.337-.567a.78.78 0 01.406-.097h1.165l-.582 2.331h-.374l.238-.962h-.648c-.26 0-.346.133-.395.32zm1.124-.627l.184-.742h-.68c-.227 0-.327.089-.403.367-.065.238-.014.375.195.375h.704z" fill="#373736"/><path fill-rule="evenodd" clip-rule="evenodd" d="M55.938 37.386h.158l-.504 2.012h.268l-.15.6h-.373l.07-.281h-1.621l-.07.28h-.374l.15-.599h.14c.194-.12.41-.403.542-.818.138-.435.371-1.194.371-1.194h1.393zm-1.379 1.159c-.127.391-.303.67-.455.85h1.116l.423-1.69h-.821c-.068.221-.163.529-.263.84z" fill="#373736"/><path d="M61.08 22.342h6.496c.94 0 1.54.162 1.846.549.374.483.469 1.226.146 2.488-.404 1.615-1.165 2.277-2.43 2.566l-.017.032c1.247.26 1.702.776 1.247 2.566-.372 1.486-.827 2.035-1.426 2.502-.534.402-1.263.597-2.154.597h-6.529l2.821-11.3zm4.762 6.686c-.098-.097-.228-.146-.648-.146h-3.076l-.685 2.728h3.051c.404 0 .567-.016.713-.13.162-.129.325-.259.55-1.193.241-.97.192-1.116.095-1.259zm-.258-2.004c.42 0 .55-.017.68-.114.18-.146.356-.467.55-1.242.18-.743.147-1.051.05-1.178-.082-.081-.212-.13-.648-.13h-2.984l-.645 2.664h2.997zm11.347-2.583l-2.3 9.204h-2.64l2.3-9.204h-3.45l.518-2.099h9.37l-.519 2.1h-3.279zm11.439-2.099c1.117 0 1.604.162 1.91.549.486.597.697 1.631-.162 5.102-.875 3.455-1.605 4.49-2.399 5.103-.5.386-1.05.549-2.17.549h-3.512c-1.117 0-1.605-.163-1.91-.549-.502-.613-.714-1.648.162-5.103.859-3.47 1.588-4.505 2.398-5.102.501-.387 1.054-.549 2.17-.549h3.513zM82.49 31.4c.097.097.227.146.744.146h2.155c.517.016.68-.049.81-.146.18-.146.501-.549 1.214-3.407.713-2.874.6-3.276.485-3.406-.081-.113-.21-.162-.729-.162h-2.154c-.518 0-.68.049-.827.162-.179.13-.485.532-1.198 3.406-.726 2.875-.615 3.26-.5 3.407zm30.281-9.058c1.116 0 1.604.162 1.91.549.485.597.697 1.631-.162 5.102-.876 3.455-1.604 4.49-2.396 5.103-.501.386-1.054.549-2.171.549h-3.514c-1.117 0-1.605-.163-1.911-.549-.501-.613-.713-1.648.162-5.103.859-3.47 1.589-4.505 2.396-5.102.501-.387 1.054-.549 2.171-.549h3.515zM106.89 31.4c.098.097.228.146.746.146h2.154c.518.016.68-.049.81-.146.179-.146.502-.549 1.214-3.407.713-2.874.599-3.276.486-3.406-.082-.113-.212-.162-.73-.162h-2.154c-.518 0-.68.049-.826.162-.179.13-.486.532-1.198 3.406-.727 2.875-.615 3.26-.502 3.407zm17.423-2.067c-.469.34-1.116.467-2.041.467h-3.461l-.956 3.841h-2.64l2.819-11.302h6.1c.924 0 1.507.114 1.813.452.404.467.68 1.193.147 3.292-.502 2.056-1.166 2.799-1.781 3.25zm-2.558-1.6c.598 0 .777-.032.924-.129.211-.162.436-.45.712-1.55.277-1.097.179-1.373.05-1.518-.082-.098-.261-.146-.86-.146h-2.422l-.827 3.341h2.423v.003zm-68.677-5.391c-3.055 0-3.884.524-4.735 3.833-.824 3.199-1.921 7.47-1.921 7.47h2.686l1.038-4.063h4.078l-1.013 4.063h2.68l2.82-11.303h-5.633zm-2.426 5.254c.306-1.194.553-2.155.615-2.39.214-.813.832-.849 1.374-.849h2.949l-.873 3.24h-4.065z" fill="#373736"/><path fill-rule="evenodd" clip-rule="evenodd" d="M92.148 33.645l-.414 1.474h-2.385l.88-3.557h.395c.156-.012.28-.046.4-.107 1.623-1.304 2.122-2.946 2.664-4.728a154.497 154.497 0 01.241-.794c.201-.663.427-1.405.729-2.286.274-.794.458-1.305 1.688-1.305h7.301l-2.298 9.22h1.206l-.905 3.557h-2.317l.333-1.474h-7.518zm4.408-8.287c-.135.424-.304.954-.562 1.817-.58 1.937-1.152 3.498-2.081 4.384h4.783l1.772-7.204h-3.154c-.331 0-.499.178-.578.432-.056.182-.114.364-.18.571z" fill="#373736"/></svg>