<svg width="159" height="44" viewBox="0 0 159 44" fill="none" xmlns="http://www.w3.org/2000/svg"><path d="M13.16 22.173l7.51 10.041h-4.676l-6.517-8.768H4.518v8.768H.409v-19.8h4.109v8.91h4.676l6.517-8.91h4.534l-7.084 9.759zm15.017 3.111h8.784l-4.25-10.466h-.284l-4.25 10.466zm7.65-12.87l8.077 19.8h-4.08l-1.871-4.808H27.185l-1.87 4.808h-4.08l8.075-19.8h6.518zm27.496 2.404L50.147 30.093h13.46v2.121h-18.42V29.81l13.177-15.274H45.471v-2.122h17.852v2.404zm23.654-2.404v19.8h-5.385L70.966 16.091h-.283v16.123h-4.109v-19.8h5.384l10.626 16.123h.284V12.414h4.109zm9.219 12.87h8.784l-4.25-10.466h-.284l-4.25 10.466zm7.651-12.87l8.076 19.8h-4.081l-1.87-4.808H95.204l-1.87 4.808h-4.08l8.075-19.8h6.518z" fill="#fff"/><path fill-rule="evenodd" clip-rule="evenodd" d="M122.774 0c-5.641 0-10.214 4.573-10.214 10.214s4.573 10.215 10.214 10.215h26.012c5.641 0 10.214-4.573 10.214-10.215C159 4.574 154.427 0 148.786 0h-26.012zm7.014 14.929l-.881-2.037h-4.408l-.869 2.037h-1.688l3.967-8.8h1.612l3.98 8.8h-1.713zm-4.735-3.32h3.312l-1.662-3.846-1.65 3.847zm13.715-5.48c2.317 0 3.753 1.181 3.753 3.13 0 1.936-1.436 3.13-3.753 3.13h-1.99v2.54h-1.637v-8.8h3.627zm-.075 4.877c1.435 0 2.178-.64 2.178-1.747 0-1.106-.743-1.748-2.178-1.748h-1.915v3.495h1.915zm7.982-4.877v8.8h1.637v-8.8h-1.637z" fill="#fff"/></svg>