<svg width="141" height="62" viewBox="0 0 141 62" fill="none" xmlns="http://www.w3.org/2000/svg"><path d="M62.117 26.269v-1.882c.206.034.513.034.684.034 1.232 0 1.882-.787 1.882-1.676 0-.856-.479-1.677-2.018-1.677h-1.472v5.167h.924v.034zm.65-4.345c.616 0 .958.273.958.82 0 .582-.41.822-.958.822-.205 0-.445 0-.65-.034v-1.574c.274 0 .48-.034.65-.034zm2.6 1.745c0 1.608 1.164 2.668 2.704 2.668 1.54 0 2.703-1.129 2.703-2.668 0-1.609-1.164-2.67-2.703-2.67-1.608.035-2.703 1.198-2.703 2.67zm.959 0c0-1.061.752-1.814 1.745-1.814.958 0 1.745.753 1.745 1.814 0 1.026-.65 1.813-1.745 1.813-.993.034-1.745-.753-1.745-1.813zm9.067 1.437c-.343.273-.787.41-1.232.41-1.06 0-1.78-.753-1.78-1.813 0-1.13.72-1.814 1.677-1.814.513 0 .856.137 1.164.343l.41-.685c-.342-.308-.89-.513-1.574-.513-1.71 0-2.634 1.198-2.634 2.669 0 1.608 1.095 2.669 2.668 2.669.685 0 1.335-.24 1.643-.582l-.342-.684zm4.824 0c-.342.273-.787.41-1.232.41-1.06 0-1.779-.753-1.779-1.813 0-1.13.719-1.814 1.677-1.814.513 0 .855.137 1.163.343l.41-.685c-.342-.308-.89-.513-1.573-.513-1.711 0-2.635 1.198-2.635 2.669 0 1.608 1.095 2.669 2.669 2.669.684 0 1.334-.24 1.642-.582l-.342-.684zm2.053 1.163l2.703-3.661v3.66h.924v-5.166h-.787l-2.703 3.696v-3.696h-.924v5.167h.787zm5.85 0l2.704-3.661v3.66h.924v-5.166h-.787l-2.703 3.696v-3.696h-.924v5.167h.787zm.035-6.433c.068.616.582 1.061 1.471 1.061.821 0 1.403-.41 1.437-1.06h-.855c-.034.307-.274.444-.582.444-.376 0-.581-.137-.616-.445h-.855zm8.622 5.27c-.342.273-.787.41-1.231.41-1.061 0-1.78-.753-1.78-1.813 0-1.13.719-1.814 1.677-1.814.513 0 .855.137 1.163.343l.41-.685c-.341-.308-.889-.513-1.573-.513-1.71 0-2.635 1.198-2.635 2.669 0 1.608 1.095 2.669 2.67 2.669.683 0 1.334-.24 1.641-.582l-.342-.684zm1.232 1.163h.924V23.6l2.121 2.669h1.163l-2.258-2.771 2.122-2.396h-1.095l-2.053 2.464v-2.464h-.924v5.167zm5.782 0l2.703-3.661v3.66h.924v-5.166h-.787l-2.703 3.696v-3.696h-.924v5.167h.787zm5.851 0l2.703-3.661v3.66h.924v-5.166h-.787l-2.703 3.696v-3.696h-.924v5.167h.787zm0-6.433c.069.616.582 1.061 1.471 1.061.822 0 1.403-.41 1.437-1.06h-.855c-.034.307-.274.444-.582.444-.376 0-.581-.137-.615-.445h-.856zm2.429 16.458h.924v-5.167h-.787l-2.703 3.695v-3.695h-.924v5.167h.787l2.703-3.661v3.66zm.205-6.433h-.855c-.034.308-.274.445-.582.445-.376 0-.581-.137-.616-.445h-.855c.068.616.582 1.061 1.471 1.061.821 0 1.437-.445 1.437-1.06zm-6.056 6.433h.89v-5.167h-.89v5.167zm-.684-1.78c0-1.026-.616-1.676-1.882-1.676-.137 0-.342 0-.582.034v-1.779h-.923v5.167h1.3c1.334.034 2.087-.65 2.087-1.745zm-.958.035c0 .616-.342.924-1.027.924-.171 0-.342 0-.479-.035v-1.676c.206-.034.377-.034.514-.034.615-.035.992.24.992.82zm-4.756 1.745h.89v-5.167h-.89v2.122h-2.36v-2.122h-.925v5.167h.924V34.07h2.36v2.224zm-5.714-4.345h1.676v-.856h-4.276v.855h1.676v4.312h.924v-4.311zm-3.011.82c0-.855-.479-1.676-2.019-1.676h-1.47v5.167h.923v-1.882c.205.034.513.034.684.034 1.232.034 1.882-.787 1.882-1.642zm-.958-.034c0 .582-.41.822-.958.822-.205 0-.445 0-.65-.035V31.95h.65c.616 0 .958.273.958.786zm-3.558.958c0-1.608-1.164-2.668-2.703-2.668-1.574 0-2.703 1.163-2.703 2.668 0 1.609 1.163 2.67 2.703 2.67 1.54 0 2.703-1.13 2.703-2.67zm-.958 0c0 1.027-.65 1.814-1.745 1.814-.958 0-1.745-.787-1.745-1.814 0-1.06.752-1.813 1.745-1.813.992 0 1.745.753 1.745 1.813zm-6.399 2.6h.924v-5.166h-4.106v5.167h.924v-4.345h2.293v4.345h-.035zm-7.459-2.6c0-1.129.719-1.813 1.677-1.813.513 0 .855.137 1.163.342l.41-.684c-.341-.308-.889-.513-1.573-.513-1.71 0-2.635 1.197-2.635 2.668 0 1.609 1.095 2.67 2.67 2.67.683 0 1.334-.24 1.641-.582l-.342-.685c-.342.274-.787.41-1.231.41-1.061 0-1.78-.718-1.78-1.813zm-1.368 2.6l-2.258-2.77 2.12-2.396h-1.094l-2.053 2.464v-2.464h-.924v5.167h.924v-2.669l2.122 2.669h1.163zm-5.235-2.6c0-1.608-1.095-2.668-2.6-2.668-.787 0-1.403.273-1.78.581l.343.685a2.022 2.022 0 011.197-.411c.992 0 1.676.479 1.848 1.334h-2.293v.856h2.327c-.171.958-.89 1.437-1.78 1.437a2.3 2.3 0 01-1.334-.445l-.376.753c.376.308 1.026.547 1.745.547 1.676 0 2.703-1.06 2.703-2.669zm75.274-.923c0-.856-.48-1.677-2.019-1.677h-1.471v5.166h.923v-1.882c.206.035.514.035.685.035 1.231.034 1.882-.787 1.882-1.643zm-.959-.035c0 .582-.41.821-.958.821-.205 0-.444 0-.65-.034v-1.574h.65c.616 0 .958.274.958.787zm-4.961-.787h1.677v-.855h-4.277v.855h1.676v4.311h.924v-4.31zm-4.277 4.346h.89v-5.167h-.89v2.121h-2.36v-2.121h-.924v5.167h.924V34.07h2.36v2.224zm-7.527 0h3.079v-.856h-2.155v-1.334h1.847v-.856h-1.847v-1.3h2.087v-.855h-2.977v5.2h-.034zm-1.745.923h.855v-1.779h-.718v-4.311h-.924v4.311h-2.258v-4.311h-.924v5.167h3.935v.923h.034z" fill="#15284D"/><path d="M25.54 15.833l-3.01 1.13-.548-1.13h3.559z" fill="#5B7BBB"/><path d="M21.983 15.833l.547 1.13-2.6.957 2.053-2.087z" fill="#D24A43"/><path d="M34.779 16.107l2.463 3.49-9.34-.856 6.877-2.634zm15.329-.274l-3.696 1.471-1.984-1.471h5.68zM19.93 21.752l-2.977 3.525-3.696-.377 6.672-3.148z" fill="#5B7BBB"/><path d="M16.953 25.276l-3.696 4.38-.034-4.756 3.73.376zm33.223-9.443l-1.506 3.114-2.258-1.643 3.695-1.471h.069z" fill="#D24A43"/><path d="M5.935 32.496l-.308 3.558L.05 39.031l5.885-6.535z" fill="#5B7BBB"/><path d="M5.627 36.054l-.444 4.003-5.133-.992 5.577-3.01z" fill="#D24A43"/><path d="M39.227 22.813l5.235 6.364-8.725-.924 3.49-5.44z" fill="#5B7BBB"/><path d="M44.462 29.177l-12.729 5.304 4.004-6.228 8.724.924zm-18.956 7.596L13.19 41.939v-7.938l12.317 2.772z" fill="#D24A43"/><path d="M40.561 39.134L36.97 46.49l-1.916-5.098 5.508-2.258z" fill="#5B7BBB"/><path d="M35.053 41.392l1.916 5.098-9.273-1.882 7.357-3.216z" fill="#D24A43"/><path d="M21.777 25.961l7.22-2.84 1.984 3.798-9.204-.958z" fill="#5B7BBB"/><path d="M21.777 25.96l9.204.959-8.075 3.25-1.13-4.209z" fill="#D24A43"/></svg>