<svg width="20" height="20" viewBox="0 0 20 20" fill="none" xmlns="http://www.w3.org/2000/svg"><path d="M16.667 6.875V15c0 2.5-1.491 3.334-3.333 3.334H6.667c-1.841 0-3.333-.834-3.333-3.334V6.875c0-2.708 1.492-3.333 3.333-3.333 0 .517.209.983.55 1.325.342.342.809.55 1.325.55h2.917a1.878 1.878 0 001.875-1.875c1.842 0 3.333.625 3.333 3.333z" stroke="#828282" stroke-width="1.5" stroke-linecap="round" stroke-linejoin="round"/><path d="M13.333 3.542a1.878 1.878 0 01-1.875 1.875H8.54c-.517 0-.983-.208-1.325-.55a1.864 1.864 0 01-.55-1.325c0-1.033.842-1.875 1.875-1.875h2.917c.516 0 .983.208 1.325.55.341.342.55.808.55 1.325zm-6.667 7.291h3.333m-3.333 3.334h6.667" stroke="#828282" stroke-width="1.5" stroke-linecap="round" stroke-linejoin="round"/></svg>