<svg xmlns="http://www.w3.org/2000/svg" xmlns:xlink="http://www.w3.org/1999/xlink"><defs>
<linearGradient id="paint0_linear_1359_13440" x1="68" y1="0.0468752" x2="64.9178" y2="135.977" gradientUnits="userSpaceOnUse">
<stop stop-color="#2E3250"/>
<stop offset="1" stop-color="#656A93"/>
</linearGradient>
<linearGradient id="paint1_linear_1359_13440" x1="37.5" y1="49" x2="37.5" y2="119" gradientUnits="userSpaceOnUse">
<stop stop-color="white"/>
<stop offset="1" stop-color="#E0E6FA"/>
</linearGradient>
<linearGradient id="paint2_linear_1359_13440" x1="57.7501" y1="83.418" x2="57.6672" y2="62.0615" gradientUnits="userSpaceOnUse">
<stop stop-color="#8D99AE"/>
<stop offset="1" stop-color="#656A93"/>
</linearGradient>
<linearGradient id="paint3_linear_1359_13440" x1="117.17" y1="102" x2="117.17" y2="135.971" gradientUnits="userSpaceOnUse">
<stop stop-color="#EF233C"/>
<stop offset="1" stop-color="#9B2352"/>
</linearGradient>

<linearGradient id="paint0_linear_1346_48597" x1="71" y1="0.0468752" x2="67.9178" y2="135.977" gradientUnits="userSpaceOnUse">
<stop stop-color="#2E3250"/>
<stop offset="1" stop-color="#656A93"/>
</linearGradient>
<linearGradient id="paint1_linear_1346_48597" x1="44.2143" y1="70.5836" x2="134.561" y2="106.468" gradientUnits="userSpaceOnUse">
<stop stop-color="white"/>
<stop offset="1" stop-color="#E0E6FA"/>
</linearGradient>
<linearGradient id="paint2_linear_1346_48597" x1="71" y1="48" x2="71" y2="66" gradientUnits="userSpaceOnUse">
<stop stop-color="#2E3250"/>
<stop offset="1" stop-color="#656A93"/>
</linearGradient>
<linearGradient id="paint3_linear_1346_48597" x1="76.6767" y1="100" x2="76.6767" y2="136" gradientUnits="userSpaceOnUse">
<stop stop-color="#EF233C"/>
<stop offset="1" stop-color="#9B2352"/>
</linearGradient>

<clipPath id="clip0_837_4605">
<rect width="32" height="32" fill="white"/>
</clipPath>

<linearGradient id="paint0_linear_1346_48791" x1="68" y1="0.0468752" x2="64.9178" y2="135.977" gradientUnits="userSpaceOnUse">
<stop stop-color="#2E3250"/>
<stop offset="1" stop-color="#656A93"/>
</linearGradient>
<linearGradient id="paint1_linear_1346_48791" x1="53.7826" y1="68.0947" x2="46.2541" y2="41.0543" gradientUnits="userSpaceOnUse">
<stop stop-color="#E0E6FA"/>
<stop offset="1" stop-color="#B0B3CD"/>
</linearGradient>
<linearGradient id="paint2_linear_1346_48791" x1="40.8297" y1="55.9014" x2="196.83" y2="55.9014" gradientUnits="userSpaceOnUse">
<stop stop-color="white"/>
<stop offset="1" stop-color="#E0E6FA"/>
</linearGradient>
<linearGradient id="paint3_linear_1346_48791" x1="95.3296" y1="62.2942" x2="95.3296" y2="113.294" gradientUnits="userSpaceOnUse">
<stop stop-color="white"/>
<stop offset="1" stop-color="#E0E6FA"/>
</linearGradient>
<linearGradient id="paint4_linear_1346_48791" x1="99.5459" y1="93.799" x2="99.511" y2="84.7442" gradientUnits="userSpaceOnUse">
<stop stop-color="#2E3250"/>
<stop offset="1" stop-color="#656A93"/>
</linearGradient>
<linearGradient id="paint5_linear_1346_48791" x1="41.0804" y1="90" x2="41.0804" y2="136" gradientUnits="userSpaceOnUse">
<stop stop-color="#EF233C"/>
<stop offset="1" stop-color="#9B2352"/>
</linearGradient>

<linearGradient id="paint0_linear_1359_13158" x1="68" y1="0.0468752" x2="64.9178" y2="135.977" gradientUnits="userSpaceOnUse">
<stop stop-color="#2E3250"/>
<stop offset="1" stop-color="#656A93"/>
</linearGradient>
<linearGradient id="paint1_linear_1359_13158" x1="56" y1="51.5" x2="56" y2="133" gradientUnits="userSpaceOnUse">
<stop stop-color="white"/>
<stop offset="1" stop-color="#E0E6FA"/>
</linearGradient>
<linearGradient id="paint2_linear_1359_13158" x1="105.937" y1="83.3359" x2="106.556" y2="48.0453" gradientUnits="userSpaceOnUse">
<stop stop-color="#8D99AE" stop-opacity="0.5"/>
<stop offset="1" stop-color="#656A93"/>
</linearGradient>
<linearGradient id="paint3_linear_1359_13158" x1="104" y1="108.5" x2="80" y2="108.5" gradientUnits="userSpaceOnUse">
<stop stop-color="#EDF2F4"/>
<stop offset="1" stop-color="#EDF2F4" stop-opacity="0"/>
</linearGradient>
<linearGradient id="paint4_linear_1359_13158" x1="120.484" y1="86" x2="120.484" y2="136" gradientUnits="userSpaceOnUse">
<stop stop-color="#EF233C"/>
<stop offset="1" stop-color="#9B2352"/>
</linearGradient>

<linearGradient id="paint0_linear_1359_13399" x1="68" y1="3.04687" x2="64.9178" y2="138.977" gradientUnits="userSpaceOnUse">
<stop stop-color="#2E3250"/>
<stop offset="1" stop-color="#656A93"/>
</linearGradient>
<linearGradient id="paint1_linear_1359_13399" x1="79.5" y1="120.5" x2="57.5" y2="67.5" gradientUnits="userSpaceOnUse">
<stop stop-color="white"/>
<stop offset="1" stop-color="#E0E6FA"/>
</linearGradient>
<linearGradient id="paint2_linear_1359_13399" x1="40" y1="38" x2="71" y2="86.5" gradientUnits="userSpaceOnUse">
<stop offset="0.488541" stop-color="white"/>
<stop offset="1" stop-color="#D5DEFC"/>
</linearGradient>
<linearGradient id="paint3_linear_1359_13399" x1="77" y1="72.5" x2="81.3731" y2="108.345" gradientUnits="userSpaceOnUse">
<stop stop-color="white"/>
<stop offset="1" stop-color="#E0E6FA"/>
</linearGradient>
<linearGradient id="paint4_linear_1359_13399" x1="122.255" y1="4" x2="122.255" y2="50" gradientUnits="userSpaceOnUse">
<stop stop-color="#EF233C"/>
<stop offset="1" stop-color="#9B2352"/>
</linearGradient>

<clipPath id="clip0_1239_7023">
<rect width="24" height="24" fill="white"/>
</clipPath>

<clipPath id="clip0_1243_7263">
<rect width="164" height="96" fill="white"/>
</clipPath>
</defs><symbol id="icon-arrow" viewBox="0 0 14 14">
  <rect id="Rectangle_35" data-name="Rectangle 35" width="14" height="14" fill="none"/>
  <path id="Path_26" data-name="Path 26" d="M6.632,0V6.632H0Z" transform="translate(7 0.311) rotate(45)" fill="#004685"/>
</symbol><symbol id="icon-close" viewBox="0 0 24 24">
  <g id="ic_close" transform="translate(-6 -6)">
    <rect id="Rectangle_31" data-name="Rectangle 31" width="24" height="24" transform="translate(6 6)" fill="none"/>
    <path id="Union_3" data-name="Union 3" d="M-778.527,850.174l-9.241,9.241-1.732-1.733,9.241-9.241-9.187-9.187,1.732-1.733,9.188,9.188,9.241-9.241,1.732,1.733-9.241,9.241,9.294,9.294-1.732,1.733Z" transform="translate(796.5 -830.467)" fill="currentColor"/>
  </g>
</symbol><symbol id="icon-limits" viewBox="0 0 137 136"><g fill="none">
<path fill-rule="evenodd" clip-rule="evenodd" d="M128.58 98.9202C133.324 89.6439 136 79.1345 136 68C136 30.4446 105.555 0 68 0C30.4446 0 0 30.4446 0 68C0 105.555 30.4446 136 68 136C69.3494 136 70.6896 135.961 72.0195 135.883C70.6415 135.037 69.34 134.018 68.1464 132.824C59.9512 124.629 59.9512 111.342 68.1464 103.146C76.3417 94.9512 89.6288 94.9512 97.8241 103.146C98.7131 104.035 99.9933 105.313 101.391 106.706L101.408 106.689L101.412 106.684C102.802 105.299 104.074 104.03 104.958 103.146C111.346 96.7585 120.827 95.3498 128.58 98.9202Z" fill="url(#paint0_linear_1359_13440)"/>
<path fill-rule="evenodd" clip-rule="evenodd" d="M105.391 13C107.084 13 108.742 13.5253 110.071 14.5735C115.789 19.0818 120.765 24.4881 124.787 30.5797C125.601 31.8122 126 33.2668 126 34.7439V75C126 79.4183 122.418 83 118 83H50C45.5817 83 42 79.4183 42 75V21C42 16.5817 45.5817 13 50 13H105.391Z" fill="#E0E6FA" fill-opacity="0.5"/>
<path d="M30 33C30 28.5817 33.5817 25 38 25H106C110.418 25 114 28.5817 114 33V87C114 91.4183 110.418 95 106 95H38C33.5817 95 30 91.4183 30 87V33Z" fill="#E0E6FA" fill-opacity="0.75"/>
<path d="M18 45C18 40.5817 21.5817 37 26 37H94C98.4183 37 102 40.5817 102 45V99C102 103.418 98.4183 107 94 107H26C21.5817 107 18 103.418 18 99V45Z" fill="#E0E6FA"/>
<path d="M6 57C6 52.5817 9.58172 49 14 49H82C86.4183 49 90 52.5817 90 57V111C90 115.418 86.4183 119 82 119H14C9.58172 119 6 115.418 6 111V57Z" fill="url(#paint1_linear_1359_13440)"/>
<path fill-rule="evenodd" clip-rule="evenodd" d="M32 96H17V92H32V96Z" fill="#CFD5E6"/>
<path fill-rule="evenodd" clip-rule="evenodd" d="M77 104H17V100H77V104Z" fill="#CFD5E6"/>
<path fill-rule="evenodd" clip-rule="evenodd" d="M51 71C51 74.3137 48.3137 77 45 77C41.6863 77 39 74.3137 39 71C39 67.6863 41.6863 65 45 65C48.3137 65 51 67.6863 51 71ZM50.4111 79.411C48.8513 80.4165 46.9938 81 45 81C39.4772 81 35 76.5228 35 71C35 65.4772 39.4772 61 45 61C50.5228 61 55 65.4772 55 71C55 73.0824 54.3635 75.0162 53.2743 76.6174L57.8286 81.1716C58.6097 81.9527 58.6097 83.219 57.8286 84.0001C57.0476 84.7811 55.7812 84.7811 55.0002 84.0001L50.4111 79.411Z" fill="url(#paint2_linear_1359_13440)"/>
<path fill-rule="evenodd" clip-rule="evenodd" d="M101.391 124.618C103.764 126.982 106.311 129.521 107.786 130.996C114.419 137.629 125.174 137.629 131.807 130.996C138.44 124.362 138.44 113.608 131.807 106.975C125.174 100.342 114.419 100.342 107.786 106.975C106.9 107.861 105.627 109.131 104.236 110.517L109.882 116.163C111.183 114.867 112.614 113.441 113.428 112.627C116.94 109.115 122.633 109.115 126.145 112.627C129.657 116.138 129.657 121.832 126.145 125.344C122.633 128.855 116.94 128.855 113.428 125.344C112.098 124.014 109.122 121.05 107.756 119.691L107.755 119.692L107.048 118.985C107.048 118.985 107.043 118.98 107.033 118.971L101.403 113.341C101.399 113.345 101.395 113.349 101.391 113.353C99.0174 110.988 96.4706 108.45 94.9956 106.975C88.3625 100.342 77.608 100.342 70.9749 106.975C64.3417 113.608 64.3417 124.362 70.9749 130.996C77.608 137.629 88.3625 137.629 94.9957 130.996C95.8819 130.109 97.1552 128.839 98.5453 127.453L92.8995 121.808C91.5988 123.103 90.1677 124.53 89.3535 125.344C85.8418 128.855 80.1483 128.855 76.6366 125.344C73.125 121.832 73.125 116.138 76.6366 112.627C80.1483 109.115 85.8418 109.115 89.3535 112.627C90.6837 113.957 93.6602 116.921 95.0253 118.28L95.027 118.278L95.7341 118.985C95.734 118.985 95.734 118.985 95.734 118.985C95.734 118.985 95.7423 118.994 95.7585 119.01L101.379 124.63C101.383 124.626 101.387 124.622 101.391 124.618Z" fill="url(#paint3_linear_1359_13440)"/>

</g></symbol><symbol id="icon-profile" viewBox="0 0 139 139"><g fill="none">
<circle cx="71" cy="68" r="68" fill="url(#paint0_linear_1346_48597)"/>
<circle cx="21" cy="118" r="21" fill="#EDF2F4"/>
<mask id="mask0_1346_48597" style="mask-type:alpha" maskUnits="userSpaceOnUse" x="3" y="0" width="136" height="136">
<circle cx="71" cy="68" r="68" fill="#8D99AE"/>
</mask>
<g mask="url(#mask0_1346_48597)">
<path d="M21 34C21 29.5817 24.5817 26 29 26H113C117.418 26 121 29.5817 121 34V133C121 137.418 117.418 141 113 141H29C24.5817 141 21 137.418 21 133V34Z" fill="url(#paint1_linear_1346_48597)"/>
</g>
<circle cx="71" cy="54" r="12" fill="#CFD5E6"/>
<path fill-rule="evenodd" clip-rule="evenodd" d="M71.0001 58C73.7615 58 76.0001 55.7614 76.0001 53C76.0001 50.2386 73.7615 48 71.0001 48C68.2387 48 66.0001 50.2386 66.0001 53C66.0001 55.7614 68.2387 58 71.0001 58ZM70.9999 66C74.4902 66 77.6324 64.5099 79.8251 62.1312C77.417 60.1735 74.3456 59 71.0001 59C67.6545 59 64.583 60.1735 62.1748 62.1314C64.3676 64.51 67.5097 66 70.9999 66Z" fill="url(#paint2_linear_1346_48597)"/>
<path fill-rule="evenodd" clip-rule="evenodd" d="M35 75H54V79H35V75ZM35 91H54V95H35V91ZM49 83H35V87H49V83ZM62 75H81V79H62V75ZM62 91H81V95H62V91ZM76 83H62V87H76V83ZM108 75H89V79H108V75ZM108 91H89V95H108V91ZM89 83H103V87H89V83Z" fill="#CFD5E6"/>
<path fill-rule="evenodd" clip-rule="evenodd" d="M37.5882 125C34.8572 131.464 28.4583 136 21 136C11.0589 136 3 127.941 3 118C3 108.059 11.0589 100 21 100C28.4583 100 34.8572 104.536 37.5882 111H80.5741L85.5 115.667L76.1667 125H71.5L66.8333 120.333H64.5L59.8333 125H55.1667L50.5 120.333H48.1667L43.5 125H41.1667H37.5882ZM17 118C17 120.209 15.2091 122 13 122C10.7909 122 9 120.209 9 118C9 115.791 10.7909 114 13 114C15.2091 114 17 115.791 17 118Z" fill="url(#paint3_linear_1346_48597)"/>

</g></symbol><symbol id="icon_back" viewBox="0 0 24 24"><g fill="none">
<path fill-rule="evenodd" clip-rule="evenodd" d="M11.6066 1.3999L1 12.0065L2.41421 13.4207L2.41425 13.4207L11.6068 22.6132L12.9914 21.2286L3.79886 12.0361L13.0208 2.81412L11.6066 1.3999Z" fill="#8D99AE"/>
<rect x="3" y="11" width="19" height="2" fill="#8D99AE"/>
</g></symbol><symbol id="icon_fns" viewBox="0 0 72 72"><g fill="none">
<path fill-rule="evenodd" clip-rule="evenodd" d="M36 55C46.4934 55 55 46.4934 55 36C55 25.5066 46.4934 17 36 17C25.5066 17 17 25.5066 17 36C17 46.4934 25.5066 55 36 55ZM36 59C48.7025 59 59 48.7025 59 36C59 23.2975 48.7025 13 36 13C23.2975 13 13 23.2975 13 36C13 48.7025 23.2975 59 36 59Z" fill="#2B2D42"/>
<rect x="26.1006" y="43.071" width="24" height="4" transform="rotate(-45 26.1006 43.071)" fill="#2B2D42"/>
<circle cx="29.5" cy="29.5" r="3.5" fill="#2B2D42"/>
<circle cx="42.5" cy="42.5" r="3.5" fill="#2B2D42"/>
</g></symbol><symbol id="icon_fssp" viewBox="0 0 72 72"><g fill="none">
<path fill-rule="evenodd" clip-rule="evenodd" d="M11.2427 28.7575L11.9498 28.0504C12.7309 28.8314 13.9972 28.8314 14.7782 28.0504C15.5593 27.2693 15.5593 26.003 14.7782 25.2219L24.6777 15.3224C25.4588 16.1035 26.7251 16.1035 27.5062 15.3224C28.2872 14.5414 28.2872 13.2751 27.5062 12.494L28.2133 11.7869C30.5564 9.44375 34.3554 9.44375 36.6986 11.7869L43.7696 18.858C46.1128 21.2011 46.1128 25.0001 43.7696 27.3432L43.0625 28.0504C42.2815 27.2693 41.0151 27.2693 40.2341 28.0504C39.453 28.8314 39.453 30.0977 40.2341 30.8788L36.6986 34.4143L42.0268 39.7425C43.3613 39.3862 44.8441 39.7315 45.8909 40.7784L57.2046 52.0921C58.7667 53.6542 58.7667 56.1868 57.2046 57.7489C55.6425 59.311 53.1099 59.311 51.5478 57.7489L40.2341 46.4352C39.1871 45.3883 38.8419 43.9053 39.1983 42.5708L33.8702 37.2427L30.3346 40.7783C29.5559 39.9996 28.2949 39.9972 27.5133 40.7712C27.5109 40.7735 27.5085 40.7759 27.5062 40.7783C27.5038 40.7807 27.5014 40.783 27.499 40.7854C26.7251 41.567 26.7275 42.828 27.5062 43.6067L26.7991 44.3138C24.4559 46.657 20.6569 46.657 18.3138 44.3138L11.2427 37.2427C8.89956 34.8996 8.89957 31.1006 11.2427 28.7575ZM27.5061 37.9499L37.4057 28.0503L27.5062 18.1508L17.6066 28.0504L27.5061 37.9499ZM14.7782 30.8788L24.6777 40.7783L23.9706 41.4854C23.1896 42.2664 21.9233 42.2664 21.1422 41.4854L14.0711 34.4143C13.2901 33.6333 13.2901 32.3669 14.0711 31.5859L14.7782 30.8788ZM30.3346 15.3224L40.2341 25.2219L40.9412 24.5148C41.7222 23.7338 41.7222 22.4674 40.9412 21.6864L33.8701 14.6153C33.0891 13.8343 31.8227 13.8343 31.0417 14.6153L30.3346 15.3224Z" fill="#2B2D42"/>
</g></symbol><symbol id="icon_gibdd" viewBox="0 0 72 72"><g fill="none">
<path fill-rule="evenodd" clip-rule="evenodd" d="M16.0711 20.5858L20.3138 16.3431C21.0948 15.5621 22.3612 15.5621 23.1422 16.3431L26.6777 19.8786L19.6066 26.9497L16.0711 23.4142C15.2901 22.6331 15.2901 21.3668 16.0711 20.5858ZM25.9706 13.5147L29.5061 17.0502L29.5062 17.0501L35.163 22.707L35.163 22.707L40.8198 28.3638L46.4767 34.0207L50.0123 37.5563C52.3554 39.8995 52.3554 43.6984 50.0123 46.0416L49.3051 46.7487L56.6354 54.079C57.4165 54.86 57.4165 56.1264 56.6354 56.9074C55.8544 57.6884 54.588 57.6884 53.807 56.9074L46.4767 49.5771L45.7696 50.2842C43.4265 52.6274 39.6275 52.6274 37.2843 50.2842L33.7488 46.7486L28.0919 41.0918L13.2427 26.2426C10.8996 23.8995 10.8996 20.1005 13.2427 17.7573L17.4854 13.5147C19.8285 11.1715 23.6275 11.1715 25.9706 13.5147ZM36.5772 43.9202L40.1128 47.4558C40.8938 48.2369 42.1601 48.2369 42.9412 47.4558L47.1838 43.2132C47.9649 42.4321 47.9649 41.1658 47.1838 40.3847L43.6482 36.8492L36.5772 43.9202ZM37.9914 31.1923L30.9203 38.2634L25.2635 32.6065L32.3346 25.5355L37.9914 31.1923Z" fill="#2B2D42"/>
</g></symbol><symbol id="icon_jkh2" viewBox="0 0 72 72"><g fill="none">
<path fill-rule="evenodd" clip-rule="evenodd" d="M30 48H42V57C42 59.2091 40.2091 61 38 61H34C31.7909 61 30 59.2091 30 57V48ZM34 52V57H38V52H34Z" fill="#2B2D42"/>
<path fill-rule="evenodd" clip-rule="evenodd" d="M47.4464 38.0715L47.6449 37.775C49.1325 35.5526 50 32.8837 50 30C50 22.268 43.732 16 36 16C28.268 16 22 22.268 22 30C22 32.8837 22.8675 35.5526 24.3551 37.775L24.5537 38.0716L24.6873 38.2497L24.7001 38.2672C24.7602 38.3491 24.8211 38.4304 24.8829 38.511L24.8961 38.5281L32 48H40L47.1039 38.5281L47.1171 38.511C47.1789 38.4304 47.2398 38.3491 47.2999 38.2672L47.3127 38.2497L47.4464 38.0715ZM50.5257 40.6324C50.4485 40.7376 50.3703 40.842 50.2909 40.9455L42 52H30L21.7091 40.9455C21.6297 40.842 21.5515 40.7376 21.4743 40.6324L21 40H21.0311C21.0276 39.9948 21.0242 39.9896 21.0207 39.9845C21.0138 39.9741 21.0069 39.9638 21 39.9534C20.1881 38.7322 19.5213 37.4062 19.0242 36C18.3609 34.1233 18 32.1038 18 30C18 20.0589 26.0589 12 36 12C45.9411 12 54 20.0589 54 30C54 32.1038 53.6391 34.1233 52.9758 36C52.4787 37.4062 51.8119 38.7322 51 39.9534C50.9931 39.9638 50.9862 39.9741 50.9793 39.9845C50.9758 39.9896 50.9724 39.9948 50.9689 40H51L50.5257 40.6324Z" fill="#2B2D42"/>
<path fill-rule="evenodd" clip-rule="evenodd" d="M30.5 31.4887C30.5765 31.773 30.6356 32.0611 30.7353 32.3387L30.7427 32.3589L34.6013 42.4649L31.7987 43.5351L27.9327 33.4099L27.9303 33.4034L27.926 33.3916C27.7058 32.7843 27.5 32.1529 27.5 31.5C27.5 29.5739 28.7123 28.0378 30.2391 27.0563C31.782 26.0644 33.8229 25.5 36 25.5C38.1771 25.5 40.218 26.0644 41.7609 27.0563C43.2877 28.0378 44.5 29.5739 44.5 31.5C44.5 32.2701 44.3041 32.7897 44.0475 33.4618L40.2013 43.5351L37.3987 42.4649L41.2572 32.3594L41.2647 32.3387C41.3644 32.0611 41.4237 31.773 41.5 31.4887C41.4952 30.9311 41.1385 30.2226 40.1386 29.5798C39.148 28.9429 37.6889 28.5 36 28.5C34.3111 28.5 32.852 28.9429 31.8614 29.5798C30.8615 30.2226 30.5048 30.9311 30.5 31.4887Z" fill="#2B2D42"/>
</g></symbol><symbol id="icon_parking" viewBox="0 0 72 72"><g fill="none">
<path fill-rule="evenodd" clip-rule="evenodd" d="M51 15H21C19.8954 15 19 15.8954 19 17V47C19 48.1046 19.8954 49 21 49H51C52.1046 49 53 48.1046 53 47V17C53 15.8954 52.1046 15 51 15ZM21 11C17.6863 11 15 13.6863 15 17V47C15 50.3137 17.6863 53 21 53H51C54.3137 53 57 50.3137 57 47V17C57 13.6863 54.3137 11 51 11H21Z" fill="#2B2D42"/>
<rect x="34" y="49" width="4" height="12" fill="#2B2D42"/>
<path fill-rule="evenodd" clip-rule="evenodd" d="M32 21H28V35V43H32V35H38C41.866 35 45 31.866 45 28C45 24.134 41.866 21 38 21H32ZM32 31H38C39.6569 31 41 29.6569 41 28C41 26.3431 39.6569 25 38 25H32V31Z" fill="#2B2D42"/>
</g></symbol><symbol id="icon_pay-road" viewBox="0 0 72 72"><g fill="none">
<path fill-rule="evenodd" clip-rule="evenodd" d="M14.0594 53.5149L24.0594 13.5149L27.9399 14.485L17.9399 54.485L14.0594 53.5149Z" fill="#2B2D42"/>
<path fill-rule="evenodd" clip-rule="evenodd" d="M52.1901 30.5149L47.9401 13.5149L44.0596 14.485L48.3096 31.485L52.1901 30.5149Z" fill="#2B2D42"/>
<path fill-rule="evenodd" clip-rule="evenodd" d="M38 14H34V20H38V14ZM38 25H34V31H38V25Z" fill="#2B2D42"/>
<path fill-rule="evenodd" clip-rule="evenodd" d="M48 59C55.1797 59 61 53.1797 61 46C61 38.8203 55.1797 33 48 33C40.8203 33 35 38.8203 35 46C35 53.1797 40.8203 59 48 59ZM48 63C57.3888 63 65 55.3888 65 46C65 36.6112 57.3888 29 48 29C38.6112 29 31 36.6112 31 46C31 55.3888 38.6112 63 48 63Z" fill="#2B2D42"/>
<path fill-rule="evenodd" clip-rule="evenodd" d="M46 41H50C51.1046 41 52 41.8954 52 43C52 44.1046 51.1046 45 50 45H46V41ZM50 48H46V50H53V52H46V55H43V52H41V50H43V48H41V45H43V41V38H46H50C52.7614 38 55 40.2386 55 43C55 45.7614 52.7614 48 50 48Z" fill="#2B2D42"/>
</g></symbol><symbol id="icon_poshliny" viewBox="0 0 72 72"><g fill="none">
<path fill-rule="evenodd" clip-rule="evenodd" d="M50.1006 59L53.1006 62H55V12C55 10.8954 54.1046 10 53 10H19C17.8954 10 17 10.8954 17 12V62H18.8994L21.8994 59H24.1006L27.1006 62H31.8994L34.8994 59H37.1006L40.1006 62H44.8994L47.8994 59H50.1006ZM43.2426 58L46.2426 55H51V14H21V55H25.7574L28.7574 58H30.2426L33.2426 55H38.7574L41.7574 58H43.2426Z" fill="#2B2D42"/>
<path d="M38.5048 20L36.0948 22.4141L33.6847 20L32.0329 21.6546L36.0948 25.7233L40.1567 21.6546L38.5048 20ZM30.1373 21.6275C29.4333 22.604 29 23.7975 29 25.0723C29 28.3002 31.5996 30.9042 34.8221 30.9042C34.8491 30.9042 34.9033 30.9042 34.9304 30.9042L32.8723 34.1049C33.766 34.6745 34.8491 35 35.9865 35C37.1779 35 38.2882 34.6474 39.2089 34.0235L37.205 30.9042C40.4004 30.877 43 28.2731 43 25.0723C43 23.8246 42.6209 22.6582 41.9439 21.7089L36.0948 27.5949L30.1373 21.6275Z" fill="#2B2D42"/>
<rect x="27" y="40" width="18" height="3" fill="#2B2D42"/>
<rect x="27" y="46" width="18" height="3" fill="#2B2D42"/>
</g></symbol><symbol id="icon_rosreestr" viewBox="0 0 72 72"><g fill="none">
<path d="M34 12H38V18H34V12Z" fill="#2B2D42"/>
<path fill-rule="evenodd" clip-rule="evenodd" d="M36 26C37.6569 26 39 24.6569 39 23C39 21.3431 37.6569 20 36 20C34.3431 20 33 21.3431 33 23C33 24.6569 34.3431 26 36 26ZM36 30C39.866 30 43 26.866 43 23C43 19.134 39.866 16 36 16C32.134 16 29 19.134 29 23C29 26.866 32.134 30 36 30Z" fill="#2B2D42"/>
<path fill-rule="evenodd" clip-rule="evenodd" d="M31.1551 25.228L34.8449 26.7723L24 52.6854V60.0002H20V51.8821L31.1551 25.228Z" fill="#2B2D42"/>
<path fill-rule="evenodd" clip-rule="evenodd" d="M40.8449 25.228L37.1551 26.7723L48 52.6854V60.0002H52V51.8821L40.8449 25.228Z" fill="#2B2D42"/>
<path fill-rule="evenodd" clip-rule="evenodd" d="M51.1672 40.2905C47.1184 43.8449 41.8108 45.9998 35.9999 45.9998C30.189 45.9998 24.8813 43.8449 20.8326 40.2905L18.1948 43.2976C22.9477 47.4701 29.1784 49.9998 35.9999 49.9998C42.8214 49.9998 49.0521 47.4701 53.8049 43.2976L51.1672 40.2905Z" fill="#2B2D42"/>
</g></symbol><symbol id="ic_call" viewBox="0 0 32 32"><g fill="none">
<g clip-path="url(#clip0_837_4605)">
<path fill-rule="evenodd" clip-rule="evenodd" d="M22 1C20.8954 1 20 1.89543 20 3V4H22L20 4C20 5.83442 19.685 7.63619 19.085 9.3333C18.8281 10.0598 19.0115 10.8693 19.5564 11.4142L23.8168 15.6747C22.8391 17.3343 21.6488 18.8782 20.2635 20.2635C18.8782 21.6487 17.3343 22.8391 15.6747 23.8168L11.4142 19.5564C10.8693 19.0115 10.0598 18.8281 9.3333 19.085C7.63619 19.685 5.83442 20 4 20H3C1.89543 20 1 20.8954 1 22V29C1 30.1046 1.89543 31 3 31H4C11.1608 31 18.0284 28.1554 23.0919 23.0919C28.1554 18.0284 31 11.1608 31 4L29 4H31V3C31 1.89543 30.1046 1 29 1H22ZM26.9783 5H23.975C23.8993 6.51437 23.6521 8.00505 23.2444 9.44545L25.6269 11.8279C26.4154 9.64968 26.8761 7.34883 26.9783 5ZM5 26.9783C7.34883 26.8761 9.64968 26.4154 11.8279 25.6269L9.44545 23.2444C8.00505 23.6521 6.51437 23.8992 5 23.975V26.9783Z" fill="#2B2D42"/>
</g>

</g></symbol><symbol id="ic_cameras" viewBox="0 0 136 136"><g fill="none">
<circle cx="68" cy="68" r="68" fill="url(#paint0_linear_1346_48791)"/>
<path d="M0 87H42C45.866 87 49 90.134 49 94V136H0V87Z" fill="#EDF2F4"/>
<mask id="mask0_1346_48791" style="mask-type:alpha" maskUnits="userSpaceOnUse" x="0" y="0" width="136" height="136">
<circle cx="68" cy="68" r="68" fill="white"/>
</mask>
<g mask="url(#mask0_1346_48791)">
<path d="M34.6494 42.7168L46.4925 39.5435L54.5159 69.4872L48.4684 71.1076C45.2676 71.9652 41.9775 70.0657 41.1199 66.8649L34.6494 42.7168Z" fill="url(#paint1_linear_1346_48791)"/>
<path fill-rule="evenodd" clip-rule="evenodd" d="M27.8627 38.6081L26.2388 32.5474L141.911 1.55302C145.112 0.695374 148.402 2.59487 149.26 5.79567L154.404 24.993L49.9745 52.9747L27.8627 38.6081Z" fill="url(#paint2_linear_1346_48791)"/>
<path fill-rule="evenodd" clip-rule="evenodd" d="M26.2387 32.5474L26 32.6113L27.5529 38.4069L27.8626 38.6081L26.2387 32.5474ZM49.9744 52.9747L50.116 53.0667L55.2923 72.3852C56.15 75.586 59.44 77.4855 62.6408 76.6278L155.37 51.7812C158.57 50.9235 160.47 47.6335 159.612 44.4327L154.403 24.993L49.9744 52.9747Z" fill="#E0E6FA" fill-opacity="0.8"/>
<path fill-rule="evenodd" clip-rule="evenodd" d="M96.8296 58.9528C99.16 58.1291 100.83 55.9066 100.83 53.2942C100.83 49.9805 98.1433 47.2942 94.8296 47.2942C91.5159 47.2942 88.8296 49.9805 88.8296 53.2942C88.8296 55.9066 90.4992 58.1291 92.8296 58.9528V80.5172C88.8216 81.4267 85.8296 85.011 85.8296 89.2942C85.8296 94.2648 89.859 98.2942 94.8296 98.2942C97.95 98.2942 100.7 96.7062 102.314 94.2942L153.83 94.2942V84.2942L102.314 84.2942C101.055 82.4135 99.1063 81.0338 96.8296 80.5172V58.9528Z" fill="url(#paint3_linear_1346_48791)"/>
<circle cx="94.8296" cy="89.2942" r="5" fill="url(#paint4_linear_1346_48791)"/>
</g>
<rect y="90" width="46" height="46" rx="4" fill="#EDF2F4"/>
<path fill-rule="evenodd" clip-rule="evenodd" d="M4 90C1.79086 90 0 91.7909 0 94V132C0 134.209 1.79086 136 4 136H42C44.2091 136 46 134.209 46 132V94C46 91.7909 44.2091 90 42 90H4ZM33 124H35C35.5304 124 36.0391 123.789 36.4142 123.414C36.7893 123.039 37 122.53 37 122V112C36.9977 111.238 36.779 110.493 36.3693 109.85C35.9596 109.208 35.3758 108.695 34.686 108.372L31 101H15L11.314 108.372C10.6236 108.695 10.0392 109.207 9.62945 109.85C9.21966 110.492 9.00132 111.238 9 112V122C9 122.53 9.21071 123.039 9.58579 123.414C9.96086 123.789 10.4696 124 11 124H13C13.5304 124 14.0391 123.789 14.4142 123.414C14.7893 123.039 15 122.53 15 122V120H31V122C31 122.53 31.2107 123.039 31.5858 123.414C31.9609 123.789 32.4696 124 33 124ZM31.8889 112.337C32.2178 112.117 32.6044 112 33 112C33.5304 112 34.0391 112.211 34.4142 112.586C34.7893 112.961 35 113.47 35 114C35 114.396 34.8827 114.782 34.6629 115.111C34.4432 115.44 34.1308 115.696 33.7654 115.848C33.3999 115.999 32.9978 116.039 32.6098 115.962C32.2219 115.884 31.8655 115.694 31.5858 115.414C31.3061 115.135 31.1156 114.778 31.0384 114.39C30.9613 114.002 31.0009 113.6 31.1522 113.235C31.3036 112.869 31.56 112.557 31.8889 112.337ZM11.8889 112.337C12.2178 112.117 12.6044 112 13 112C13.5304 112 14.0391 112.211 14.4142 112.586C14.7893 112.961 15 113.47 15 114C15 114.396 14.8827 114.782 14.6629 115.111C14.4432 115.44 14.1308 115.696 13.7654 115.848C13.3999 115.999 12.9978 116.039 12.6098 115.962C12.2219 115.884 11.8655 115.694 11.5858 115.414C11.3061 115.135 11.1156 114.778 11.0384 114.39C10.9613 114.002 11.0009 113.6 11.1522 113.235C11.3036 112.869 11.56 112.557 11.8889 112.337ZM15 108L17 104H29L31 108H15Z" fill="url(#paint5_linear_1346_48791)" fill-opacity="0.9"/>

</g></symbol><symbol id="ic_cards" viewBox="0 0 72 72"><g fill="none">
<path fill-rule="evenodd" clip-rule="evenodd" d="M56 22H16C14.8954 22 14 22.8954 14 24V48C14 49.1046 14.8954 50 16 50H56C57.1046 50 58 49.1046 58 48V24C58 22.8954 57.1046 22 56 22ZM16 18C12.6863 18 10 20.6863 10 24V48C10 51.3137 12.6863 54 16 54H56C59.3137 54 62 51.3137 62 48V24C62 20.6863 59.3137 18 56 18H16Z" fill="#2B2D42"/>
<path fill-rule="evenodd" clip-rule="evenodd" d="M62 30H10V26H62V30Z" fill="#2B2D42"/>
</g></symbol><symbol id="ic_deposit" viewBox="0 0 72 72"><g fill="none">
<path fill-rule="evenodd" clip-rule="evenodd" d="M54 20H18C16.8954 20 16 20.8954 16 22V50C16 51.1046 16.8954 52 18 52H54C55.1046 52 56 51.1046 56 50V22C56 20.8954 55.1046 20 54 20ZM18 16C14.6863 16 12 18.6863 12 22V50C12 53.3137 14.6863 56 18 56H54C57.3137 56 60 53.3137 60 50V22C60 18.6863 57.3137 16 54 16H18Z" fill="#2B2D42"/>
<circle cx="36" cy="36" r="2" fill="#2B2D42"/>
<rect x="18" y="54" width="8" height="4" fill="#2B2D42"/>
<rect x="46" y="54" width="8" height="4" fill="#2B2D42"/>
<rect x="10" y="25" width="4" height="4" fill="#2B2D42"/>
<rect x="51" y="29" width="3" height="14" fill="#2B2D42"/>
<rect x="10" y="43" width="4" height="4" fill="#2B2D42"/>
<path fill-rule="evenodd" clip-rule="evenodd" d="M36 42C39.3137 42 42 39.3137 42 36C42 32.6863 39.3137 30 36 30C32.6863 30 30 32.6863 30 36C30 39.3137 32.6863 42 36 42ZM36 46C41.5228 46 46 41.5228 46 36C46 30.4772 41.5228 26 36 26C30.4772 26 26 30.4772 26 36C26 41.5228 30.4772 46 36 46Z" fill="#2B2D42"/>
</g></symbol><symbol id="ic_gisgmp" viewBox="0 0 139 140"><g fill="none">
<circle cx="68" cy="68" r="68" fill="url(#paint0_linear_1359_13158)"/>
<path fill-rule="evenodd" clip-rule="evenodd" d="M125 84H103V91.2552C94.1544 95.2572 88 104.16 88 114.5C88 128.583 99.4167 140 113.5 140C127.583 140 139 128.583 139 114.5C139 104.554 133.306 95.9383 125 91.7342V84Z" fill="#EDF2F4"/>
<mask id="mask0_1359_13158" style="mask-type:alpha" maskUnits="userSpaceOnUse" x="0" y="0" width="136" height="136">
<path d="M136 68C136 105.555 105.555 136 68 136C30.4446 136 0 105.555 0 68C0 30.4446 30.4446 0 68 0C105.555 0 136 30.4446 136 68Z" fill="#2B2D42"/>
</mask>
<g mask="url(#mask0_1359_13158)">
<path d="M18 34C18 29.5817 21.5817 26 26 26H110C114.418 26 118 29.5817 118 34V133C118 137.418 114.418 141 110 141H26C21.5817 141 18 137.418 18 133V34Z" fill="url(#paint1_linear_1359_13158)"/>
</g>
<path fill-rule="evenodd" clip-rule="evenodd" d="M33 53H48V49H33V53ZM33 75H48V71H33V75ZM48 97H33V93H48V97ZM33 61H83V57H33V61ZM83 83H33V79H83V83ZM33 105H69V101H33V105Z" fill="#CFD5E6"/>
<path fill-rule="evenodd" clip-rule="evenodd" d="M95.5002 61.8283L106.414 50.9141L103.586 48.0857L95.5002 56.1715L92.4144 53.0857L89.5859 55.9141L95.5002 61.8283ZM95.5002 83.7426L106.414 72.8284L103.586 70L95.5002 78.0858L92.4144 75L89.5859 77.8284L95.5002 83.7426Z" fill="url(#paint2_linear_1359_13158)"/>
<circle cx="68" cy="27" r="17" fill="#E0E6FA"/>
<path fill-rule="evenodd" clip-rule="evenodd" d="M71.2242 18.2126L68.1066 21.3303L64.9889 18.2126L62.8676 20.334L68.1066 25.5729L73.3455 20.334L71.2242 18.2126ZM60.4542 20.2992C59.5401 21.5421 59 23.0772 59 24.7384C59 28.8805 62.3579 32.2384 66.5 32.2384C66.5512 32.2384 66.6023 32.2379 66.6532 32.2369L64.0035 36.3358C65.1605 37.0658 66.531 37.4883 68.0002 37.4883C69.5336 37.4883 70.9594 37.0282 72.1472 36.2385L69.5612 32.2381C73.6752 32.2052 77 28.8601 77 24.7384C77 23.132 76.495 21.6435 75.635 20.4231L68.1066 27.9516L60.4542 20.2992Z" fill="#62668F"/>
<path fill-rule="evenodd" clip-rule="evenodd" d="M113 100H80V128H113V127.965C113.33 127.988 113.664 128 114 128C121.732 128 128 121.732 128 114C128 106.268 121.732 100 114 100C113.664 100 113.33 100.012 113 100.035V100Z" fill="url(#paint3_linear_1359_13158)"/>
<path fill-rule="evenodd" clip-rule="evenodd" d="M106 86H122V90H118V92.3627C128.241 94.2437 136 103.216 136 114C136 126.15 126.15 136 114 136C107.168 136 101.064 132.886 97.0288 128H114C121.732 128 128 121.732 128 114C128 106.268 121.732 100 114 100H97.0288C100.257 96.091 104.81 93.3162 110 92.3628V90H106V86ZM80 104L104 104V108L80 108V104ZM88 112H100V116H88V112ZM104 120L80 120V124L104 124V120ZM116 107C116 105.895 115.105 105 114 105C112.895 105 112 105.895 112 107V117.5C112 118.273 112.445 118.976 113.144 119.307C113.842 119.638 114.668 119.537 115.266 119.048L120.766 114.548C121.621 113.848 121.747 112.588 121.048 111.734C120.348 110.879 119.088 110.753 118.234 111.452L116 113.28V107Z" fill="url(#paint4_linear_1359_13158)"/>

</g></symbol><symbol id="ic_installment" viewBox="0 0 72 72"><g fill="none">
<path fill-rule="evenodd" clip-rule="evenodd" d="M27 52C35.8366 52 43 44.8366 43 36C43 27.1634 35.8366 20 27 20C18.1634 20 11 27.1634 11 36C11 44.8366 18.1634 52 27 52ZM27 56C38.0457 56 47 47.0457 47 36C47 24.9543 38.0457 16 27 16C15.9543 16 7 24.9543 7 36C7 47.0457 15.9543 56 27 56Z" fill="#2B2D42"/>
<path fill-rule="evenodd" clip-rule="evenodd" d="M24.9999 35.7907L24.9999 23L28.9999 23L28.9999 37.3521L23.471 43.355L20.5288 40.645L24.9999 35.7907Z" fill="#2B2D42"/>
<path fill-rule="evenodd" clip-rule="evenodd" d="M42 50.8733C47.9117 48.5226 52.0908 42.7493 52.0908 35.9999C52.0908 29.2505 47.9117 23.4772 42 21.1265V16.8872C49.5735 19.2261 55.2255 25.9428 56 34.0815V37.9183C55.2255 46.057 49.5735 52.7737 42 55.1126V50.8733Z" fill="#2B2D42"/>
<path fill-rule="evenodd" clip-rule="evenodd" d="M52 50.4787C57.4265 47.9187 61.1816 42.3979 61.1816 36C61.1816 29.6022 57.4265 24.0814 52 21.5214V17.1924C59.6886 19.9803 65.1816 27.3487 65.1816 36C65.1816 44.6514 59.6886 52.0197 52 54.8077V50.4787Z" fill="#2B2D42"/>
</g></symbol><symbol id="ic_mobile" viewBox="0 0 72 72"><g fill="none">
<path fill-rule="evenodd" clip-rule="evenodd" d="M24 56L24 16C24 14.8954 24.8954 14 26 14L46 14C47.1046 14 48 14.8954 48 16V17.2639C49.4001 17.5132 50.741 17.9339 52 18.5035V16C52 12.6863 49.3137 10 46 10H26C22.6863 10 20 12.6863 20 16V56C20 59.3137 22.6863 62 26 62H46C49.3137 62 52 59.3137 52 56V49.4965C50.741 50.0661 49.4001 50.4868 48 50.7361V56C48 57.1046 47.1046 58 46 58H26C24.8954 58 24 57.1046 24 56Z" fill="#2B2D42"/>
<circle cx="36" cy="53" r="2" fill="#2B2D42"/>
<path fill-rule="evenodd" clip-rule="evenodd" d="M45 47C52.1797 47 58 41.1797 58 34C58 26.8203 52.1797 21 45 21C37.8203 21 32 26.8203 32 34C32 41.1797 37.8203 47 45 47ZM45 51C54.3888 51 62 43.3888 62 34C62 24.6112 54.3888 17 45 17C35.6112 17 28 24.6112 28 34C28 43.3888 35.6112 51 45 51Z" fill="#2B2D42"/>
<path fill-rule="evenodd" clip-rule="evenodd" d="M43 29H47C48.1046 29 49 29.8954 49 31C49 32.1046 48.1046 33 47 33H43V29ZM47 36H43V38H50V40H43V43H40V40H38V38H40V36H38V33H40V29V26H43H47C49.7614 26 52 28.2386 52 31C52 33.7614 49.7614 36 47 36Z" fill="#2B2D42"/>
</g></symbol><symbol id="ic_notifications" viewBox="0 0 139 139"><g fill="none">
<path fill-rule="evenodd" clip-rule="evenodd" d="M67.9998 139C105.555 139 136 108.555 136 71C136 33.4446 105.555 3 67.9998 3C40.4723 3 16.7652 19.3569 6.06744 42.8815C5.61219 43.8826 6.35702 45 7.45678 45C8.30907 45 8.99998 45.6909 8.99998 46.5432V47C8.99998 48.1046 8.10455 49 6.99998 49H5.11484C4.2312 49 3.4434 49.5578 3.176 50.4C2.76346 51.6993 3.75237 53 5.11563 53H12C13.1046 53 14 53.8954 14 55C14 56.1046 13.1046 57 12 57H3.11773C2.14164 57 1.29679 57.6792 1.12049 58.6392C0.893157 59.8771 1.85964 61 3.11824 61H5.99998C7.10455 61 7.99998 61.8954 7.99998 63C7.99998 64.1046 7.10455 65 5.99998 65H2.14823C1.08027 65 0.186532 65.8102 0.122763 66.8762C0.0534519 68.0349 0.987782 69 2.14855 69H18C19.1046 69 20 69.8954 20 71C20 72.1046 19.1046 73 18 73H2.14855C0.98778 73 0.0534519 73.9651 0.122763 75.1238C0.186532 76.1898 1.08027 77 2.14823 77H8.99998C10.1046 77 11 77.8954 11 79C11 80.1046 10.1046 81 8.99998 81H3.11824C1.85964 81 0.893157 82.1229 1.12049 83.3608C1.29679 84.3208 2.14164 85 3.11772 85H21C22.1046 85 23 85.8954 23 87C23 88.1046 22.1046 89 21 89H5.11563C3.75237 89 2.76346 90.3007 3.176 91.6C3.4434 92.4422 4.2312 93 5.11484 93H8.99998C10.1046 93 11 93.8954 11 95C11 96.1046 10.1046 97 8.99998 97H8.2492C6.77207 97 5.77327 98.5022 6.40048 99.8396C6.73577 100.555 7.45834 101 8.24798 101H37C38.1045 101 39 101.895 39 103C39 104.105 38.1045 105 37 105H12.7092C11.1045 105 10.1125 106.734 10.9886 108.078C11.3666 108.658 12.0149 109 12.7073 109H27C28.1045 109 29 109.895 29 111C29 112.105 28.1046 113 27 113H22.7514C19.4129 113 17.6204 116.794 19.9843 119.151C32.2845 131.417 49.2566 139 67.9998 139ZM11 63C11 64.1046 11.8954 65 13 65C14.1046 65 15 64.1046 15 63C15 61.8954 14.1046 61 13 61C11.8954 61 11 61.8954 11 63ZM33 95C33 96.1046 32.1045 97 31 97H24C22.8954 97 22 96.1046 22 95C22 93.8954 22.8954 93 24 93H31C32.1045 93 33 93.8954 33 95ZM15 79C15 80.1046 15.8954 81 17 81H25C26.1045 81 27 80.1046 27 79C27 77.8954 26.1045 77 25 77H17C15.8954 77 15 77.8954 15 79ZM30 87C30 88.1046 29.1046 89 28 89C26.8954 89 26 88.1046 26 87C26 85.8954 26.8954 85 28 85C29.1046 85 30 85.8954 30 87ZM18 95C18 96.1046 17.1046 97 16 97C14.8954 97 14 96.1046 14 95C14 93.8954 14.8954 93 16 93C17.1046 93 18 93.8954 18 95Z" fill="url(#paint0_linear_1359_13399)"/>
<circle cx="112" cy="27" r="27" fill="#EDF2F4"/>
<path fill-rule="evenodd" clip-rule="evenodd" d="M41.774 96.3207C44.8435 101.613 50.5592 105 56.6982 105H128.885C134.071 105 137.352 99.3902 134.706 94.8389L106.869 46.5735C103.799 41.2812 98.0837 38 91.9447 38H19.7583C14.5718 38 11.2906 43.6098 13.9367 48.1611L41.774 96.3207Z" fill="url(#paint1_linear_1359_13399)"/>
<path fill-rule="evenodd" clip-rule="evenodd" d="M106.642 46.1937C106.719 46.3191 106.795 46.4457 106.869 46.5735C106.863 46.573 106.857 46.5725 106.852 46.5721C108.211 49.1421 108.378 51.9029 107.202 54.0672L87.5613 82.8032C85.4491 85.867 79.0068 85.867 73.3037 82.8032L20.1811 54.0672C15.6622 51.6396 12.8673 47.9516 13.0049 45.0006C12.8655 41.3672 15.7401 38 19.7583 38H91.9447C97.2254 38 102.193 40.4279 105.432 44.4752C105.897 45.0293 106.301 45.6054 106.642 46.1937Z" fill="url(#paint2_linear_1359_13399)"/>
<path fill-rule="evenodd" clip-rule="evenodd" d="M135.224 100.58L90.9064 77.9094L87.5615 82.8032C85.4493 85.867 79.007 85.867 73.304 82.8032L61.8773 76.6221L45.5 100.5V100.801C48.5786 103.447 52.5413 105 56.6982 105H128.885C131.917 105 134.298 103.082 135.224 100.58Z" fill="url(#paint3_linear_1359_13399)"/>
<path fill-rule="evenodd" clip-rule="evenodd" d="M112 50C124.703 50 135 39.7025 135 27C135 14.2975 124.703 4 112 4C99.2975 4 89 14.2975 89 27C89 39.7025 99.2975 50 112 50ZM112.349 11.0001C113.274 11.0001 114.024 11.7503 114.024 12.6757V14.519C117.849 15.2953 120.727 18.6764 120.727 22.7298V30.885C122.712 31.8634 124.078 33.9073 124.078 36.2703V36.9729H100.619V36.2703C100.619 33.9073 101.985 31.8634 103.97 30.885V22.7298C103.97 18.6764 106.849 15.2953 110.673 14.519V12.6757C110.673 11.7503 111.423 11.0001 112.349 11.0001ZM115.7 38.6486V38.6487C115.7 40.4996 114.2 42 112.349 42C110.498 42 108.997 40.4996 108.997 38.6487V38.6486H115.7Z" fill="url(#paint4_linear_1359_13399)"/>

</g></symbol><symbol id="ic_pay-systems" viewBox="0 0 72 72"><g fill="none">
<path fill-rule="evenodd" clip-rule="evenodd" d="M13.8944 40.4773L11.699 41.8835C9.43366 43.314 9.43366 46.6348 11.699 48.0653L31.1604 60.5822C34.1465 62.4725 37.905 62.4725 40.8396 60.5822L60.301 48.0653C62.5663 46.6348 62.5663 43.3651 60.301 41.9346L58.0704 40.5L54.3731 42.8779L57.6725 45L38.6735 57.2195C37.0725 58.2507 34.9996 58.273 33.3103 57.209L14.2886 44.975L17.5948 42.8573L13.8944 40.4773Z" fill="#2B2D42"/>
<path fill-rule="evenodd" clip-rule="evenodd" d="M13.8944 31.4773L11.699 32.8835C9.43366 34.314 9.43366 37.6348 11.699 39.0653L31.1604 51.5822C34.1465 53.4725 37.905 53.4725 40.8396 51.5822L60.301 39.0653C62.5663 37.6348 62.5663 34.3651 60.301 32.9346L58.0704 31.5L54.3731 33.8779L57.6725 36L38.6735 48.2195C37.0725 49.2507 34.9996 49.273 33.3103 48.209L14.2886 35.975L17.5948 33.8573L13.8944 31.4773Z" fill="#2B2D42"/>
<path fill-rule="evenodd" clip-rule="evenodd" d="M57.6725 27L38.6896 14.7908C37.0003 13.727 34.9274 13.7493 33.3265 14.7805L33.3179 14.786L14.2886 26.975L33.3103 39.2091C34.9996 40.273 37.0725 40.2508 38.6735 39.2195L57.6725 27ZM40.8396 11.4177L60.301 23.9346C62.5663 25.3651 62.5663 28.6349 60.301 30.0654L40.8396 42.5823C37.905 44.4726 34.1465 44.4726 31.1604 42.5823L11.699 30.0654C9.43366 28.6349 9.43366 25.314 11.699 23.8835L31.1604 11.4177C34.095 9.52742 37.8535 9.52742 40.8396 11.4177Z" fill="#2B2D42"/>
</g></symbol><symbol id="ic_process" viewBox="0 0 24 24"><g fill="none">
<g clip-path="url(#clip0_1239_7023)">
<path fill-rule="evenodd" clip-rule="evenodd" d="M22.6099 15.75C21.0655 20.1195 16.8983 23.25 12 23.25C5.7868 23.25 0.75 18.2132 0.75 12H3.75C3.75 16.5563 7.44365 20.25 12 20.25C15.206 20.25 17.9849 18.4213 19.3504 15.75H22.6099ZM4.64956 8.25C6.0151 5.57874 8.79399 3.75 12 3.75C16.5563 3.75 20.25 7.44365 20.25 12H23.25C23.25 5.7868 18.2132 0.75 12 0.75C7.10168 0.75 2.93453 3.88053 1.39015 8.25H4.64956Z" fill="white"/>
<path d="M3 2.25C3 1.83579 2.66421 1.5 2.25 1.5H1.5C1.08579 1.5 0.75 1.83579 0.75 2.25V9C0.75 9.41421 1.08579 9.75 1.5 9.75H8.25C8.66421 9.75 9 9.41421 9 9V8.25C9 7.83579 8.66421 7.5 8.25 7.5H3.75C3.33579 7.5 3 7.16421 3 6.75V2.25Z" fill="white"/>
<path d="M15.75 16.5C15.3358 16.5 15 16.1642 15 15.75V15C15 14.5858 15.3358 14.25 15.75 14.25H22.5C22.9142 14.25 23.25 14.5858 23.25 15V21.75C23.25 22.1642 22.9142 22.5 22.5 22.5H21.75C21.3358 22.5 21 22.1642 21 21.75V17.25C21 16.8358 20.6642 16.5 20.25 16.5H15.75Z" fill="white"/>
<rect x="0.75" y="8.25" width="1.5" height="1.5" fill="white"/>
<rect x="21.75" y="14.25" width="1.5" height="1.5" fill="white"/>
</g>

</g></symbol><symbol id="ic_sbp" viewBox="0 0 72 72"><g fill="none">
<path fill-rule="evenodd" clip-rule="evenodd" d="M20 42V52H30V42H20ZM18 38C16.8954 38 16 38.8954 16 40V54C16 55.1046 16.8954 56 18 56H32C33.1046 56 34 55.1046 34 54V40C34 38.8954 33.1046 38 32 38H18Z" fill="#2B2D42"/>
<path fill-rule="evenodd" clip-rule="evenodd" d="M20 20V30H30V20H20ZM18 16C16.8954 16 16 16.8954 16 18V32C16 33.1046 16.8954 34 18 34H32C33.1046 34 34 33.1046 34 32V18C34 16.8954 33.1046 16 32 16H18Z" fill="#2B2D42"/>
<path fill-rule="evenodd" clip-rule="evenodd" d="M42 20V30H52V20H42ZM40 16C38.8954 16 38 16.8954 38 18V32C38 33.1046 38.8954 34 40 34H54C55.1046 34 56 33.1046 56 32V18C56 16.8954 55.1046 16 54 16H40Z" fill="#2B2D42"/>
<path fill-rule="evenodd" clip-rule="evenodd" d="M39 39H43H47V43H43V47H39V39ZM43 51V47H47V43H51V47H55V51H51V55H47V51H43ZM43 51V55H39V51H43ZM51 43V39H55V43H51Z" fill="#2B2D42"/>
</g></symbol><symbol id="ic_send-message" viewBox="0 0 164 96"><g fill="none">
<g clip-path="url(#clip0_1243_7263)">
<path fill-rule="evenodd" clip-rule="evenodd" d="M51.6547 53.091C50.5035 52.4311 50.5145 50.8249 51.6323 50.1795L104.193 19.8339C106.117 18.7225 108.317 18.2696 110.459 18.4721L110.463 18.7146C111.565 18.6966 112.528 18.8735 113.328 19.1593C113.686 19.3012 114.038 19.4637 114.381 19.6467C114.553 19.747 114.711 19.8522 114.857 19.9606C115.72 20.6045 115.992 21.235 116.047 21.6286L113.856 50.4066L113.855 50.409C113.811 50.4866 113.574 50.9069 112.591 51.4743C111.343 52.1946 109.471 52.7636 107.337 52.8299L107.332 52.83L56.572 54.2385C54.9811 54.2872 53.6596 54.0431 52.7025 53.6953L51.6547 53.091ZM102.193 16.3698C106.039 14.1491 110.678 13.8292 114.74 15.4163C115.308 15.6235 115.842 15.8719 116.335 16.1554C116.445 16.2149 116.554 16.2759 116.663 16.3385L157.222 39.7792C161.062 41.9807 161.031 47.4446 157.255 49.6249L104.694 79.9705C100.224 82.5512 94.6389 82.4878 90.1792 79.9248L50.973 57.3154C49.4018 56.6784 48.2254 55.751 47.6572 54.6504C46.0293 52.0635 46.7071 48.4043 49.6323 46.7154L102.193 16.3698ZM150.636 40.593L119.964 22.8661L118.494 42.1757L127.829 41.9475L150.636 40.593ZM156.037 44.2793C156.222 44.9704 155.957 45.7552 155.255 46.1608L102.694 76.5064C100.449 77.8031 97.7779 78.1774 95.2589 77.6385L96.3737 63.4581L96.856 57.1222L107.454 56.8282C112.894 56.6615 117.585 53.9533 117.835 50.8346L118.207 45.9496L118.213 46.1837L127.996 45.9446L156.037 44.2793ZM92.8359 57.2338L60.3992 58.1338L91.3756 75.9973L92.3853 63.1546L92.3857 63.1496L92.8359 57.2338Z" fill="#2B2D42"/>
<rect width="35" height="4" transform="matrix(1 0 0 -1 38 77.5203)" fill="#2B2D42"/>
<rect width="20" height="4" transform="matrix(1 0 0 -1 28 67)" fill="#2B2D42"/>
<rect width="8" height="4" transform="matrix(1 0 0 -1 39 45)" fill="#2B2D42"/>
<rect width="8" height="4" transform="matrix(1 0 0 -1 39 23)" fill="#2B2D42"/>
<rect width="40" height="4" transform="matrix(1 0 0 -1 25 34)" fill="#2B2D42"/>
<rect width="32" height="4" transform="matrix(1 0 0 -1 52 23)" fill="#2B2D42"/>
<rect width="19" height="4" transform="matrix(1 0 0 -1 16 45)" fill="#2B2D42"/>
<rect width="26" height="4" transform="matrix(1 0 0 -1 16 56)" fill="#2B2D42"/>
<rect width="8" height="4" transform="matrix(1 0 0 -1 16 67)" fill="#2B2D42"/>
<rect width="8" height="4" transform="matrix(1 0 0 -1 4 56)" fill="#2B2D42"/>
</g>

</g></symbol><symbol id="ic_wallet" viewBox="0 0 72 72"><g fill="none">
<path fill-rule="evenodd" clip-rule="evenodd" d="M37.4142 21.272L41.657 17.0292C42.4381 16.2481 43.7044 16.2481 44.4855 17.0292L60.0418 32.5855C60.8229 33.3666 60.8229 34.6329 60.0418 35.4139L46.6066 48.8491L37.4142 58.0415C36.6332 58.8226 35.3668 58.8226 34.5858 58.0415L17.3738 40.8296C17.9725 40.5436 18.5336 40.1526 19.0294 39.6568L28.2218 30.4644L37.4142 21.272ZM25.3934 27.6359L33.1716 19.8578L30.3431 17.0293C29.5621 16.2483 28.2958 16.2483 27.5147 17.0293L11.9584 32.5857C11.1773 33.3667 11.1773 34.6331 11.9584 35.4141L12.6655 36.1212L13.3726 36.8283C14.1536 37.6094 15.42 37.6094 16.201 36.8283L25.3934 27.6359ZM38.8286 14.2007L36 17.0293L33.1716 14.2009C30.8284 11.8578 27.0294 11.8578 24.6863 14.2009L9.12994 29.7573C6.78679 32.1004 6.78679 35.8994 9.12994 38.2426L31.7574 60.87C34.1005 63.2131 37.8995 63.2131 40.2426 60.87L49.435 51.6776L62.8702 38.2424C65.2005 35.9121 65.2133 32.142 62.9087 29.7959L47.275 14.1622C44.9299 11.8587 41.1621 11.8705 38.8316 14.1978L38.8286 14.2007Z" fill="#2B2D42"/>
<circle cx="48.7278" cy="28.343" r="2" transform="rotate(-45 48.7278 28.343)" fill="#2B2D42"/>
</g></symbol><symbol id="logo_autodor" viewBox="0 0 140 62"><g fill="none">
<path fill-rule="evenodd" clip-rule="evenodd" d="M43.5949 23.4199L43.8822 22.2935H35.1099H26.3376H19.3945C18.3214 22.2935 17.3837 23.0228 17.1262 24.0628L16.0802 28.266C16.007 28.555 16.2997 28.7982 16.5734 28.6793C23.8471 25.481 33.137 23.8035 43.1533 23.763C43.3619 23.763 43.5435 23.6225 43.5949 23.4199ZM24.7584 39.8249C24.5904 39.8249 24.4739 39.6493 24.5416 39.4953C27.8099 31.9506 35.1269 28.3255 42.4575 27.977L42.1296 29.2818C42.089 29.4492 41.9507 29.5762 41.78 29.6113C36.0646 30.7755 32.3356 34.6762 30.8776 39.5466C30.8288 39.7114 30.6798 39.8249 30.509 39.8249H24.7584ZM34.8604 39.5548C35.5108 35.4218 38.2533 32.1127 41.7248 30.9134L39.8875 38.2555C39.6571 39.1766 38.8251 39.825 37.8712 39.825H35.0934C34.9498 39.825 34.8387 39.6953 34.8604 39.5548ZM13.6524 37.9772L14.5602 34.3224C14.6388 34.0064 14.8231 33.7227 15.0833 33.5255C22.2268 28.1175 31.1293 25.2325 43.1807 25.1002L42.8799 26.3212C42.8338 26.513 42.6604 26.6534 42.4598 26.6615C31.0967 27.1802 23.5439 32.0884 19.8908 39.5305C19.8041 39.7088 19.6252 39.8222 19.4274 39.8222H15.1022C14.132 39.8222 13.4193 38.9146 13.6524 37.9772Z" fill="#ED7239"/>
<path d="M48.5813 37.3857C48.8008 37.3857 48.8794 37.4101 48.939 37.4803C49.0393 37.5965 49.0799 37.7666 48.8821 38.5527C48.6843 39.3388 48.5623 39.509 48.3997 39.6251C48.3049 39.6954 48.2181 39.7197 47.9987 39.7197H47.3293C47.1097 39.7197 47.0285 39.6954 46.9688 39.6251C46.8686 39.509 46.8307 39.3388 47.0285 38.5527C47.2263 37.7666 47.3455 37.5965 47.5055 37.4803C47.6003 37.4101 47.6897 37.3857 47.9092 37.3857H48.5813ZM47.2914 39.3604C47.3103 39.3847 47.3347 39.3982 47.4485 39.3982H48.0366C48.1504 39.4009 48.1802 39.3847 48.2128 39.3604C48.2588 39.328 48.3293 39.2227 48.5 38.55C48.668 37.8774 48.6463 37.7748 48.6166 37.7396C48.5975 37.7153 48.5731 37.7018 48.4594 37.7018H47.8713C47.7574 37.7018 47.7277 37.7153 47.6951 37.7396C47.6517 37.772 47.5786 37.8774 47.4106 38.55C47.2426 39.2227 47.2642 39.328 47.2914 39.3604Z" fill="#373736"/>
<path d="M50.8468 39.6222C50.7519 39.6924 50.6652 39.7168 50.4457 39.7168H49.798C49.5785 39.7168 49.4972 39.6924 49.4376 39.6222C49.3373 39.506 49.2994 39.3359 49.4972 38.5498C49.695 37.7637 49.8143 37.5935 49.9742 37.4774C50.069 37.4071 50.1584 37.3828 50.378 37.3828H51.0257C51.2451 37.3828 51.3238 37.4071 51.3834 37.4774C51.4836 37.5935 51.508 37.7475 51.4132 38.15H51.0392C51.1015 37.8555 51.0934 37.7745 51.0636 37.7394C51.0446 37.7151 51.0202 37.7016 50.9064 37.7016H50.3373C50.2235 37.7016 50.1937 37.7151 50.1612 37.7394C50.1178 37.7718 50.0447 37.8772 49.8766 38.5498C49.7058 39.2224 49.7302 39.325 49.7574 39.3602C49.7763 39.3844 49.8007 39.398 49.9146 39.398H50.4837C50.5975 39.4007 50.6273 39.3844 50.6598 39.3602C50.7059 39.3277 50.7547 39.2602 50.8495 38.9144H51.2262C51.0934 39.3764 51.0067 39.506 50.8468 39.6222Z" fill="#373736"/>
<path d="M52.3337 39.717H51.9191L52.3689 39.0092L51.7998 37.3857H52.1901L52.6128 38.65L52.6318 38.6365L53.4285 37.3857H53.8595L52.3337 39.717Z" fill="#373736"/>
<path d="M57.8685 39.0603H56.9796L56.6111 39.7168H56.2397L57.5433 37.4666C57.5866 37.3909 57.611 37.3774 57.7005 37.3774H58.0257C58.1097 37.3774 58.1287 37.3909 58.1368 37.4666L58.3184 39.7168H57.9146L57.8685 39.0603ZM57.1558 38.747H57.8468L57.7872 37.7016H57.7357L57.1558 38.747Z" fill="#373736"/>
<path d="M60.5755 38.7715C60.486 38.8391 60.3641 38.858 60.1934 38.858H59.4021L59.188 39.717H58.814L59.3966 37.3857H60.562C60.7326 37.3857 60.8465 37.4047 60.9034 37.4722C60.9793 37.5613 61.0335 37.7126 60.9278 38.1313C60.8275 38.5311 60.6974 38.6797 60.5755 38.7715ZM60.1826 38.5365C60.2991 38.5365 60.3424 38.5257 60.3695 38.5068C60.4129 38.4771 60.4807 38.4014 60.5511 38.1205C60.6216 37.8369 60.5945 37.764 60.5647 37.7343C60.5457 37.7153 60.5077 37.7045 60.3912 37.7045H59.692L59.4861 38.5365H60.1826Z" fill="#373736"/>
<path d="M62.6783 39.6222C62.5835 39.6924 62.4968 39.7168 62.2773 39.7168H61.6296C61.4101 39.7168 61.3287 39.6924 61.2691 39.6222C61.1689 39.506 61.1309 39.3359 61.3287 38.5498C61.5266 37.7637 61.6458 37.5935 61.8057 37.4774C61.9006 37.4071 61.99 37.3828 62.2095 37.3828H62.8572C63.0767 37.3828 63.1553 37.4071 63.2149 37.4774C63.3152 37.5935 63.3396 37.7475 63.2447 38.15H62.8708C62.9331 37.8555 62.9249 37.7745 62.8952 37.7394C62.8762 37.7151 62.8518 37.7016 62.738 37.7016H62.1688C62.0551 37.7016 62.0252 37.7151 61.9927 37.7394C61.9494 37.7718 61.8762 37.8772 61.7081 38.5498C61.5375 39.2224 61.5618 39.325 61.5889 39.3602C61.6079 39.3844 61.6323 39.398 61.7461 39.398H62.3152C62.429 39.4007 62.4589 39.3844 62.4914 39.3602C62.5374 39.3277 62.5862 39.2602 62.6811 38.9144H63.0577C62.9249 39.3764 62.8383 39.506 62.6783 39.6222Z" fill="#373736"/>
<path d="M64.8193 37.7045L64.3179 39.717H63.944L64.4453 37.7045H63.7109L63.7922 37.3857H65.6378L65.5564 37.7045H64.8193Z" fill="#373736"/>
<path d="M45.8494 37.7045L45.3481 39.7169H44.9741L45.4755 37.7045L45.5513 37.3857H47.0636L46.9822 37.7045H45.8494Z" fill="#373736"/>
<path d="M66.0873 37.3857H67.3068C67.4775 37.3857 67.5913 37.4128 67.651 37.483C67.7268 37.5722 67.7404 37.6883 67.6564 38.0287C67.5751 38.3529 67.4314 38.4473 67.193 38.5041V38.5095C67.4504 38.5527 67.5182 38.677 67.4314 39.0336C67.3339 39.4171 67.2499 39.5225 67.1307 39.6143C67.0412 39.6845 66.8976 39.717 66.7323 39.717H65.5073L66.0873 37.3857ZM67.0791 38.6905C67.0656 38.6716 67.0385 38.6635 66.9301 38.6635H66.1415L65.9572 39.3955H66.7458C66.8488 39.3955 66.8894 39.3928 66.9166 39.3685C66.949 39.3415 66.9897 39.2874 67.0547 39.0362C67.1198 38.7742 67.1035 38.7202 67.0791 38.6905ZM66.9897 38.3501C67.0927 38.3501 67.1279 38.3447 67.1578 38.3231C67.1984 38.2934 67.2309 38.2394 67.2851 38.0233C67.3393 37.8099 67.3339 37.7613 67.3095 37.7288C67.296 37.7099 67.2607 37.7018 67.1523 37.7018H66.3827L66.2228 38.3474H66.9897V38.3501Z" fill="#373736"/>
<path d="M69.4912 39.717H67.895L68.4777 37.3857H70.0739L69.9926 37.7045H68.7704L68.6105 38.3474H69.624L69.5428 38.6662H68.5292L68.3449 39.3955H69.5672L69.4912 39.717Z" fill="#373736"/>
<path d="M71.9607 39.717H71.5867L71.8469 38.6688H70.7303L70.4701 39.717H70.0962L70.6789 37.3857H71.0528L70.8116 38.3474H71.9282L72.1694 37.3857H72.5433L71.9607 39.717Z" fill="#373736"/>
<path d="M74.5383 39.717H74.1643L74.4245 38.6688H73.308L73.0478 39.717H72.6738L73.2564 37.3857H73.6305L73.3892 38.3474H74.5058L74.7469 37.3857H75.121L74.5383 39.717Z" fill="#373736"/>
<path d="M76.6024 39.0603H75.7135L75.345 39.7168H74.9736L76.2772 37.4666C76.3205 37.3909 76.3449 37.3774 76.4344 37.3774H76.7596C76.8436 37.3774 76.8625 37.3909 76.8707 37.4666L77.0522 39.7168H76.6485L76.6024 39.0603ZM75.8897 38.747H76.5807L76.5211 37.7016H76.4723L75.8897 38.747Z" fill="#373736"/>
<path d="M83.627 37.3857L82.4506 38.4852L83.0657 39.717H82.6211L82.1143 38.6688H81.9031L81.6428 39.717H81.269L81.852 37.3857H82.2257L81.9844 38.3474H82.1851L83.1929 37.3857H83.627Z" fill="#373736"/>
<path d="M85.2205 37.3857C85.4401 37.3857 85.5188 37.4101 85.5785 37.4803C85.6788 37.5965 85.7195 37.7666 85.5214 38.5527C85.3234 39.3388 85.2015 39.509 85.0388 39.6251C84.9444 39.6954 84.8572 39.7197 84.6382 39.7197H83.9687C83.7491 39.7197 83.6677 39.6954 83.6081 39.6251C83.5077 39.509 83.4697 39.3388 83.6677 38.5527C83.8658 37.7666 83.9851 37.5965 84.1451 37.4803C84.2395 37.4101 84.3294 37.3857 84.5484 37.3857H85.2205ZM83.9307 39.3604C83.9497 39.3847 83.974 39.3982 84.0881 39.3982H84.6762C84.7897 39.4009 84.8198 39.3847 84.852 39.3604C84.8979 39.328 84.9687 39.2227 85.1392 38.55C85.3077 37.8774 85.2854 37.7748 85.2559 37.7396C85.2369 37.7153 85.2126 37.7018 85.0985 37.7018H84.5103C84.3969 37.7018 84.3667 37.7153 84.3346 37.7396C84.2913 37.772 84.2179 37.8774 84.05 38.55C83.8789 39.2227 83.9038 39.328 83.9307 39.3604Z" fill="#373736"/>
<path d="M88.3069 39.717H87.9253L88.4184 37.7343H88.3692L87.3535 39.6116C87.3069 39.6981 87.2912 39.7142 87.1987 39.7142H86.9574C86.8683 39.7142 86.8545 39.6981 86.8519 39.6116L86.7843 37.6991H86.7325L86.2368 39.717H85.8735L86.4565 37.3857H87.0387C87.1338 37.3857 87.1555 37.4154 87.1555 37.5019L87.1987 39.2307H87.2473L88.1502 37.5019C88.1961 37.4154 88.2315 37.3857 88.3233 37.3857H88.8924L88.3069 39.717Z" fill="#373736"/>
<path d="M90.8735 39.717H90.4997L91.0007 37.7045H89.8847L89.383 39.717H89.0093L89.5916 37.3857H89.966H91.082H91.4564L90.8735 39.717Z" fill="#373736"/>
<path d="M92.9086 39.0603H92.0194L91.6509 39.7168H91.2798L92.5833 37.4666C92.6266 37.3909 92.6509 37.3774 92.7407 37.3774H93.066C93.1499 37.3774 93.1689 37.3909 93.1768 37.4666L93.3584 39.7168H92.9545L92.9086 39.0603ZM92.1958 38.747H92.8869L92.8273 37.7016H92.7787L92.1958 38.747Z" fill="#373736"/>
<path d="M95.6 39.717H95.2263L95.4866 38.6688H94.3699L94.1096 39.717H93.7358L94.3181 37.3857H94.6925L94.4512 38.3474H95.5679L95.8086 37.3857H96.183L95.6 39.717Z" fill="#373736"/>
<path d="M96.9004 37.3857H97.2637L96.8303 39.1443H96.8814L98.1496 37.4965C98.2119 37.4074 98.2525 37.3857 98.3476 37.3857H98.762L98.1797 39.717H97.8165L98.2801 37.8774H98.2309L96.9031 39.6063C96.8408 39.6954 96.7975 39.717 96.7024 39.717H96.3208L96.9004 37.3857Z" fill="#373736"/>
<path d="M99.3827 39.0741C99.3099 39.3415 99.2339 39.6224 99.1801 39.717H98.8057C98.8516 39.59 98.9086 39.3901 99.0089 39.0633C99.0988 38.7662 99.1958 38.6554 99.4752 38.6176L99.4778 38.6121C99.2312 38.55 99.1499 38.3826 99.2365 38.0503C99.3289 37.7018 99.4397 37.5722 99.5729 37.483C99.6732 37.4182 99.8246 37.3857 99.9794 37.3857H101.145L100.562 39.717H100.188L100.427 38.7553H99.7787C99.5184 38.7553 99.4319 38.8877 99.3827 39.0741ZM100.508 38.4473L100.692 37.7045H100.012C99.784 37.7045 99.6837 37.7937 99.6083 38.0719C99.5427 38.3096 99.5945 38.4473 99.803 38.4473H100.508Z" fill="#373736"/>
<path d="M77.9278 39.0741C77.8546 39.3415 77.7788 39.6224 77.7245 39.717H77.3506C77.3966 39.59 77.4535 39.3901 77.5538 39.0633C77.6432 38.7662 77.7408 38.6554 78.0199 38.6176L78.0226 38.6121C77.776 38.55 77.6947 38.3826 77.7815 38.0503C77.8736 37.7018 77.9847 37.5722 78.1175 37.483C78.2178 37.4182 78.3695 37.3857 78.524 37.3857H79.6895L79.1066 39.717H78.7328L78.9709 38.7553H78.3235C78.0633 38.7553 77.9766 38.8877 77.9278 39.0741ZM79.0522 38.4473L79.2364 37.7045H78.5564C78.3288 37.7045 78.2286 37.7937 78.1527 38.0719C78.0877 38.3096 78.1391 38.4473 78.3479 38.4473H79.0522Z" fill="#373736"/>
<path fill-rule="evenodd" clip-rule="evenodd" d="M55.9385 37.3857H56.0957L55.5916 39.3982H55.8599L55.7108 39.9979H55.3369L55.4073 39.717H55.139H53.786L53.7162 39.9979H53.3423L53.4913 39.3982H53.6311C53.8257 39.2785 54.0414 38.9953 54.1742 38.5797C54.3124 38.1448 54.5455 37.3857 54.5455 37.3857H54.6512H54.9195H55.7216H55.9385ZM54.5591 38.5446C54.4317 38.9363 54.2555 39.2145 54.1038 39.3955H55.2203L55.6431 37.7045H54.8219C54.7542 37.926 54.6593 38.234 54.5591 38.5446Z" fill="#373736"/>
<path d="M61.0804 22.3423H67.5763C68.5167 22.3423 69.1156 22.5044 69.4218 22.8906C69.7958 23.3742 69.8907 24.117 69.5682 25.3785C69.1643 26.9939 68.4028 27.6557 67.1372 27.9448L67.121 27.9772C68.3676 28.2365 68.8229 28.7525 68.3676 30.5434C67.9964 32.0291 67.541 32.5775 66.9421 33.0448C66.4083 33.4473 65.6793 33.6418 64.7877 33.6418H58.2593L61.0804 22.3423ZM65.8419 29.028C65.7443 28.9307 65.6142 28.8821 65.1942 28.8821H62.1183L61.4327 31.6104H64.4842C64.8879 31.6104 65.0506 31.5942 65.1969 31.4807C65.3595 31.3511 65.5221 31.2215 65.747 30.2868C65.9882 29.317 65.9395 29.1712 65.8419 29.028ZM65.5844 27.0236C66.0045 27.0236 66.1345 27.0074 66.2646 26.9102C66.4435 26.7643 66.6196 26.4428 66.8148 25.6676C66.9936 24.9247 66.9611 24.6168 66.8635 24.4898C66.7822 24.4088 66.6521 24.3602 66.2158 24.3602H63.2321L62.5871 27.0236H65.5844Z" fill="#373736"/>
<path d="M76.9312 24.4412L74.6304 33.6445H71.9909L74.2916 24.4412H70.8418L71.3594 22.3423H80.7282L80.2102 24.4412H76.9312Z" fill="#373736"/>
<path d="M88.3698 22.3423C89.4865 22.3423 89.9743 22.5044 90.2805 22.8906C90.7658 23.4876 90.9769 24.5222 90.1179 27.9934C89.2425 31.4483 88.5134 32.4829 87.7193 33.0961C87.2183 33.4824 86.6682 33.6445 85.5489 33.6445H82.0369C80.9202 33.6445 80.4324 33.4824 80.1261 33.0961C79.6245 32.4829 79.4134 31.4483 80.2888 27.9934C81.1477 24.5222 81.8769 23.4876 82.6874 22.8906C83.1883 22.5044 83.7411 22.3423 84.8578 22.3423H88.3698ZM82.4893 31.3997C82.587 31.497 82.7169 31.5456 83.2342 31.5456H85.3889C85.9063 31.5618 86.0689 31.497 86.1994 31.3997C86.3784 31.2539 86.7003 30.8514 87.4131 27.9934C88.1258 25.1192 88.0124 24.7167 87.8983 24.5871C87.817 24.4736 87.6872 24.425 87.1692 24.425H85.0151C84.4971 24.425 84.3345 24.4736 84.1883 24.5871C84.0093 24.7167 83.7031 25.1192 82.9903 27.9934C82.2644 30.8676 82.3752 31.2539 82.4893 31.3997Z" fill="#373736"/>
<path d="M112.771 22.3423C113.887 22.3423 114.375 22.5044 114.681 22.8906C115.166 23.4876 115.378 24.5222 114.519 27.9934C113.643 31.4483 112.915 32.4829 112.123 33.0961C111.622 33.4824 111.069 33.6445 109.952 33.6445H106.438C105.321 33.6445 104.833 33.4824 104.527 33.0961C104.026 32.4829 103.814 31.4483 104.689 27.9934C105.548 24.5222 106.278 23.4876 107.085 22.8906C107.586 22.5044 108.139 22.3423 109.256 22.3423H112.771ZM106.89 31.3997C106.988 31.497 107.118 31.5456 107.636 31.5456H109.79C110.308 31.5618 110.47 31.497 110.6 31.3997C110.779 31.2539 111.102 30.8514 111.814 27.9934C112.527 25.1192 112.413 24.7167 112.3 24.5871C112.218 24.4736 112.088 24.425 111.57 24.425H109.416C108.898 24.425 108.736 24.4736 108.59 24.5871C108.411 24.7167 108.104 25.1192 107.392 27.9934C106.665 30.8676 106.777 31.2539 106.89 31.3997Z" fill="#373736"/>
<path d="M124.313 29.333C123.844 29.6734 123.197 29.8003 122.272 29.8003H118.811L117.855 33.6415H115.215L118.034 22.3394H124.134C125.058 22.3394 125.641 22.4528 125.947 22.7905C126.351 23.2578 126.627 23.9844 126.094 26.0833C125.592 28.139 124.928 28.8819 124.313 29.333ZM121.755 27.7338C122.353 27.7338 122.532 27.7014 122.679 27.6042C122.89 27.4421 123.115 27.1531 123.391 26.0536C123.668 24.9569 123.57 24.6814 123.441 24.5355C123.359 24.4383 123.18 24.3896 122.581 24.3896H120.159L119.332 27.7311H121.755V27.7338Z" fill="#373736"/>
<path d="M53.0777 22.3423C50.0235 22.3423 49.1942 22.8663 48.3433 26.1754C47.5194 29.3737 46.4219 33.6445 46.4219 33.6445H49.1075C49.1075 33.6445 49.6197 31.6428 50.1455 29.5817H54.224L53.2105 33.6445H55.8907L58.7118 22.3423H53.0777ZM50.6522 27.5963C50.9584 26.4023 51.205 25.4407 51.2674 25.2057C51.4815 24.3926 52.0994 24.3574 52.6414 24.3574H55.5899L54.7172 27.5963H50.6522Z" fill="#373736"/>
<path fill-rule="evenodd" clip-rule="evenodd" d="M92.1484 33.6445L91.7339 35.1194H89.3491L90.2297 31.5618H90.6242C90.7801 31.5496 90.9046 31.5158 91.024 31.4553C92.6472 30.1506 93.1461 28.5086 93.6876 26.7267C93.7181 26.6262 93.7488 26.5253 93.7798 26.4239C93.8286 26.2649 93.8781 26.1017 93.9291 25.9335C94.1303 25.2704 94.3555 24.5283 94.6578 23.647C94.9319 22.8528 95.1161 22.3423 96.3462 22.3423H103.647L101.349 31.5618H102.555L101.65 35.1194H99.333L99.6661 33.6445H92.1484ZM96.5563 25.3584C96.4215 25.7815 96.2524 26.3122 95.9941 27.1749C95.4138 29.1117 94.842 30.6731 93.9129 31.5591H98.6957L100.468 24.3547H97.3141C96.9829 24.3547 96.8151 24.533 96.7364 24.787C96.6803 24.9692 96.6224 25.1508 96.5563 25.3584Z" fill="#373736"/>
</g></symbol><symbol id="logo_gosuslugi" viewBox="0 0 140 61"><g fill="none">
<path fill-rule="evenodd" clip-rule="evenodd" d="M26.0788 25.2286H17.8846C17.7753 25.2286 17.7207 25.2832 17.7207 25.3925V36.7551C17.7207 36.8644 17.7753 36.919 17.8846 36.919H20.6706C20.7799 36.919 20.8345 36.8644 20.8345 36.7551V27.96H25.1501C25.2047 27.96 25.2593 27.9054 25.314 27.8507C25.6417 27.0859 25.9696 26.2665 26.2973 25.4471V25.2832C26.1881 25.2832 26.1334 25.2286 26.0788 25.2286ZM49.1318 34.1876C49.1318 34.1329 49.0771 34.0783 49.0225 34.0783H48.8586C48.2031 34.2968 46.9467 34.57 46.018 34.57C44.106 34.57 43.1773 34.0783 43.1773 31.0738C43.1773 28.7248 43.4505 27.5776 46.018 27.5776C46.7282 27.5776 47.4383 27.6868 48.2577 27.96C48.3124 27.96 48.4216 27.96 48.4216 27.8507C48.7494 27.2498 49.1318 26.5397 49.5688 25.611V25.4471C49.5688 25.3925 49.5142 25.3378 49.4595 25.3378C48.367 25.0101 47.0013 24.8462 45.7995 24.8462C41.757 24.8462 39.9543 26.7035 39.9543 31.0192C39.9543 35.3894 41.757 37.3014 45.7995 37.3014C46.7828 37.3014 48.804 37.0829 49.7873 36.7005C49.8966 36.6458 49.8966 36.5912 49.8966 36.5366C50.0059 36.482 49.1318 34.1876 49.1318 34.1876ZM32.4702 24.9008C28.4824 24.9008 26.8982 26.5943 26.8982 31.0738C26.8982 35.6079 28.4278 37.3014 32.4702 37.3014C36.5127 37.3014 38.097 35.5532 38.097 31.0738C38.097 26.6489 36.5127 24.9008 32.4702 24.9008ZM32.4702 34.6793C30.6129 34.6793 30.0666 34.1876 30.0666 31.1284C30.0666 27.8507 30.6675 27.5776 32.4702 27.5776C34.273 27.5776 34.9285 27.8507 34.9285 31.1284C34.9285 34.1876 34.3276 34.6793 32.4702 34.6793Z" fill="#0065B1"/>
<path fill-rule="evenodd" clip-rule="evenodd" d="M109.496 25.2285H101.302C101.193 25.2285 101.138 25.2832 101.138 25.3924V36.755C101.138 36.8643 101.193 36.9189 101.302 36.9189H104.088C104.197 36.9189 104.251 36.8643 104.251 36.755V27.9599H108.567C108.622 27.9599 108.731 27.9053 108.731 27.8507C109.059 27.0859 109.387 26.2665 109.714 25.447V25.2832C109.55 25.2832 109.55 25.2285 109.496 25.2285ZM99.1167 25.2832H96.2761C96.2216 25.2832 96.1118 25.3378 96.1118 25.3924C95.675 27.1405 94.8013 30.0904 93.5445 33.1496L90.7039 25.3378C90.7039 25.2832 90.5949 25.2285 90.5396 25.2285H87.699C87.6445 25.2285 87.59 25.2832 87.5355 25.2832C87.481 25.3378 87.481 25.3924 87.5355 25.447L91.7964 37.0282C91.3595 37.9022 90.9227 38.6124 90.5949 39.3772C90.3216 39.8688 90.0483 40.4151 89.7204 40.9614C89.6659 41.016 89.7204 41.0706 89.7204 41.1252C89.775 41.1799 89.8295 41.2346 89.8847 41.2346H92.9434C92.9979 41.2346 93.0531 41.1799 93.1077 41.1252C93.599 40.142 94.3092 38.7216 94.9103 37.3013C96.7129 33.0403 98.1878 29.1071 99.2257 25.447C99.2257 25.3924 99.2257 25.3378 99.1712 25.2832H99.1167ZM72.7312 34.1875C72.7312 34.1329 72.6766 34.0783 72.622 34.0783H72.4581C71.8026 34.2968 70.5461 34.5699 69.6175 34.5699C67.7055 34.5699 66.7768 34.0783 66.7768 31.0737C66.7768 28.7247 67.0499 27.5775 69.6175 27.5775C70.3276 27.5775 71.0378 27.6868 71.8572 27.9599C71.9665 27.9599 72.0211 27.9599 72.0211 27.8507C72.3489 27.2498 72.7312 26.5396 73.1683 25.6109V25.447C73.1683 25.3924 73.1136 25.3378 73.059 25.3378C71.9118 24.9554 70.5461 24.7915 69.399 24.7915C65.4111 24.7915 63.6084 26.6489 63.6084 30.9645C63.6084 35.3347 65.4111 37.2467 69.4536 37.2467C70.4369 37.2467 72.4581 37.0282 73.4414 36.6457C73.5507 36.5912 73.5507 36.5365 73.5507 36.4819C73.5507 36.4272 72.7312 34.1875 72.7312 34.1875ZM62.6251 25.2832H59.7844C59.6752 25.2832 59.6205 25.3378 59.6205 25.3924C59.1835 27.1405 58.3095 30.0904 57.0531 33.1496L54.267 25.2832C54.267 25.2285 54.1577 25.1739 54.1031 25.1739H51.2625C51.2079 25.1739 51.1532 25.2285 51.0986 25.2285C51.044 25.2832 51.044 25.3378 51.0986 25.3924L55.4142 36.9736C54.9772 37.8476 54.5401 38.6124 54.2124 39.3225C53.9392 39.8142 53.6661 40.3605 53.3383 40.9067C53.2837 40.9614 53.3383 41.016 53.3383 41.0706C53.393 41.1252 53.4476 41.1799 53.5022 41.1799H56.5614C56.616 41.1799 56.6707 41.1252 56.7252 41.0706C57.2169 40.0873 57.9271 38.667 58.528 37.2467C60.3307 32.9857 61.8056 29.0525 62.8436 25.3924C62.8436 25.3378 62.8436 25.2832 62.7889 25.2285C62.7344 25.2832 62.6797 25.2832 62.6251 25.2832ZM121.35 25.2285H118.564C118.455 25.2285 118.401 25.2832 118.401 25.3924V34.1875C117.799 34.3514 117.198 34.406 116.488 34.406C114.631 34.406 114.249 33.8597 114.249 31.4015V25.3924C114.249 25.2832 114.194 25.2285 114.084 25.2285H111.298C111.189 25.2285 111.135 25.2832 111.135 25.3924V31.7293C111.135 35.6624 112.446 37.2467 115.887 37.2467C117.799 37.2467 120.039 36.755 121.296 36.2634C121.35 36.2634 121.405 36.1541 121.405 36.0995V25.3924C121.514 25.2832 121.459 25.2285 121.35 25.2285ZM85.4596 25.2285H76.9922C76.883 25.2285 76.8284 25.2832 76.8284 25.3924C76.6099 29.2164 75.8997 33.3681 74.8618 36.7004V36.8097C74.9164 36.8643 74.971 36.8643 75.0257 36.8643H77.9755C78.0302 36.8643 78.1394 36.8097 78.1394 36.755C78.9588 34.1875 79.6144 30.746 79.8329 27.9053H82.6189V36.755C82.6189 36.8643 82.6736 36.9189 82.7828 36.9189H85.5689C85.6781 36.9189 85.7327 36.8643 85.7327 36.755V25.3924C85.6234 25.2832 85.5688 25.2285 85.4596 25.2285Z" fill="#EE3F58"/>
</g></symbol><symbol id="logo_kazna-white" viewBox="0 0 159 44"><g fill="none">
<path d="M13.1607 22.1726L20.6699 32.2141H15.9943L9.4769 23.4455H4.51799V32.2141H0.40918V12.4141H4.51799V21.3241H9.19354L15.711 12.4141H20.2448L13.1607 22.1726Z" fill="white"/>
<path d="M28.1769 25.2841H36.9612L32.7107 14.8183H32.4274L28.1769 25.2841ZM35.8278 12.4141L43.9037 32.2141H39.8232L37.953 27.4055H27.1851L25.3149 32.2141H21.2344L29.3103 12.4141H35.8278Z" fill="white"/>
<path d="M63.3231 14.8183L50.1466 30.0926H63.6065V32.2141H45.1877V29.8098L58.3642 14.5355H45.4711V12.4141H63.3231V14.8183Z" fill="white"/>
<path d="M86.9765 12.4141V32.2141H81.5925L70.9663 16.0912H70.6829V32.2141H66.5741V12.4141H71.9581L82.5843 28.5369H82.8677V12.4141H86.9765Z" fill="white"/>
<path d="M96.1958 25.2841H104.98L100.73 14.8183H100.446L96.1958 25.2841ZM103.847 12.4141L111.923 32.2141H107.842L105.972 27.4055H95.2041L93.3338 32.2141H89.2534L97.3293 12.4141H103.847Z" fill="white"/>
<path fill-rule="evenodd" clip-rule="evenodd" d="M122.774 0C117.133 0 112.56 4.57309 112.56 10.2143C112.56 15.8555 117.133 20.4286 122.774 20.4286H148.786C154.427 20.4286 159 15.8555 159 10.2143C159 4.57309 154.427 0 148.786 0H122.774ZM129.788 14.9286L128.907 12.892H124.499L123.63 14.9286H121.942L125.909 6.12856H127.521L131.501 14.9286H129.788ZM125.053 11.6097H128.365L126.703 7.76285L125.053 11.6097ZM138.768 6.12856C141.085 6.12856 142.521 7.31028 142.521 9.25885C142.521 11.1948 141.085 12.3891 138.768 12.3891H136.778V14.9286H135.141V6.12856H138.768ZM138.693 11.0063C140.128 11.0063 140.871 10.3651 140.871 9.25885C140.871 8.15256 140.128 7.51142 138.693 7.51142H136.778V11.0063H138.693ZM146.675 6.12856V14.9286H148.312V6.12856H146.675Z" fill="white"/>
</g></symbol><symbol id="logo_kazna" viewBox="0 0 127 35"><g fill="none">
<path d="M10.5123 17.6375L16.5102 25.625H12.7757L7.56992 18.65H3.60903V25.625H0.327148V9.875H3.60903V16.9625H7.34358L12.5493 9.875H16.1707L10.5123 17.6375Z" fill="#2B2D42"/>
<path d="M22.5064 20.1125H29.5228L26.1278 11.7875H25.9014L22.5064 20.1125ZM28.6175 9.875L35.0681 25.625H31.8088L30.315 21.8H21.7142L20.2204 25.625H16.9611L23.4117 9.875H28.6175Z" fill="#2B2D42"/>
<path d="M50.5792 11.7875L40.0545 23.9375H50.8055V25.625H36.0936V23.7125L46.6183 11.5625H36.32V9.875H50.5792V11.7875Z" fill="#2B2D42"/>
<path d="M69.4721 9.875V25.625H65.1717L56.6841 12.8H56.4577V25.625H53.1759V9.875H57.4763L65.9639 22.7H66.1902V9.875H69.4721Z" fill="#2B2D42"/>
<path d="M76.836 20.1125H83.8524L80.4574 11.7875H80.231L76.836 20.1125ZM82.9471 9.875L89.3977 25.625H86.1384L84.6446 21.8H76.0438L74.55 25.625H71.2907L77.7413 9.875H82.9471Z" fill="#2B2D42"/>
<path fill-rule="evenodd" clip-rule="evenodd" d="M98.0308 0C93.5434 0 89.9058 3.63769 89.9058 8.125C89.9058 12.6123 93.5435 16.25 98.0308 16.25H118.875C123.362 16.25 127 12.6123 127 8.125C127 3.63769 123.362 0 118.875 0H98.0308ZM103.667 11.875L102.963 10.255H99.4421L98.748 11.875H97.4L100.569 4.87499H101.856L105.035 11.875H103.667ZM99.8847 9.23499H102.53L101.202 6.17499L99.8847 9.23499ZM110.84 4.87499C112.691 4.87499 113.837 5.81499 113.837 7.36499C113.837 8.90499 112.691 9.85499 110.84 9.85499H109.25V11.875H107.943V4.87499H110.84ZM110.779 8.75499C111.926 8.75499 112.52 8.24499 112.52 7.36499C112.52 6.48499 111.926 5.97499 110.779 5.97499H109.25V8.75499H110.779ZM117.155 4.87499V11.875H118.463V4.87499H117.155Z" fill="#EF233C"/>
</g></symbol><symbol id="logo_rets" viewBox="0 0 141 62"><g fill="none">
<path d="M62.1172 26.2689V24.3871C62.3225 24.4213 62.6304 24.4213 62.8015 24.4213C64.0332 24.4213 64.6833 23.6343 64.6833 22.7447C64.6833 21.8893 64.2043 21.0682 62.6646 21.0682C62.2882 21.0682 61.4671 21.0682 61.1934 21.0682V26.2347H62.1172V26.2689ZM62.7673 21.9236C63.3831 21.9236 63.7253 22.1973 63.7253 22.7447C63.7253 23.3264 63.3147 23.5659 62.7673 23.5659C62.562 23.5659 62.3225 23.5659 62.1172 23.5317V21.9578C62.3909 21.9578 62.5962 21.9236 62.7673 21.9236ZM65.3676 23.6685C65.3676 25.2766 66.5309 26.3373 68.0706 26.3373C69.6103 26.3373 70.7736 25.2082 70.7736 23.6685C70.7736 22.0604 69.6103 20.9997 68.0706 20.9997C66.4625 21.034 65.3676 22.1973 65.3676 23.6685ZM66.3256 23.6685C66.3256 22.6079 67.0784 21.8551 68.0706 21.8551C69.0286 21.8551 69.8156 22.6079 69.8156 23.6685C69.8156 24.695 69.1655 25.4819 68.0706 25.4819C67.0784 25.5162 66.3256 24.7292 66.3256 23.6685ZM75.3927 25.1056C75.0505 25.3793 74.6057 25.5162 74.1609 25.5162C73.1003 25.5162 72.3817 24.7634 72.3817 23.7027C72.3817 22.5736 73.1003 21.8893 74.0583 21.8893C74.5715 21.8893 74.9137 22.0262 75.2216 22.2315L75.6322 21.5472C75.29 21.2393 74.7426 21.034 74.0583 21.034C72.3475 21.034 71.4237 22.2315 71.4237 23.7027C71.4237 25.3109 72.5186 26.3715 74.0925 26.3715C74.7768 26.3715 75.4269 26.132 75.7348 25.7899L75.3927 25.1056ZM80.217 25.1056C79.8749 25.3793 79.4301 25.5162 78.9853 25.5162C77.9246 25.5162 77.2061 24.7634 77.2061 23.7027C77.2061 22.5736 77.9246 21.8893 78.8826 21.8893C79.3959 21.8893 79.738 22.0262 80.046 22.2315L80.4566 21.5472C80.1144 21.2393 79.5669 21.034 78.8826 21.034C77.1719 21.034 76.2481 22.2315 76.2481 23.7027C76.2481 25.3109 77.343 26.3715 78.9169 26.3715C79.6012 26.3715 80.2513 26.132 80.5592 25.7899L80.217 25.1056ZM82.27 26.2689L84.973 22.6079V26.2689H85.8968V21.1024H85.1098L82.4068 24.7976V21.1024H81.483V26.2689H82.27ZM88.1208 26.2689L90.8238 22.6079V26.2689H91.7476V21.1024H90.9606L88.2576 24.7976V21.1024H87.3338V26.2689H88.1208ZM88.155 19.8364C88.2234 20.4523 88.7366 20.8971 89.6262 20.8971C90.4474 20.8971 91.0291 20.4865 91.0633 19.8364H90.2079C90.1737 20.1444 89.9342 20.2812 89.6262 20.2812C89.2499 20.2812 89.0446 20.1444 89.0104 19.8364H88.155ZM96.7772 25.1056C96.4351 25.3793 95.9903 25.5162 95.5455 25.5162C94.4848 25.5162 93.7663 24.7634 93.7663 23.7027C93.7663 22.5736 94.4848 21.8893 95.4428 21.8893C95.9561 21.8893 96.2982 22.0262 96.6062 22.2315L97.0167 21.5472C96.6746 21.2393 96.1271 21.034 95.4428 21.034C93.7321 21.034 92.8083 22.2315 92.8083 23.7027C92.8083 25.3109 93.9031 26.3715 95.4771 26.3715C96.1614 26.3715 96.8115 26.132 97.1194 25.7899L96.7772 25.1056ZM98.009 26.2689H98.9328V23.6001L101.054 26.2689H102.217L99.9593 23.4975L102.081 21.1024H100.986L98.9328 23.5659V21.1024H98.009V26.2689ZM103.791 26.2689L106.494 22.6079V26.2689H107.418V21.1024H106.631L103.928 24.7976V21.1024H103.004V26.2689H103.791ZM109.642 26.2689L112.345 22.6079V26.2689H113.269V21.1024H112.482L109.779 24.7976V21.1024H108.855V26.2689H109.642ZM109.642 19.8364C109.711 20.4523 110.224 20.8971 111.113 20.8971C111.935 20.8971 112.516 20.4865 112.55 19.8364H111.695C111.661 20.1444 111.421 20.2812 111.113 20.2812C110.737 20.2812 110.532 20.1444 110.498 19.8364H109.642Z" fill="#15284D"/>
<path d="M112.071 36.2938H112.995V31.1273H112.208L109.505 34.8225V31.1273H108.581V36.2938H109.368L112.071 32.6328V36.2938ZM112.276 29.8613H111.421C111.387 30.1693 111.147 30.3061 110.839 30.3061C110.463 30.3061 110.258 30.1693 110.223 29.8613H109.368C109.436 30.4772 109.95 30.922 110.839 30.922C111.66 30.922 112.276 30.4772 112.276 29.8613ZM106.22 36.2938H107.11V31.1273H106.22V36.2938ZM105.536 34.5146C105.536 33.4881 104.92 32.8381 103.654 32.8381C103.517 32.8381 103.312 32.8381 103.072 32.8723V31.0931H102.149V36.2596C102.456 36.2596 102.936 36.2596 103.449 36.2596C104.783 36.2938 105.536 35.6095 105.536 34.5146ZM104.578 34.5488C104.578 35.1647 104.236 35.4726 103.551 35.4726C103.38 35.4726 103.209 35.4726 103.072 35.4384V33.7619C103.278 33.7277 103.449 33.7277 103.586 33.7277C104.201 33.6934 104.578 33.9672 104.578 34.5488ZM99.8219 36.2938H100.712V31.1273H99.8219V33.2486H97.4611V31.1273H96.5373V36.2938H97.4611V34.0698H99.8219V36.2938ZM94.108 31.9485H95.7845V31.0931H91.5076V31.9485H93.1842V36.2596H94.108V31.9485ZM91.097 32.7696C91.097 31.9142 90.618 31.0931 89.0783 31.0931C88.702 31.0931 87.8808 31.0931 87.6071 31.0931V36.2596H88.5309V34.3777C88.7362 34.412 89.0441 34.412 89.2152 34.412C90.4469 34.4462 91.097 33.625 91.097 32.7696ZM90.139 32.7354C90.139 33.3171 89.7284 33.5566 89.181 33.5566C88.9757 33.5566 88.7362 33.5566 88.5309 33.5224V31.9485C88.7704 31.9485 89.0099 31.9485 89.181 31.9485C89.7968 31.9485 90.139 32.2222 90.139 32.7354ZM86.5806 33.6934C86.5806 32.0853 85.4173 31.0246 83.8776 31.0246C82.3037 31.0246 81.1746 32.188 81.1746 33.6934C81.1746 35.3016 82.3379 36.3622 83.8776 36.3622C85.4173 36.3622 86.5806 35.2331 86.5806 33.6934ZM85.6226 33.6934C85.6226 34.7199 84.9725 35.5068 83.8776 35.5068C82.9196 35.5068 82.1326 34.7199 82.1326 33.6934C82.1326 32.6328 82.8854 31.88 83.8776 31.88C84.8698 31.88 85.6226 32.6328 85.6226 33.6934ZM79.2243 36.2938H80.1481V31.1273H76.0423V36.2938H76.9661V31.9485H79.2585V36.2938H79.2243ZM71.7654 33.6934C71.7654 32.5643 72.4839 31.88 73.4419 31.88C73.9552 31.88 74.2973 32.0169 74.6053 32.2222L75.0159 31.5379C74.6737 31.2299 74.1263 31.0246 73.4419 31.0246C71.7312 31.0246 70.8074 32.2222 70.8074 33.6934C70.8074 35.3016 71.9023 36.3622 73.4762 36.3622C74.1605 36.3622 74.8106 36.1227 75.1185 35.7806L74.7763 35.0963C74.4342 35.37 73.9894 35.5068 73.5446 35.5068C72.4839 35.5068 71.7654 34.7883 71.7654 33.6934ZM70.3968 36.2938L68.1386 33.5224L70.2599 31.1273H69.165L67.1121 33.5908V31.1273H66.1883V36.2938H67.1121V33.625L69.2335 36.2938H70.3968ZM65.1619 33.6934C65.1619 32.0853 64.067 31.0246 62.5615 31.0246C61.7745 31.0246 61.1587 31.2984 60.7823 31.6063L61.1245 32.2906C61.5008 32.0169 61.9114 31.88 62.322 31.88C63.3142 31.88 63.9985 32.359 64.1696 33.2144H61.8772V34.0698H64.2038C64.0328 35.0278 63.3142 35.5068 62.4246 35.5068C61.8772 35.5068 61.4324 35.3016 61.0902 35.0621L60.7139 35.8148C61.0902 36.1227 61.7403 36.3622 62.4588 36.3622C64.1354 36.3622 65.1619 35.3016 65.1619 33.6934Z" fill="#15284D"/>
<path d="M140.436 32.7693C140.436 31.9139 139.956 31.0928 138.417 31.0928C138.04 31.0928 137.219 31.0928 136.946 31.0928V36.2593H137.869V34.3774C138.075 34.4117 138.383 34.4117 138.554 34.4117C139.785 34.4459 140.436 33.6247 140.436 32.7693ZM139.477 32.7351C139.477 33.3168 139.067 33.5563 138.519 33.5563C138.314 33.5563 138.075 33.5563 137.869 33.5221V31.9482C138.109 31.9482 138.348 31.9482 138.519 31.9482C139.135 31.9482 139.477 32.2219 139.477 32.7351ZM134.516 31.9482H136.193V31.0928H131.916V31.9482H133.592V36.2593H134.516V31.9482ZM130.239 36.2935H131.129V31.127H130.239V33.2483H127.879V31.127H126.955V36.2935H127.879V34.0695H130.239V36.2935ZM122.712 36.2935H125.791V35.4381H123.636V34.1037H125.483V33.2483H123.636V31.9482H125.723V31.0928H122.746V36.2935H122.712ZM120.967 37.2173H121.822V35.4381H121.104V31.127H120.18V35.4381H117.922V31.127H116.998V36.2935H120.933V37.2173H120.967Z" fill="#15284D"/>
<path d="M25.5408 15.833L22.5299 16.9621L21.9824 15.833H25.5408Z" fill="#5B7BBB"/>
<path d="M21.9826 15.833L22.53 16.9621L19.9297 17.9201L21.9826 15.833Z" fill="#D24A43"/>
<path d="M34.7786 16.1069L37.2421 19.5969L27.9014 18.7415L34.7786 16.1069Z" fill="#5B7BBB"/>
<path d="M50.1075 15.833L46.4122 17.3043L44.4277 15.833H50.1075Z" fill="#5B7BBB"/>
<path d="M19.9293 21.7524L16.9526 25.2766L13.2573 24.9002L19.9293 21.7524Z" fill="#5B7BBB"/>
<path d="M16.9526 25.2763L13.2574 29.6558L13.2231 24.8999L16.9526 25.2763Z" fill="#D24A43"/>
<path d="M50.1758 15.833L48.6703 18.9466L46.4121 17.3043L50.1074 15.833H50.1758Z" fill="#D24A43"/>
<path d="M5.93532 32.4956L5.62738 36.054L0.050293 39.0307L5.93532 32.4956Z" fill="#5B7BBB"/>
<path d="M5.62738 36.0542L5.18258 40.0574L0.050293 39.0651L5.62738 36.0542Z" fill="#D24A43"/>
<path d="M39.2268 22.813L44.4617 29.177L35.7368 28.2532L39.2268 22.813Z" fill="#5B7BBB"/>
<path d="M44.4615 29.1772L31.7334 34.4806L35.7366 28.2534L44.4615 29.1772Z" fill="#D24A43"/>
<path d="M25.5065 36.7729L13.189 41.9394V34.0015L25.5065 36.7729Z" fill="#D24A43"/>
<path d="M40.5614 39.1338L36.9688 46.4901L35.0527 41.392L40.5614 39.1338Z" fill="#5B7BBB"/>
<path d="M35.0526 41.3916L36.9686 46.4897L27.6963 44.6078L35.0526 41.3916Z" fill="#D24A43"/>
<path d="M21.7769 25.961L28.9963 23.1211L30.9808 26.919L21.7769 25.961Z" fill="#5B7BBB"/>
<path d="M21.7769 25.9604L30.9808 26.9185L22.906 30.1689L21.7769 25.9604Z" fill="#D24A43"/>
</g></symbol><symbol id="logo_rostelecom" viewBox="0 0 140 61"><g fill="none">
<path fill-rule="evenodd" clip-rule="evenodd" d="M27.8886 44.6755C23.2405 40.1792 20.9162 37.9312 20.9162 37.9312L16.3703 42.4274C15.9026 43.0441 16.0235 43.9231 16.6402 44.3907C16.8838 44.5755 17.1811 44.6755 17.4869 44.6755C17.4945 44.6755 17.5021 44.6755 17.5098 44.6755C20.9694 44.6755 24.429 44.6755 27.8886 44.6755Z" fill="#FF4F12"/>
<path fill-rule="evenodd" clip-rule="evenodd" d="M32.3847 26.6907L22.2682 16.5742L16.62 22.4578C15.9167 23.1904 15.5239 24.1667 15.5239 25.1823L15.5239 42.4274C15.5239 43.669 16.5304 44.6755 17.772 44.6755C17.0028 44.6755 16.3793 44.052 16.3793 43.2828C16.3793 42.9125 16.5267 42.5574 16.7891 42.2961" fill="#7800FF"/>
<path fill-rule="evenodd" clip-rule="evenodd" d="M104.477 34.0947H102.045L99.1388 37.0335V34.0947H97.0815V42.1926H99.1388V38.8458L102.094 42.1926H104.576L100.755 37.8498L104.477 34.0947Z" fill="#101828"/>
<path fill-rule="evenodd" clip-rule="evenodd" d="M39.1973 36.1971H36.2258V32.6053H39.1973C40.6993 32.6053 41.3851 33.3236 41.3851 34.4012C41.3851 35.4787 40.6993 36.1971 39.1973 36.1971ZM39.2626 30.6787H34.0708V42.1073H36.2258V38.1236H39.2626C41.8422 38.1236 43.5402 36.8012 43.5402 34.4012C43.5402 32.0011 41.8422 30.6787 39.2626 30.6787Z" fill="#101828"/>
<path fill-rule="evenodd" clip-rule="evenodd" d="M48.405 40.4948C47.197 40.4948 46.0703 39.6294 46.0703 38.1437C46.0703 36.658 47.197 35.7928 48.405 35.7928C49.6132 35.7928 50.7397 36.658 50.7397 38.1437C50.7397 39.6294 49.6132 40.4948 48.405 40.4948ZM48.405 33.8662C46.1847 33.8662 43.9805 35.303 43.9805 38.1437C43.9805 40.9847 46.1847 42.4213 48.405 42.4213C50.6255 42.4213 52.8296 40.9847 52.8296 38.1437C52.8296 35.303 50.6255 33.8662 48.405 33.8662Z" fill="#101828"/>
<path fill-rule="evenodd" clip-rule="evenodd" d="M58.0809 40.4948C56.8401 40.4948 55.9258 39.5968 55.9258 38.1437C55.9258 36.707 56.8727 35.7928 58.0809 35.7928C58.8157 35.7928 59.4524 36.1356 59.9585 36.903L61.7217 35.8907C61.134 34.6334 59.8604 33.8662 58.0972 33.8662C55.7952 33.8662 53.8359 35.5642 53.8359 38.1437C53.8359 40.7233 55.6973 42.4213 58.0972 42.4213C59.8278 42.4213 60.9869 41.6378 61.8034 40.25L60.1054 39.3194C59.6156 40.005 59.0931 40.4948 58.0809 40.4948Z" fill="#101828"/>
<path fill-rule="evenodd" clip-rule="evenodd" d="M79.9848 38.6825C79.8869 39.9232 79.6417 40.2009 79.2172 40.2009C78.9272 40.2009 78.7908 40.1687 78.5923 40.1167L78.6026 42.2124C78.6026 42.2124 78.8583 42.2905 79.3318 42.2905C81.0787 42.2905 81.7317 41.164 81.8951 38.7641L82.091 35.9396H84.4092V42.1763H86.4664V34.0947H80.3276L79.9848 38.6825Z" fill="#101828"/>
<path fill-rule="evenodd" clip-rule="evenodd" d="M71.8964 37.0663C72.1902 36.152 73.0065 35.4335 74.0841 35.4335C75.227 35.4335 75.9944 36.0539 76.1903 37.0663H71.8964ZM74.1495 33.8662C71.7985 33.8662 69.8882 35.5805 69.8882 38.1437C69.8882 40.707 71.7985 42.4213 74.0515 42.4213C75.8311 42.4213 76.9576 41.7519 77.7739 40.3642L76.1412 39.5479C75.6351 40.1846 75.178 40.6579 74.0841 40.6579C72.876 40.6579 71.9944 39.8744 71.8637 38.6336H78.1004V37.9152C78.1004 35.5479 76.4678 33.8662 74.1495 33.8662Z" fill="#101828"/>
<path fill-rule="evenodd" clip-rule="evenodd" d="M89.6258 37.0663C89.9197 36.152 90.736 35.4335 91.8136 35.4335C92.9564 35.4335 93.7237 36.0539 93.9198 37.0663H89.6258ZM91.879 33.8662C89.5278 33.8662 87.6177 35.5805 87.6177 38.1437C87.6177 40.707 89.5278 42.4213 91.781 42.4213C93.5605 42.4213 94.687 41.7519 95.5034 40.3642L93.8708 39.5479C93.3646 40.1846 92.9075 40.6579 91.8136 40.6579C90.6054 40.6579 89.7237 39.8744 89.5932 38.6336H95.8299V37.9152C95.8299 35.5479 94.1972 33.8662 91.879 33.8662Z" fill="#101828"/>
<path fill-rule="evenodd" clip-rule="evenodd" d="M62.4438 35.8906H64.8602V42.1926H66.9172V35.8906H69.3337V34.0947H62.4438V35.8906Z" fill="#101828"/>
<path fill-rule="evenodd" clip-rule="evenodd" d="M108.659 40.4948C107.451 40.4948 106.325 39.6294 106.325 38.1437C106.325 36.658 107.451 35.7928 108.659 35.7928C109.868 35.7928 110.994 36.658 110.994 38.1437C110.994 39.6294 109.868 40.4948 108.659 40.4948ZM108.659 33.8662C106.439 33.8662 104.235 35.3029 104.235 38.1437C104.235 40.9846 106.439 42.4213 108.659 42.4213C110.88 42.4213 113.084 40.9846 113.084 38.1437C113.084 35.3029 110.88 33.8662 108.659 33.8662Z" fill="#101828"/>
<path fill-rule="evenodd" clip-rule="evenodd" d="M121.269 34.0933L119.037 39.7646L116.804 34.0933H114.115V42.1765H116.071V37.0592L118.238 42.1765H119.835L122.003 37.0592V42.1765H123.958V34.0933H121.269Z" fill="#101828"/>
</g></symbol><symbol id="logo_yandex" viewBox="0 0 140 62"><g fill="none">
<path d="M85.9627 39.1424V36.115C84.82 36.8957 82.9056 37.5819 81.1153 37.5819C78.4292 37.5819 77.4099 36.3024 77.256 33.6809H86.1174V31.7152C86.1174 26.2537 83.7398 24.1943 80.0656 24.1943C75.5884 24.1943 73.4584 27.6581 73.4584 32.4014C73.4584 37.8629 76.1133 40.5156 80.8061 40.5156C83.1532 40.5156 84.8817 39.8911 85.9627 39.1424ZM108.934 40.5156C110.632 40.5156 111.837 40.2033 112.732 39.5476V36.521C111.805 37.1759 110.694 37.5819 109.151 37.5819C106.526 37.5819 105.445 35.5225 105.445 32.2765C105.445 28.8752 106.773 27.1273 109.181 27.1273C110.602 27.1273 111.991 27.6269 112.732 28.0945V24.9423C111.96 24.5058 110.602 24.1943 108.78 24.1943C104.087 24.1943 101.648 27.5957 101.648 32.3702C101.648 37.6131 104.025 40.5156 108.934 40.5156ZM52.3084 24.5058V30.716H47.3993V24.5066H43.7251V40.2041H47.3993V33.6504H52.3084V40.2041H55.9826V24.5058H52.3084ZM72.5625 37.2696H70.9269V24.5066H60.2114V25.8485C60.2114 29.687 59.9646 34.6489 58.668 37.2704H57.5253V43.792H60.9221V40.2033H69.1664V43.792H72.5625V37.2696ZM97.6953 40.2033H101.864L95.966 31.7464L101.153 24.5058H97.4485L92.2613 31.7464V24.5051H88.5871V40.2026H92.2613V32.4951L97.6953 40.2033ZM80.0039 27.1273C81.8253 27.1273 82.3815 28.6566 82.3815 30.6223V30.9346H77.2553C77.3475 28.438 78.2433 27.128 80.0031 27.128L80.0039 27.1273ZM67.252 37.2696H62.0648C63.0834 34.898 63.3614 30.6231 63.3614 27.9079V27.4396H67.252V37.2696Z" fill="#050505"/>
<path d="M36.9015 40.2032H40.6374V18.5142H35.2027C29.7382 18.5142 26.8662 21.3542 26.8662 25.5354C26.8662 28.8751 28.4409 30.8408 31.2512 32.8697L26.3726 40.2032H30.417L35.8517 31.9954L33.9678 30.7166C31.6831 29.1553 30.5716 27.939 30.5716 25.3176C30.5716 23.0077 32.1775 21.4479 35.2339 21.4479H36.9015V40.2032Z" fill="#FC3F1D"/>
</g></symbol></svg>