<svg width="288" height="125" viewBox="0 0 288 125" fill="none" xmlns="http://www.w3.org/2000/svg"><path fill-rule="evenodd" clip-rule="evenodd" d="M53.648 51.899H36.79c-.224 0-.337.112-.337.337v23.375c0 .224.112.337.337.337h5.732c.224 0 .337-.113.337-.337V57.518h8.877c.113 0 .225-.113.338-.225a223.701 223.701 0 002.022-4.944v-.338c-.224 0-.337-.112-.45-.112zm47.423 18.43a.241.241 0 00-.225-.225h-.337c-1.348.45-3.933 1.012-5.843 1.012-3.934 0-5.844-1.012-5.844-7.193 0-4.832.562-7.192 5.844-7.192 1.46 0 2.922.225 4.607.787.113 0 .337 0 .337-.225a82.11 82.11 0 002.36-4.607v-.337a.241.241 0 00-.225-.225c-2.247-.675-5.057-1.012-7.529-1.012-8.316 0-12.024 3.821-12.024 12.699 0 8.99 3.708 12.923 12.024 12.923 2.023 0 6.181-.45 8.204-1.236.225-.112.225-.225.225-.337.224-.112-1.574-4.832-1.574-4.832zM66.796 51.225c-8.204 0-11.463 3.483-11.463 12.698 0 9.328 3.147 12.811 11.463 12.811 8.316 0 11.575-3.596 11.575-12.81 0-9.103-3.259-12.7-11.575-12.7zm0 20.115c-3.82 0-4.945-1.011-4.945-7.304 0-6.743 1.237-7.305 4.945-7.305s5.057.562 5.057 7.305c0 6.293-1.236 7.304-5.057 7.304z" fill="#0065B1"/><path fill-rule="evenodd" clip-rule="evenodd" d="M225.249 51.899h-16.857c-.224 0-.336.112-.336.337v23.375c0 .224.112.337.336.337h5.732c.224 0 .336-.112.336-.337V57.518h8.879c.112 0 .337-.112.337-.225.674-1.573 1.348-3.259 2.023-4.944v-.338c-.338 0-.338-.112-.45-.112zm-21.351.112h-5.844c-.112 0-.338.113-.338.225-.899 3.596-2.696 9.665-5.281 15.958l-5.844-16.07c0-.113-.224-.225-.338-.225h-5.843c-.112 0-.224.112-.337.112-.112.113-.112.225 0 .337l8.766 23.825c-.899 1.798-1.798 3.258-2.472 4.832-.562 1.011-1.124 2.135-1.799 3.259-.112.112 0 .225 0 .337.112.112.225.225.338.225h6.292c.112 0 .226-.113.338-.225 1.011-2.023 2.472-4.945 3.708-7.867 3.709-8.765 6.743-16.856 8.878-24.385 0-.113 0-.225-.112-.338h-.112zM149.619 70.33a.241.241 0 00-.225-.225h-.337c-1.348.45-3.933 1.011-5.844 1.011-3.933 0-5.843-1.01-5.843-7.192 0-4.832.562-7.192 5.843-7.192 1.461 0 2.922.225 4.608.787.225 0 .337 0 .337-.225a82.52 82.52 0 002.36-4.607v-.337a.241.241 0 00-.225-.225c-2.36-.787-5.169-1.124-7.529-1.124-8.204 0-11.912 3.82-11.912 12.699 0 8.99 3.708 12.923 12.024 12.923 2.023 0 6.181-.45 8.204-1.236.225-.112.225-.225.225-.337 0-.113-1.686-4.72-1.686-4.72zm-20.79-18.318h-5.844c-.224 0-.337.113-.337.225-.899 3.596-2.697 9.665-5.281 15.958l-5.732-16.183c0-.112-.224-.224-.337-.224h-5.843c-.113 0-.225.112-.337.112-.113.112-.113.225 0 .337l8.877 23.824c-.899 1.798-1.798 3.371-2.472 4.832-.562 1.012-1.124 2.136-1.798 3.26-.112.112 0 .224 0 .337.112.112.225.224.337.224h6.293c.113 0 .225-.112.337-.224 1.012-2.023 2.473-4.945 3.709-7.867 3.708-8.765 6.742-16.857 8.878-24.386 0-.112 0-.225-.113-.337-.112.112-.225.112-.337.112zm120.806-.112h-5.731c-.225 0-.337.112-.337.337V70.33c-1.236.337-2.473.45-3.934.45-3.82 0-4.607-1.124-4.607-6.181V52.236c0-.225-.112-.337-.338-.337h-5.731c-.224 0-.336.112-.336.337v13.036c0 8.091 2.697 11.35 9.776 11.35 3.934 0 8.541-1.011 11.126-2.023.112 0 .224-.225.224-.337V52.236c.225-.225.112-.337-.112-.337zm-73.832 0h-17.419c-.224 0-.337.112-.337.337-.449 7.867-1.91 16.407-4.045 23.262v.225c.112.112.224.112.337.112h6.068c.113 0 .337-.112.337-.224 1.686-5.282 3.035-12.362 3.484-18.206h5.731v18.206c0 .224.113.337.338.337h5.731c.224 0 .337-.112.337-.337V52.236c-.225-.225-.337-.337-.562-.337z" fill="#EE3F58"/></svg>