<svg width="288" height="125" viewBox="0 0 288 125" fill="none" xmlns="http://www.w3.org/2000/svg"><path d="M160.852 69.452a.286.286 0 01-.154.032h-.726a.322.322 0 01-.152-.032c-.037-.02-.057-.07-.057-.153v-7.408h-4.314V69.3c0 .083-.016.132-.043.153-.028.02-.082.032-.154.032h-.736a.271.271 0 01-.146-.032c-.036-.02-.05-.07-.05-.153v-7.64c0-.261.065-.457.202-.583a.732.732 0 01.522-.189h5.126c.229 0 .404.063.532.189.127.126.189.322.189.583v7.64c0 .083-.013.132-.039.153zm4.346-6.542c.467 0 .867.066 1.206.196a2.1 2.1 0 01.836.558c.215.241.377.528.483.86.105.33.16.696.16 1.097 0 .196-.024.354-.074.477a.723.723 0 01-.201.29.782.782 0 01-.294.145c-.111.03-.229.044-.351.044h-3.533c0 .384.055.71.161.981.107.27.25.488.427.655.173.17.378.29.613.362.233.073.487.111.757.111s.538-.037.8-.103c.261-.07.479-.15.653-.24.097-.058.177-.038.232.062l.259.515c.055.113.033.196-.076.243-.29.18-.612.303-.949.362a5.503 5.503 0 01-.999.093 3.62 3.62 0 01-1.232-.197 2.363 2.363 0 01-.927-.6 2.645 2.645 0 01-.583-1.03c-.136-.417-.201-.916-.201-1.496 0-.539.07-1.022.214-1.442.142-.42.34-.774.594-1.06.254-.286.553-.504.897-.657.356-.153.74-.23 1.128-.226zm1.679 2.809a3.28 3.28 0 00-.075-.73 1.588 1.588 0 00-.263-.614 1.323 1.323 0 00-.516-.416 1.945 1.945 0 00-.821-.154 1.562 1.562 0 00-1.249.582 2.12 2.12 0 00-.338.607 2.763 2.763 0 00-.149.725h3.411zm7.835.538c0 .466-.059.901-.177 1.304a3.202 3.202 0 01-.528 1.07 2.397 2.397 0 01-.887.722c-.391.183-.82.274-1.252.265-.228 0-.476-.014-.741-.039a4.22 4.22 0 01-.853-.173v2.382c0 .073-.014.12-.042.142-.028.02-.076.03-.142.03h-.686a.291.291 0 01-.148-.03c-.032-.022-.046-.069-.046-.142v-8.215c0-.106.046-.176.146-.208.408-.18.828-.303 1.261-.364.41-.06.825-.09 1.239-.091.492 0 .914.085 1.276.25.36.17.655.403.888.698.233.301.406.654.522 1.062.114.41.17.855.17 1.337zm-1.116 0c0-.448-.044-.825-.134-1.134a1.87 1.87 0 00-.387-.745 1.462 1.462 0 00-.599-.409 2.287 2.287 0 00-.792-.128c-.213 0-.453.021-.725.06-.234.032-.464.09-.685.172v4.393c.311.088.578.149.803.175.225.03.433.043.619.043.279 0 .534-.043.768-.126.232-.085.438-.227.599-.414.169-.191.299-.443.395-.754.094-.308.138-.686.138-1.133zm6.821-.232c.391.13.669.34.834.63a1.906 1.906 0 01.079 1.711c-.112.229-.26.427-.448.596a1.941 1.941 0 01-.668.385 2.49 2.49 0 01-.841.136h-2.795c-.172 0-.299-.044-.388-.136a.498.498 0 01-.129-.354v-5.458a.47.47 0 01.138-.361c.088-.086.214-.13.379-.13h2.674c.572 0 1.042.13 1.409.387.368.256.552.665.552 1.22 0 .278-.07.536-.214.774a1.328 1.328 0 01-.57.526l-.012.074zm-3.286-.392h2.072c.081 0 .177-.014.288-.044a.93.93 0 00.301-.14.81.81 0 00.331-.683.755.755 0 00-.234-.56c-.156-.152-.363-.228-.626-.228h-2.132v1.655zm3.259 1.9c0-.32-.102-.576-.312-.774-.208-.194-.519-.293-.937-.293h-2.01v2.182h1.997c.262 0 .476-.037.64-.11.147-.063.279-.156.385-.276a.921.921 0 00.191-.362c.03-.13.046-.254.046-.367zm7.458 1.349c0 .164-.062.271-.184.32a4.32 4.32 0 01-1.195.33c-.408.056-.82.084-1.233.086-.533 0-.967-.055-1.306-.166a2.064 2.064 0 01-.803-.45 1.493 1.493 0 01-.411-.651 2.54 2.54 0 01-.118-.774c0-.28.047-.552.143-.818.095-.268.247-.5.46-.702.211-.2.487-.36.828-.486.337-.12.755-.183 1.244-.183h1.496v-.269a2.195 2.195 0 00-.057-.523.854.854 0 00-.214-.4 1.01 1.01 0 00-.446-.263 2.55 2.55 0 00-.742-.091 6.225 6.225 0 00-1.704.246.303.303 0 01-.161.024c-.039-.009-.07-.046-.085-.112l-.148-.525a.17.17 0 01-.006-.117c.012-.04.052-.068.118-.094.31-.129.666-.223 1.066-.275a8.59 8.59 0 011.102-.08c.818 0 1.418.183 1.792.547.375.362.564.894.564 1.587v3.84-.001zm-1.091-2.562h-1.423c-.146 0-.317.008-.508.03-.19.02-.375.074-.546.16a1.155 1.155 0 00-.436.38c-.118.167-.178.398-.178.693 0 .22.042.406.124.556a.923.923 0 00.33.358c.141.087.302.146.49.183.19.037.392.055.613.055.074 0 .169-.003.287-.005.12-.004.252-.017.393-.037.143-.022.288-.044.435-.074.149-.028.288-.066.419-.116V66.32zm7.221-3.275a.58.58 0 01.375.122c.102.083.154.21.154.38v5.775c0 .074-.021.121-.061.135a.407.407 0 01-.159.026h-.651c-.073 0-.125-.01-.153-.031-.03-.02-.043-.067-.043-.14v-2.467h-1.566c-.323 0-.594.051-.811.155-.216.101-.38.337-.493.704l-.49 1.618c-.015.066-.048.11-.093.13a.316.316 0 01-.128.032h-.722c-.068 0-.11-.011-.132-.038a.126.126 0 01-.029-.085v-.075l.564-1.753c.065-.221.161-.419.282-.594.125-.177.327-.301.613-.374-.007 0-.013-.004-.013-.014-.404-.114-.692-.319-.868-.613a1.928 1.928 0 01-.259-.992c0-.27.047-.519.141-.749.094-.229.233-.428.417-.6a1.93 1.93 0 01.668-.404c.263-.1.559-.148.895-.148h2.562zm-2.482.908c-.21 0-.388.03-.53.091a.958.958 0 00-.605.913c0 .287.091.53.269.732.18.197.496.297.952.297h1.858v-2.032l-1.944-.001zm-32.921 13.785c.214.065.388.145.527.246.14.098.256.212.349.343.094.13.169.273.229.428.055.156.109.327.157.514l.772 2.845a.206.206 0 010 .143c-.016.054-.069.078-.158.078h-.747a.42.42 0 01-.135-.021c-.05-.019-.084-.063-.098-.138l-.737-2.734a2.348 2.348 0 00-.232-.582 1.126 1.126 0 00-.774-.545 2.956 2.956 0 00-.564-.05h-1.741v3.887c0 .082-.015.133-.043.155-.028.019-.08.028-.153.028h-.711a.289.289 0 01-.146-.028c-.036-.022-.05-.073-.05-.155v-8.216c0-.082.014-.132.05-.153a.273.273 0 01.146-.03h.724a.3.3 0 01.154.03c.028.02.038.07.029.153v3.31h1.631c.131 0 .27-.012.416-.04a1.26 1.26 0 00.426-.173c.147-.1.274-.227.372-.375.114-.163.21-.38.284-.65l.55-2.121c.017-.075.047-.118.093-.135a.341.341 0 01.128-.024h.675c.099 0 .152.028.163.085.014.048.012.1-.005.148l-.538 2.194c-.09.352-.218.656-.381.915a1.73 1.73 0 01-.662.606v.062zm8.165 4c0 .161-.061.267-.182.318a4.332 4.332 0 01-1.196.33 9.21 9.21 0 01-1.232.086c-.531 0-.967-.054-1.306-.166-.341-.109-.608-.26-.804-.45a1.571 1.571 0 01-.411-.65 2.637 2.637 0 01-.116-.774c0-.28.047-.553.142-.82.094-.265.246-.498.459-.699.213-.201.488-.364.827-.486.341-.124.755-.185 1.245-.185h1.498v-.267c0-.195-.019-.37-.056-.523a.89.89 0 00-.214-.404 1.054 1.054 0 00-.447-.261 2.512 2.512 0 00-.744-.09c-.285 0-.59.023-.914.073a5.107 5.107 0 00-.79.172c-.065.022-.119.033-.161.022-.038-.006-.067-.041-.085-.107l-.146-.53a.176.176 0 01-.008-.115c.013-.037.053-.068.117-.092a4.22 4.22 0 011.067-.276c.366-.05.735-.076 1.105-.079.817 0 1.414.182 1.789.545.378.364.563.894.563 1.59v3.838zm-1.09-2.564h-1.421c-.148 0-.317.01-.51.03-.19.02-.375.073-.546.159a1.204 1.204 0 00-.436.381c-.119.167-.175.4-.175.694 0 .22.04.406.122.555.08.153.189.27.331.357.139.086.301.148.489.185.188.036.394.055.613.055.074 0 .17-.003.29-.006a3.68 3.68 0 00.393-.038c.14-.018.286-.045.434-.073.149-.028.286-.067.416-.115v-2.184zm2.663 2.294c.203-.23.354-.496.454-.798a7.94 7.94 0 00.257-1.178l.453-3.004c.024-.213.098-.364.221-.454.123-.091.303-.135.54-.135h3.028c.27 0 .439.055.504.166a.83.83 0 01.098.423v4.99l.356.026c.17.016.276.07.311.165a.492.492 0 01.043.251l-.135 2.173c0 .102-.043.158-.134.158h-.674c-.075 0-.115-.055-.123-.158l-.074-1.756h-4.634l-.122 1.792c0 .056-.016.096-.044.114a.154.154 0 01-.091.033h-.676c-.033 0-.062-.008-.08-.025-.022-.019-.035-.058-.043-.122l-.134-2.197a.454.454 0 01.059-.275c.05-.087.155-.137.321-.153l.319-.036zm4.489-4.636h-2.392l-.296 2.028c-.065.442-.12.807-.165 1.095a10.78 10.78 0 01-.134.713 2.352 2.352 0 01-.154.462 2.877 2.877 0 01-.195.338h3.336v-4.636zm7.995 4.906c0 .161-.063.267-.182.318-.372.164-.77.273-1.198.33a9.222 9.222 0 01-1.233.086c-.531 0-.967-.054-1.306-.166-.338-.109-.606-.26-.804-.45a1.555 1.555 0 01-.412-.65 2.636 2.636 0 01-.114-.774c0-.28.047-.553.14-.82.093-.265.247-.498.462-.699a2.3 2.3 0 01.827-.486c.339-.124.754-.185 1.244-.185h1.497v-.267c0-.195-.02-.37-.055-.523a.895.895 0 00-.216-.404 1.033 1.033 0 00-.448-.261 2.495 2.495 0 00-.74-.09c-.287 0-.593.023-.916.073a5.164 5.164 0 00-.791.172c-.064.022-.119.033-.158.022-.042-.006-.07-.041-.086-.107l-.147-.53a.17.17 0 01-.007-.115c.012-.037.051-.068.118-.092a4.17 4.17 0 011.065-.276 8.53 8.53 0 011.106-.079c.816 0 1.413.182 1.789.545.376.364.565.894.565 1.59v3.838zm-1.091-2.564h-1.424c-.146 0-.317.01-.511.03a1.54 1.54 0 00-.543.159 1.19 1.19 0 00-.437.381c-.118.167-.176.4-.176.694 0 .22.039.406.122.555a.9.9 0 00.331.357c.138.086.303.148.49.185.187.036.394.055.614.055.073 0 .17-.003.289-.006.118-.004.247-.017.391-.038a6.98 6.98 0 00.436-.073c.147-.028.285-.067.418-.115v-2.184zm5.125 2.367c.278 0 .549-.037.815-.111.231-.061.455-.143.671-.245.072-.041.124-.052.158-.031a.293.293 0 01.087.091l.243.52c.067.105.045.194-.06.262a3.188 3.188 0 01-1.019.352c-.348.06-.701.092-1.054.093-.9 0-1.587-.275-2.061-.827-.475-.552-.712-1.372-.712-2.459 0-.523.068-.994.203-1.416.12-.394.316-.76.577-1.08.249-.3.553-.528.913-.686a2.966 2.966 0 011.215-.239c.327 0 .64.033.938.096.298.067.585.177.866.334.111.065.137.149.071.257l-.255.501a.29.29 0 01-.082.105c-.027.02-.08.01-.154-.033a3.733 3.733 0 00-.636-.218 2.989 2.989 0 00-.736-.087 1.646 1.646 0 00-.841.203 1.713 1.713 0 00-.575.545 2.44 2.44 0 00-.332.783 3.979 3.979 0 00-.105.928c0 .328.029.633.086.918a2.1 2.1 0 00.302.753c.142.216.333.386.572.508.235.122.538.183.905.183zm5.86.753c-.031.027-.088.041-.17.041h-.602c-.08 0-.137-.014-.171-.04-.033-.03-.047-.088-.047-.18v-5.284h-1.902c-.091 0-.151-.02-.177-.056a.248.248 0 01-.045-.156v-.484c0-.076.016-.131.045-.173.026-.043.086-.064.177-.064h4.93c.097 0 .157.02.182.064a.31.31 0 01.039.173v.484c0 .065-.012.12-.039.156-.025.035-.085.056-.182.056h-1.987v5.284c0 .092-.018.15-.051.18zm8.687-3.182c0 .467-.062.9-.181 1.304a3.259 3.259 0 01-.525 1.068 2.48 2.48 0 01-.89.724c-.36.177-.778.264-1.252.264-.228 0-.476-.014-.742-.037a4.516 4.516 0 01-.85-.175v2.382c0 .072-.014.121-.043.14-.028.022-.077.033-.143.033h-.685a.265.265 0 01-.146-.033c-.034-.019-.053-.068-.053-.14v-8.216c0-.105.053-.174.147-.207a4.84 4.84 0 011.264-.363c.411-.06.825-.09 1.241-.091.489 0 .914.084 1.274.252.359.168.656.4.891.7.231.295.405.65.52 1.057.113.41.173.855.173 1.338zm-1.118 0c0-.45-.045-.828-.135-1.135a1.87 1.87 0 00-.384-.742 1.495 1.495 0 00-.603-.411 2.32 2.32 0 00-.792-.128c-.212 0-.453.019-.724.061a3.31 3.31 0 00-.684.17v4.394a4.795 4.795 0 001.42.22c.279-.001.533-.044.766-.128.232-.085.44-.228.602-.415a2.02 2.02 0 00.394-.752c.094-.308.14-.687.14-1.134zm7.935-.024c0 1.097-.248 1.934-.741 2.514-.494.58-1.209.87-2.147.87-.926 0-1.624-.28-2.106-.846-.482-.564-.722-1.398-.722-2.501 0-.54.072-1.018.215-1.435a3.03 3.03 0 01.599-1.055 2.54 2.54 0 01.912-.65 2.92 2.92 0 011.139-.22c.928 0 1.635.294 2.122.883.485.587.729 1.4.729 2.44zm-1.068.037c0-.318-.026-.627-.074-.927a2.28 2.28 0 00-.27-.785 1.547 1.547 0 00-.538-.545c-.229-.14-.525-.209-.883-.209-.31 0-.58.065-.812.198a1.649 1.649 0 00-.563.526 2.434 2.434 0 00-.332.774 3.9 3.9 0 00-.109.93c0 .37.029.705.087 1.013.046.278.146.544.294.785.137.218.32.386.545.509.226.122.509.183.852.183.344 0 .631-.069.866-.207.233-.139.418-.324.556-.552a2.26 2.26 0 00.295-.786c.057-.294.086-.596.086-.907zm6.782-.246c.392.13.67.342.832.632.165.29.248.603.248.937 0 .286-.058.543-.166.773a1.888 1.888 0 01-1.116.981 2.531 2.531 0 01-.842.133h-2.795c-.17 0-.3-.043-.385-.132a.49.49 0 01-.13-.357v-5.459c0-.152.044-.275.136-.361a.53.53 0 01.379-.128h2.674c.574 0 1.042.128 1.411.387.366.257.552.665.552 1.221 0 .277-.075.534-.215.774-.136.227-.335.41-.573.525l-.01.074zm-3.288-.393h2.074a1.134 1.134 0 00.588-.182.797.797 0 00.329-.683.753.753 0 00-.231-.56c-.155-.155-.363-.229-.625-.229h-2.135v1.654zm3.264 1.9c0-.32-.105-.576-.313-.773-.209-.195-.523-.294-.938-.294h-2.013v2.184h2c.262 0 .474-.036.637-.11a1.16 1.16 0 00.388-.276.906.906 0 00.188-.362c.033-.131.051-.255.051-.37zm7.456 1.352c0 .161-.061.267-.183.318a4.376 4.376 0 01-1.198.33 9.18 9.18 0 01-1.231.086c-.532 0-.967-.054-1.307-.166-.339-.109-.606-.26-.803-.45a1.492 1.492 0 01-.409-.65 2.516 2.516 0 01.022-1.595c.096-.266.255-.505.462-.698a2.31 2.31 0 01.827-.486c.338-.124.753-.185 1.244-.185h1.496v-.267c0-.195-.017-.37-.056-.523a.89.89 0 00-.214-.404 1.037 1.037 0 00-.446-.261 2.51 2.51 0 00-.742-.09 5.98 5.98 0 00-.915.073 5.034 5.034 0 00-.79.172c-.067.022-.12.033-.161.022-.041-.006-.069-.041-.085-.107l-.148-.53a.164.164 0 01-.005-.115c.012-.037.048-.068.117-.092.31-.13.667-.222 1.067-.276a8.5 8.5 0 011.104-.079c.816 0 1.415.182 1.79.545.375.364.564.894.564 1.59v3.838zm-1.092-2.564h-1.423c-.147 0-.317.01-.507.03a1.545 1.545 0 00-.548.159 1.16 1.16 0 00-.433.381c-.12.167-.181.4-.181.694 0 .22.043.406.126.555a.94.94 0 00.33.357c.137.086.302.148.491.185.187.036.391.055.612.055.074 0 .171-.003.289-.006.117-.004.248-.017.391-.038a7.01 7.01 0 00.437-.073c.146-.028.287-.067.416-.115v-2.184zm7.224-3.276c.146 0 .271.04.372.123.104.082.155.208.155.38v5.775c0 .075-.021.12-.061.137a.452.452 0 01-.16.022h-.65a.31.31 0 01-.154-.028c-.028-.022-.041-.069-.041-.142V79.7h-1.563c-.327 0-.597.05-.815.154-.214.102-.38.338-.494.706l-.491 1.617c-.017.067-.045.11-.092.131a.328.328 0 01-.127.028h-.724c-.066 0-.108-.01-.129-.035a.14.14 0 01-.03-.087v-.074l.564-1.754c.066-.218.159-.418.282-.594.122-.174.327-.3.613-.373-.009 0-.012-.004-.012-.013-.406-.114-.695-.318-.868-.613a1.918 1.918 0 01-.261-.994c0-.27.048-.518.138-.749.097-.225.237-.428.42-.6.183-.17.408-.305.669-.404.26-.098.561-.147.894-.147h2.565zm-2.481.908c-.213 0-.389.03-.535.092a.98.98 0 00-.345.24.851.851 0 00-.196.324c-.041.112-.062.23-.062.35 0 .285.089.53.27.729.179.2.498.3.951.3h1.859v-2.034h-1.942zm-67.784 18.357c-.028.02-.079.027-.152.027h-.662a.315.315 0 01-.154-.027c-.038-.023-.056-.073-.056-.154v-6.073c0-.079.018-.13.056-.152a.312.312 0 01.153-.032h.661c.075 0 .125.011.153.03.029.023.044.075.044.154v2.38h1.053c.122 0 .241-.01.356-.029a.934.934 0 00.325-.13 1.21 1.21 0 00.284-.269c.083-.117.156-.266.212-.454l.48-1.533c.014-.066.041-.106.08-.123a.269.269 0 01.117-.026h.673c.065 0 .106.022.123.067a.264.264 0 01.012.13l-.465 1.608a2.474 2.474 0 01-.284.69c-.122.2-.294.352-.512.45l-.014.024c.318.098.544.245.676.447.129.2.236.431.319.693l.621 2.122c.01.044.01.09 0 .135-.007.05-.054.072-.145.072h-.723a.372.372 0 01-.112-.018c-.039-.01-.067-.05-.084-.114l-.601-2.025c-.09-.31-.253-.532-.48-.662a1.428 1.428 0 00-.723-.195h-1.188v2.833c0 .08-.014.13-.043.154zm10.687-3.222c0 1.096-.245 1.935-.739 2.513-.494.582-1.21.872-2.147.872-.924 0-1.625-.281-2.104-.846-.483-.565-.722-1.398-.722-2.503 0-.538.071-1.017.214-1.435.126-.389.33-.748.599-1.055.252-.28.563-.503.91-.65a2.94 2.94 0 011.139-.218c.928 0 1.638.295 2.123.88.485.59.727 1.404.727 2.442zm-1.066.036c0-.31-.025-.619-.075-.924a2.254 2.254 0 00-.268-.785 1.54 1.54 0 00-.54-.545c-.229-.141-.523-.21-.884-.21-.31 0-.58.066-.809.195a1.66 1.66 0 00-.562.528 2.459 2.459 0 00-.331.774 3.7 3.7 0 00-.113.931c0 .367.029.705.086 1.012.059.305.156.568.294.785.139.217.321.387.547.51.224.122.51.182.853.182.344 0 .63-.069.866-.207.228-.135.418-.325.555-.552.141-.229.237-.49.295-.787.058-.293.086-.595.086-.907zm3.457-1.444v4.476c0 .08-.011.13-.042.154-.028.02-.079.027-.153.027h-.639a.289.289 0 01-.146-.027c-.033-.023-.05-.073-.05-.154v-5.803c0-.114.037-.218.112-.313.072-.093.205-.14.39-.14h.382c.139 0 .251.021.333.066.079.047.157.146.231.303l1.288 2.66c.009.033.048.126.122.281.073.156.151.327.234.51.081.185.159.354.232.51.076.155.119.245.135.269h.037c.015-.043.069-.155.153-.336l.278-.596c.097-.213.188-.411.276-.593.084-.188.138-.297.163-.338.018-.033.054-.113.111-.235.056-.12.127-.265.209-.43.08-.162.163-.337.251-.525.084-.187.169-.364.249-.527.11-.216.218-.432.323-.65a.813.813 0 01.231-.294.61.61 0 01.332-.076h.38c.187 0 .317.052.387.149a.53.53 0 01.102.305v5.803c0 .08-.012.13-.04.154-.03.02-.081.027-.154.027h-.637a.296.296 0 01-.149-.027c-.033-.023-.049-.073-.049-.154v-4.575h-.048l-.615 1.324c-.017.024-.066.129-.154.313a113.481 113.481 0 01-.655 1.39c-.123.255-.22.46-.293.615a.783.783 0 01-.204.289c-.067.052-.177.08-.324.08h-.282a.588.588 0 01-.333-.08.78.78 0 01-.207-.29c-.032-.065-.101-.204-.201-.416a46.12 46.12 0 00-.658-1.363l-.209-.416c-.007-.017-.044-.093-.109-.227-.064-.135-.137-.281-.216-.441a18.253 18.253 0 01-.207-.447c-.06-.14-.096-.216-.104-.234l-.063.002zm8.525 4.63a.287.287 0 01-.146.027h-.677a.285.285 0 01-.146-.027c-.031-.023-.05-.073-.05-.154v-5.755a.66.66 0 01.111-.316c.073-.124.21-.186.405-.186h4.404c.194 0 .33.062.406.186a.67.67 0 01.107.316v5.755c0 .08-.012.13-.043.154-.027.02-.078.027-.151.027h-.677a.29.29 0 01-.147-.027c-.032-.023-.049-.073-.049-.154v-5.325h-3.299v5.325c0 .08-.016.13-.048.154zm11.012-.574c0 .165-.06.27-.184.319a4.271 4.271 0 01-1.196.33 9.409 9.409 0 01-1.233.088c-.529 0-.966-.053-1.305-.167-.34-.11-.606-.26-.802-.449a1.532 1.532 0 01-.412-.65 2.604 2.604 0 01-.117-.775c0-.279.047-.551.142-.82.093-.267.251-.508.46-.7.212-.2.488-.364.826-.486.341-.123.756-.184 1.246-.184h1.496v-.27c0-.192-.019-.367-.055-.52a.892.892 0 00-.214-.404 1.034 1.034 0 00-.448-.261 2.562 2.562 0 00-.744-.09c-.283 0-.59.024-.912.072a5.298 5.298 0 00-.791.172.297.297 0 01-.16.025c-.04-.007-.069-.044-.084-.11l-.147-.527a.177.177 0 01-.008-.118c.012-.036.051-.065.118-.09.31-.132.666-.224 1.066-.276a8.346 8.346 0 011.106-.08c.814 0 1.412.182 1.788.545.377.363.564.894.564 1.589v3.837zm-1.093-2.564h-1.42a4.82 4.82 0 00-.51.033 1.57 1.57 0 00-.544.158 1.17 1.17 0 00-.436.381c-.12.168-.177.4-.177.693 0 .22.04.407.121.558a.944.944 0 00.332.356c.138.086.303.148.489.183.189.039.394.057.614.057.074 0 .17-.004.288-.009.119-.003.25-.014.392-.036.142-.02.288-.043.438-.074.14-.026.279-.065.413-.116v-2.183m3.713 3.124c-.036.027-.095.04-.176.04h-.596a.329.329 0 01-.181-.04c-.039-.03-.059-.089-.059-.18v-6.01c0-.089.02-.146.059-.172a.397.397 0 01.181-.036h.596a.349.349 0 01.176.036c.037.026.052.083.052.172v2.32h3.179v-2.32c0-.089.018-.146.057-.172a.348.348 0 01.178-.036h.608c.09 0 .151.014.179.036.029.026.043.083.043.172v6.01c0 .091-.014.15-.043.18-.028.027-.089.04-.179.04h-.608c-.083 0-.143-.013-.178-.04-.039-.03-.057-.089-.057-.18v-2.785h-3.179v2.786c0 .09-.015.149-.052.178zm5.903-6.214c0-.079.014-.133.05-.158.032-.026.083-.035.149-.035h.669c.074 0 .125.01.155.035.029.025.045.079.045.158v4.735h.047c.197-.31.374-.596.535-.853.157-.258.338-.534.544-.829l1.845-2.856c.06-.111.138-.21.231-.295.076-.054.193-.086.356-.086h.318a.514.514 0 01.348.124c.096.08.142.203.142.368v5.776c0 .074-.017.12-.043.143-.03.02-.082.027-.154.027h-.675a.286.286 0 01-.147-.027c-.033-.023-.049-.07-.049-.142v-4.688h-.073a9.26 9.26 0 00-.262.414c-.08.126-.158.251-.235.379l-.239.387c-.082.13-.173.269-.27.417l-1.911 2.892a.942.942 0 01-.265.291.65.65 0 01-.339.077h-.281a.516.516 0 01-.357-.116c-.089-.076-.134-.198-.134-.362v-5.776zm11.576-.184a.59.59 0 01.376.124c.102.08.151.208.151.378v5.778c0 .073-.02.118-.06.136a.477.477 0 01-.159.022h-.649c-.072 0-.126-.007-.155-.027-.026-.023-.042-.07-.042-.142v-2.467h-1.564c-.326 0-.595.054-.811.153-.217.104-.384.338-.494.707l-.49 1.618a.189.189 0 01-.032.075.208.208 0 01-.06.056.312.312 0 01-.132.027h-.722c-.062 0-.109-.01-.128-.036a.12.12 0 01-.032-.086v-.072l.564-1.755c.066-.22.16-.42.283-.595.123-.175.328-.3.614-.375-.008 0-.013 0-.013-.01-.405-.115-.696-.32-.868-.613a1.91 1.91 0 01-.262-.994c0-.27.047-.52.144-.747.092-.23.234-.437.417-.604.184-.171.406-.305.666-.402.262-.099.561-.149.897-.149h2.561zm-2.48.907c-.213 0-.39.033-.531.093a.952.952 0 00-.544.564c-.04.112-.06.23-.061.349 0 .286.089.53.268.731.18.2.496.3.954.3h1.856V89.66h-1.942z" fill="#231F20"/><path d="M64.597 88.704h10.335c2.151 0 2.612-1.244 2.612-2.285V38.364s-8.585 1.17-12.2 1.817c-3.618.647-4.16-4.142-4.16-4.142s15.076-5.612 17.98-5.612h6.221v55.785c0 1.526.577 2.492 2.795 2.492h3.445c2.3 0 2.3 6 2.3 6H62.09s-.625-6 2.507-6z" fill="#0AAFDE"/><path d="M115.005 87.678c.872 1.241 2.604 1.605 5.233 1.348 3.649-.358 4.002 4.984 4.002 4.984-1.257.51-2.453.81-3.962 1.067-1.506.254-2.795.382-3.862.382-1.572.062-2.938-.172-4.098-.708-1.163-.534-2.214-1.458-3.156-2.777 0 0-18.386-28.594-18.956-29.241-.807-.92-.542-2.544.093-3.39l19.244-25.69c1.068-1.57 2.135-2.653 3.205-3.25 1.066-.597 2.291-.863 3.673-.802 2.701 0 5.307.638 7.82 1.911 0 0-.387 5.113-3.223 5.014-3.336-.113-5.046.07-6.012 1.32-.963 1.248-16.075 20.731-16.68 21.543-.604.815-.534 1.824-.021 2.595.509.769 15.831 24.458 16.701 25.696l-.001-.002z" fill="#0AAFDE"/><path d="M136.275 87.678c.872 1.241 2.602 1.605 5.233 1.348 3.648-.358 4.001 4.984 4.001 4.984-1.257.51-2.453.81-3.961 1.067-1.508.254-2.795.382-3.863.382-1.573.062-2.938-.172-4.099-.708-1.164-.534-2.213-1.458-3.157-2.777 0 0-18.386-28.594-18.954-29.241-.806-.92-.541-2.544.093-3.39l19.243-25.69c1.068-1.57 2.135-2.653 3.203-3.25s2.291-.863 3.676-.802c2.699 0 5.306.638 7.819 1.911 0 0-.388 5.113-3.223 5.014-3.336-.113-5.047.07-6.011 1.32-.964 1.248-16.075 20.731-16.68 21.543-.603.815-.534 1.824-.024 2.595.511.769 15.833 24.457 16.704 25.694z" fill="#0AAFDE"/></svg>