<svg width="288" height="125" viewBox="0 0 288 125" fill="none" xmlns="http://www.w3.org/2000/svg"><path fill-rule="evenodd" clip-rule="evenodd" d="M89.681 46.607l.591-2.317H39.897a4.803 4.803 0 00-4.666 3.64l-2.152 8.646c-.15.595.452 1.095 1.015.85 14.963-6.579 34.074-10.03 54.678-10.113.43 0 .803-.289.909-.706zm-38.75 33.748a.487.487 0 01-.445-.678c6.723-15.52 21.775-22.978 36.855-23.695l-.674 2.684a.925.925 0 01-.72.678C74.19 61.739 66.52 69.764 63.52 79.782a.793.793 0 01-.759.573h-11.83zm20.782-.556c1.338-8.502 6.98-15.31 14.12-17.777l-3.779 15.104a4.274 4.274 0 01-4.148 3.229h-5.714a.486.486 0 01-.48-.556zm-43.628-3.245l1.867-7.519a2.964 2.964 0 011.076-1.64c14.696-11.124 33.01-17.059 57.8-17.331l-.618 2.511a.928.928 0 01-.864.7C63.97 54.344 48.433 64.44 40.918 79.75a1.06 1.06 0 01-.953.6h-8.898c-1.996 0-3.462-1.867-2.982-3.795z" fill="#ED7239"/><path d="M99.94 75.336c.451 0 .613.05.736.195.206.239.289.589-.118 2.206s-.657 1.967-.992 2.206c-.195.145-.373.195-.825.195h-1.377c-.452 0-.619-.05-.742-.195-.206-.239-.284-.589.123-2.206s.652-1.967.981-2.206c.195-.145.38-.195.831-.195h1.383zM97.286 79.4c.039.05.09.077.323.077h1.21c.234.006.296-.028.362-.077.095-.067.24-.284.591-1.668.346-1.383.301-1.594.24-1.667-.039-.05-.09-.077-.323-.077h-1.21c-.234 0-.295.027-.362.077-.09.067-.24.284-.586 1.668-.345 1.383-.3 1.6-.245 1.667zm7.314.538c-.196.144-.374.194-.826.194h-1.332c-.451 0-.619-.05-.741-.194-.207-.24-.285-.59.122-2.206.407-1.617.653-1.968.981-2.206.196-.145.38-.195.831-.195h1.333c.451 0 .613.05.735.195.207.239.257.555.062 1.383h-.77c.129-.606.112-.772.051-.844-.039-.05-.09-.078-.324-.078h-1.17c-.235 0-.296.028-.363.078-.089.066-.24.283-.585 1.667-.351 1.383-.301 1.594-.245 1.667.039.05.089.078.323.078h1.171c.234.005.295-.028.362-.078.095-.067.195-.206.39-.917h.775c-.273.95-.452 1.217-.78 1.456zm3.059.194h-.853l.925-1.456-1.17-3.34h.802l.87 2.601.039-.028 1.639-2.573h.887l-3.139 4.796zm11.385-1.35h-1.829l-.758 1.35h-.764l2.682-4.629c.089-.155.139-.183.323-.183h.669c.173 0 .212.028.229.183l.373 4.63h-.83l-.095-1.351zm-1.466-.645h1.421l-.122-2.15h-.106l-1.193 2.15zm7.035.05c-.184.14-.435.178-.786.178h-1.628l-.44 1.767h-.77l1.199-4.796h2.397c.351 0 .585.04.703.178.156.184.267.495.05 1.356-.207.822-.474 1.128-.725 1.317zm-.808-.483c.239 0 .329-.022.384-.061.09-.061.229-.217.374-.795.145-.584.089-.733.028-.795-.039-.039-.117-.06-.357-.06h-1.438l-.424 1.71h1.433zm5.133 2.234c-.195.144-.373.194-.825.194h-1.332c-.452 0-.619-.05-.741-.194-.207-.24-.285-.59.122-2.206.407-1.617.652-1.968.981-2.206.196-.145.38-.195.831-.195h1.332c.452 0 .614.05.736.195.207.239.257.555.062 1.383h-.77c.129-.606.112-.772.051-.844-.04-.05-.09-.078-.324-.078h-1.171c-.234 0-.295.028-.362.078-.089.066-.24.283-.585 1.667-.351 1.383-.301 1.594-.246 1.667.039.05.09.078.324.078h1.17c.235.005.296-.028.363-.078.095-.067.195-.206.39-.917h.775c-.273.95-.452 1.217-.781 1.456zm4.406-3.946l-1.032 4.14h-.769l1.031-4.14h-1.511l.168-.656h3.796l-.167.656h-1.516zm-39.024.001l-1.032 4.14h-.77l1.032-4.14.156-.656h3.11l-.166.656h-2.33zm41.632-.657h2.509c.351 0 .585.056.708.2.156.184.184.423.011 1.123-.167.667-.463.861-.954.978v.011c.53.09.669.345.491 1.078-.201.79-.374 1.006-.619 1.195-.184.144-.479.211-.819.211h-2.52l1.193-4.796zm2.04 2.684c-.028-.038-.083-.055-.306-.055h-1.623l-.379 1.506h1.623c.211 0 .295-.006.351-.056.067-.055.15-.166.284-.683.134-.54.1-.65.05-.712zm-.184-.7c.212 0 .285-.01.346-.055.084-.061.15-.173.262-.617.111-.44.1-.54.05-.606-.028-.039-.1-.055-.323-.055h-1.583l-.329 1.328h1.577v.005zm5.146 2.812h-3.284l1.199-4.796h3.284l-.168.656h-2.514l-.329 1.323h2.085l-.167.655h-2.085l-.379 1.5h2.514l-.156.662zm5.08 0h-.769l.535-2.156h-2.297l-.535 2.156h-.769l1.198-4.796h.77l-.496 1.979h2.296l.497-1.979h.769l-1.199 4.796zm5.302 0h-.769l.535-2.156h-2.297l-.535 2.156h-.77l1.199-4.796h.769l-.496 1.979h2.297l.496-1.979h.77l-1.199 4.796zm4.246-1.35h-1.828l-.758 1.35h-.764l2.682-4.629c.089-.155.139-.183.323-.183h.669c.173 0 .212.028.228.183l.374 4.63h-.831l-.095-1.351zm-1.466-.645h1.422l-.123-2.15h-.1l-1.199 2.15zm15.917-2.801l-2.42 2.262 1.266 2.534h-.915l-1.043-2.156h-.434l-.536 2.156h-.768l1.199-4.796h.769l-.497 1.979h.413l2.073-1.979h.893zm3.278 0c.452 0 .614.05.737.195.206.239.29.589-.118 2.206-.407 1.617-.658 1.967-.992 2.206-.195.145-.374.195-.825.195h-1.377c-.452 0-.619-.05-.742-.195-.206-.239-.284-.589.123-2.206s.653-1.967.982-2.206c.194-.145.379-.195.83-.195h1.382zm-2.653 4.063c.039.05.089.077.324.077h1.21c.233.006.295-.028.361-.077.095-.067.24-.284.591-1.668.347-1.383.301-1.594.24-1.667-.039-.05-.089-.077-.324-.077h-1.21c-.233 0-.295.027-.361.077-.089.067-.24.284-.586 1.668-.352 1.383-.3 1.6-.245 1.667zm9.002.733h-.785l1.014-4.079h-.101l-2.089 3.862c-.096.178-.128.211-.319.211h-.496c-.183 0-.212-.033-.217-.21l-.139-3.935h-.107l-1.019 4.151h-.748l1.199-4.796h1.198c.196 0 .24.061.24.24l.089 3.556h.1l1.858-3.556c.094-.178.167-.24.356-.24h1.171l-1.205 4.796zm5.28 0h-.769l1.031-4.14h-2.296l-1.032 4.14h-.769l1.198-4.796h3.836l-1.199 4.796zm4.187-1.35h-1.829l-.758 1.35h-.764l2.682-4.629c.089-.155.139-.183.324-.183h.669c.172 0 .212.028.228.183l.373 4.63h-.831l-.094-1.351zm-1.466-.645h1.422l-.123-2.15h-.1l-1.199 2.15zm7.003 1.995h-.769l.535-2.156h-2.297l-.536 2.156h-.768l1.197-4.796h.771l-.497 1.979h2.297l.495-1.979h.771l-1.199 4.796zm2.675-4.796h.747l-.891 3.618h.105l2.609-3.39c.128-.183.211-.228.407-.228h.852l-1.197 4.796h-.748l.954-3.784h-.101l-2.732 3.556c-.128.184-.217.228-.412.228h-.786l1.193-4.796zm5.105 3.474c-.149.55-.306 1.128-.416 1.322h-.771c.095-.261.212-.672.418-1.345.185-.61.385-.839.96-.916l.005-.012c-.507-.127-.674-.472-.496-1.155.19-.717.418-.984.692-1.167.206-.134.518-.2.836-.2h2.397l-1.199 4.795h-.769l.491-1.978h-1.333c-.535 0-.713.272-.815.656zm2.315-1.29l.379-1.528h-1.4c-.468 0-.674.184-.83.756-.134.489-.028.772.401.772h1.45zm-46.449 1.29c-.151.55-.307 1.128-.419 1.322h-.769c.095-.261.212-.672.418-1.345.184-.61.385-.839.959-.916l.006-.012c-.508-.127-.675-.472-.497-1.155.19-.717.419-.984.692-1.167.206-.134.518-.2.836-.2h2.398l-1.2 4.795h-.768l.489-1.978h-1.332c-.535 0-.713.272-.813.656zm2.312-1.29l.379-1.528h-1.398c-.469 0-.675.184-.831.756-.134.489-.028.772.402.772h1.448z" fill="#373736"/><path fill-rule="evenodd" clip-rule="evenodd" d="M115.075 75.336h.323l-1.037 4.14h.552l-.307 1.234h-.769l.145-.578h-3.335l-.144.578h-.769l.306-1.234h.288c.4-.246.844-.828 1.117-1.683.285-.895.764-2.457.764-2.457h2.866zm-2.838 2.384c-.262.806-.624 1.379-.937 1.75h2.297l.87-3.478h-1.689c-.14.456-.335 1.09-.541 1.728z" fill="#373736"/><path d="M125.651 44.39h13.363c1.934 0 3.166.334 3.796 1.128.769.995.965 2.523.301 5.118-.831 3.323-2.397 4.685-5.001 5.28l-.033.066c2.564.533 3.501 1.595 2.564 5.279-.763 3.056-1.7 4.184-2.932 5.146-1.098.828-2.598 1.228-4.432 1.228h-13.43l5.804-23.245zm9.795 13.754c-.201-.2-.469-.3-1.333-.3h-6.327l-1.411 5.612h6.278c.83 0 1.165-.033 1.466-.267.334-.266.669-.533 1.131-2.456.497-1.995.396-2.295.196-2.59zm-.53-4.124c.864 0 1.132-.033 1.399-.233.368-.3.731-.961 1.132-2.556.368-1.528.301-2.162.1-2.423-.167-.167-.435-.267-1.332-.267h-6.138l-1.327 5.48h6.166zm23.342-5.312l-4.733 18.932h-5.43l4.733-18.932h-7.097l1.065-4.318h19.273l-1.066 4.318h-6.745zm23.531-4.318c2.297 0 3.3.334 3.93 1.128.999 1.228 1.433 3.357-.334 10.497-1.801 7.108-3.301 9.236-4.934 10.497-1.031.795-2.163 1.128-4.465 1.128h-7.225c-2.297 0-3.301-.333-3.931-1.128-1.032-1.261-1.466-3.39.335-10.497 1.767-7.14 3.267-9.269 4.934-10.497 1.031-.794 2.168-1.128 4.465-1.128h7.225zm-12.097 18.633c.201.2.468.3 1.532.3h4.433c1.064.033 1.398-.1 1.667-.3.368-.3 1.03-1.128 2.497-7.008 1.466-5.912 1.233-6.74.998-7.007-.167-.233-.434-.334-1.5-.334h-4.431c-1.066 0-1.4.1-1.701.334-.368.267-.998 1.095-2.465 7.007-1.493 5.913-1.265 6.707-1.03 7.008zm62.294-18.633c2.296 0 3.3.334 3.93 1.128.998 1.228 1.434 3.357-.335 10.497-1.801 7.108-3.299 9.236-4.927 10.497-1.032.795-2.169 1.128-4.467 1.128h-7.23c-2.297 0-3.3-.333-3.93-1.128-1.031-1.261-1.467-3.39.334-10.497 1.767-7.14 3.267-9.269 4.929-10.497 1.031-.794 2.168-1.128 4.465-1.128h7.231zm-12.098 18.633c.201.2.468.3 1.534.3h4.431c1.066.033 1.4-.1 1.667-.3.368-.3 1.032-1.128 2.498-7.008 1.467-5.912 1.232-6.74.998-7.007-.167-.233-.435-.334-1.499-.334h-4.433c-1.064 0-1.399.1-1.7.334-.368.267-.998 1.095-2.464 7.007-1.495 5.913-1.265 6.707-1.032 7.008zm35.841-4.251c-.965.7-2.296.961-4.198.961h-7.119l-1.967 7.902h-5.431l5.798-23.25h12.55c1.9 0 3.098.233 3.728.928.831.961 1.4 2.456.302 6.774-1.032 4.228-2.398 5.757-3.663 6.685zm-5.262-3.29c1.231 0 1.6-.067 1.9-.267.436-.333.899-.928 1.467-3.19.569-2.256.368-2.822.101-3.122-.168-.2-.536-.3-1.769-.3h-4.983l-1.7 6.873h4.984v.006zM109.188 44.39c-6.283 0-7.989 1.079-9.74 7.886-1.694 6.58-3.952 15.365-3.952 15.365h5.525s1.054-4.118 2.135-8.358h8.39l-2.085 8.358h5.514l5.803-23.25h-11.59zm-4.989 10.81a1243.59 1243.59 0 011.265-4.918c.44-1.673 1.712-1.745 2.827-1.745h6.065l-1.795 6.663h-8.362z" fill="#373736"/><path fill-rule="evenodd" clip-rule="evenodd" d="M189.562 67.64l-.853 3.034h-4.906l1.812-7.318h.811c.321-.025.577-.095.823-.219 3.339-2.684 4.365-6.062 5.479-9.728l.19-.622.307-1.01c.414-1.363.877-2.89 1.499-4.703.564-1.634.943-2.684 3.473-2.684h15.019l-4.728 18.966h2.482l-1.863 7.318h-4.765l.685-3.034h-15.465zm9.067-17.046c-.277.87-.625 1.963-1.156 3.737-1.194 3.985-2.37 7.197-4.281 9.02h9.838l3.646-14.82h-6.488c-.681 0-1.026.366-1.188.888-.115.375-.235.748-.371 1.175z" fill="#373736"/></svg>