<svg width="288" height="125" viewBox="0 0 288 125" fill="none" xmlns="http://www.w3.org/2000/svg"><path d="M85.549 83.182c11.573 0 20.955-9.43 20.955-21.06 0-11.63-9.38-21.059-20.953-21.059-11.574 0-20.957 9.43-20.957 21.06 0 11.63 9.382 21.059 20.955 21.059z" fill="#DB001B"/><path d="M89.82 70.902c.065-.263.065-.593.032-.891a2.744 2.744 0 00-.262-.923 1.869 1.869 0 00-.263-.43 3.113 3.113 0 00-.657-.66 3.018 3.018 0 00-2.398-.495 2.994 2.994 0 00-.755.296.715.715 0 00-.262.165 2.629 2.629 0 00-.692.66c-.36.495-.59 1.088-.557 1.783.066.66.262 1.222.69 1.75.56.693 1.314 1.088 2.167 1.123h.262a2.962 2.962 0 001.579-.561c.559-.43.984-1.09 1.116-1.817zm7.785-1.915a2.372 2.372 0 00-.788-.461 3.279 3.279 0 00-1.577-.165.616.616 0 00-.262.065 2.242 2.242 0 00-1.217.991 2.72 2.72 0 00-.328 1.75 2.48 2.48 0 001.019 1.616c.229.165.46.264.722.364.081.041.17.064.262.066.035 0 .066 0 .066.032.033 0 .067 0 .098.035h.657a2.301 2.301 0 001.577-.86c.197-.23.361-.461.461-.758.063-.17.107-.348.131-.528a2.196 2.196 0 00-.821-2.147zM67.91 63.772c3.777-.032 4.27 3.566 4.04 5.05-.361.199-.723.529-1.018.925-.034.264.13.562.328.825.131-.033.263-.033.395-.067.296-.064.624-.164.92-.263.657-.165 1.412-.33 2.069-.165.362.099.689.23.986.397 1.017.428 1.805 1.485 2.167 2.343.098.198.197.363.297.561.13.264.162.495.196.725.13.067.328.035.361 0 .098-.065.165-.131.196-.593.1-1.188-1.083-5.612-5.025-5.084.198-2.178.034-4.554-1.773-6.206-1.413-1.32-4.303-2.51-7.456-.858 0 .299-.033.595-.033.892 0 1.154.097 2.278.262 3.367.854-1.19 2.004-1.85 3.088-1.85zm12.942 6.47c.755.792.657-1.188.69-2.74.032-1.352.295-3.465.427-4.192.328-1.783 1.345-2.343 2.693-2.541 2.988-.463 6.274-.067 8.738-.793.263-.065.327-.23.13-.364-.656-.394-2.036-.693-2.627-.79-2.924-.56-5.42-.53-8.739-.264-1.379.131-2.003.725-2.2 1.386-.886 2.97-.36 6.667-.229 7.722.229 1.058.657 2.048 1.117 2.576zm19.971-2.443c.164 1.057.196 3.103.393 3.268.165.132.427-.033.591-.363.856-1.716.921-3.564.788-3.994-.064-.297-.229-.924-1.312-1.287-1.019-.33-2.037-.561-3.417-.925-.198-.065-.525-.131-.755-.428-.722-.86-1.643-2.84-2.103-2.84-.164 0-.197.099-.229.364-.133 1.353.427 3.136.722 3.63 1.183 1.849 5.058.826 5.322 2.575z" fill="#fff"/><path fill-rule="evenodd" clip-rule="evenodd" d="M165.242 57.977c0-5.905-3.293-9.533-8.854-9.533-2.3 0-3.962.836-5.304 2.022v-1.764h-5.658v36.235h5.656V71.424c1.087 1.284 2.908 2.632 5.306 2.632 6.074 0 8.854-4.3 8.854-9.69v-6.389zm-14.191-.096c.033-2.408 1.566-4.526 4.315-4.526v-.002c3.004 0 4.282 1.702 4.25 4.654v6.455c0 4.075-2.429 4.685-4.25 4.685-2.812 0-4.315-2.183-4.315-4.685V57.88zm28.063-9.437h.991c6.935 0 9.46 4.461 9.46 9.531v6.581c0 5.169-2.588 9.469-9.492 9.469h-.959c-6.872 0-9.494-4.302-9.494-9.469v-6.579c0-5.072 2.526-9.533 9.494-9.533zm.639 20.702c1.886 0 4.219-.448 4.219-4.59v-6.579c0-3.338-1.471-4.622-4.22-4.622h-.35c-2.015 0-4.221.61-4.221 4.62v6.581c0 3.08 1.184 4.59 4.221 4.59h.351zm-60.76-3.242c-.192 1.766-.895 2.664-2.206 2.664h-1.31v10.398h5.849V73.8h13.36v5.166h5.849V68.568h-2.684V48.734h-17.547c-.544 7.51-.991 13.221-1.311 17.17zm4.89 2.343c.096-.16.192-.45.32-.867l.002-.01c.096-.415.191-.828.253-1.305l.129-1.69c.21-2.753.478-6.257.768-10.475h6.711v14.637h-8.375l.192-.29zm93.459 5.521H223l-.033-.002V48.7h-8.183l-6.264 17.845-6.203-17.843h-8.214v25.066h5.657V62.182l-.223-6.195 6.169 17.813h5.659l6.201-17.813-.224 6.195v11.586z" fill="#000"/></svg>