<svg width="288" height="125" viewBox="0 0 288 125" fill="none" xmlns="http://www.w3.org/2000/svg"><g clip-path="url(#clip0_88_633)"><path d="M60.74 64.008l9.477-16.388c1.085-1.872-.273-4.212-2.436-4.212H48.819c-2.17 0-3.521 2.34-2.436 4.212l9.477 16.388c1.085 1.872 3.794 1.872 4.88 0z" fill="#41C0F0"/><path d="M175.585 47.746h10.234c3.688 0 6.782 1.209 9.274 3.625 2.492 2.417 3.745 5.421 3.745 9.005 0 3.583-1.253 6.587-3.765 9.004-2.506 2.416-5.629 3.625-9.367 3.625h-10.121V47.746zm2.891 2.78v19.74h7.378c2.842 0 5.228-.935 7.16-2.814 1.933-1.88 2.891-4.227 2.891-7.042 0-2.815-.979-5.169-2.946-7.055-1.967-1.886-4.369-2.836-7.217-2.836h-7.266v.007zm31.596 3.395c3.017-.02 5.286.93 6.818 2.85 1.533 1.928 2.226 4.534 2.08 7.83h-15.554c.245 1.852.987 3.326 2.239 4.422 1.253 1.097 2.808 1.642 4.662 1.642 2.416 0 4.376-.796 5.895-2.382l1.553 1.663c-1.904 2.116-4.458 3.178-7.671 3.178-2.8 0-5.075-.887-6.839-2.668-1.757-1.782-2.639-4.094-2.639-6.93 0-2.836.882-5.148 2.639-6.93 1.778-1.78 4.045-2.675 6.817-2.675zm-6.656 8.376h13.019c-.097-1.83-.721-3.276-1.861-4.352-1.149-1.069-2.646-1.607-4.502-1.607-1.805 0-3.317.538-4.521 1.628-1.205 1.082-1.911 2.521-2.135 4.33zm30.47 10.722v-2.927c-1.519 2.047-3.843 3.067-6.979 3.067-1.932 0-3.493-.545-4.683-1.642-1.196-1.097-1.791-2.487-1.791-4.17 0-1.663.629-2.976 1.882-3.954 1.254-.978 3.003-1.474 5.243-1.502h6.258v-1.117c0-1.418-.434-2.515-1.301-3.283-.869-.769-2.136-1.153-3.801-1.153-1.933 0-3.941.72-6.041 2.166l-1.19-2.054c1.35-.887 2.596-1.537 3.745-1.95 1.147-.411 2.492-.614 4.031-.614 2.339 0 4.144.58 5.411 1.732 1.267 1.153 1.911 2.767 1.932 4.834l.035 12.56h-2.751v.007zm-6.44-2.312c1.617 0 2.996-.377 4.144-1.139 1.148-.754 1.897-1.795 2.261-3.122v-2.27h-5.935c-3.235 0-4.845 1.02-4.845 3.066 0 1.062.399 1.9 1.19 2.529.798.621 1.862.936 3.185.936zm15.555 2.312h-2.821V46.237h2.821V73.02zm-168.228.768c-5.851 0-10.317-2.815-12.354-5.064l3.514-4.499c2.429 2.382 5.768 3.982 8.848 3.982 2.946 0 4.598-1.341 4.598-3.332 0-2.033-2.128-3.2-5.851-4.457l-2.296-.733c-4.725-1.516-7.805-3.807-7.805-8.697 0-5.106 4.424-9.172 10.969-9.172 6.201 0 9.883 3.074 10.842 4.199l-3.472 4.589c-2.17-2.033-4.599-3.2-7.37-3.2-2.772 0-4.382 1.475-4.382 3.158 0 1.558.735 2.55 3.339 3.465l4.031 1.383c4.858 1.69 8.673 3.416 8.673 8.871-.007 5.833-4.998 9.507-11.284 9.507zm19.005-20.383l.175 2.208c1.344-1.642 3.689-2.683 6.202-2.683 2.254 0 4.423.95 5.592 2.724 1.428-1.69 3.99-2.724 6.636-2.724 2.037 0 3.773.65 5.159 1.774 1.694 1.425 2.079 3.59 2.079 7.314v11.295h-6.111V61.5c0-2.55-.952-3.849-3.206-3.849-1.911 0-3.381 1.209-3.381 3.416v12.245h-6.11V61.5c0-2.766-1.17-3.849-3.122-3.849-2.037 0-3.472 1.383-3.472 4.066v11.595h-6.111v-19.9h5.67v-.008zm40.34 8.788v-.783c0-1.383-.35-2.333-.994-2.94-.651-.65-1.603-.95-2.73-.95-1.519 0-3.423.517-5.677 1.774l-1.911-3.898c2.863-1.732 5.943-2.466 8.673-2.466 2.989 0 5.55 1.125 7.111 2.983 1.211 1.474 1.519 3.29 1.519 5.456v11.944h-5.725l-.133-1.641c-1.519 1.474-3.731 2.123-5.635 2.123-4.074 0-7.196-2.507-7.196-6.58 0-3.465 2.821-6.447 7.63-6.447 1.736 0 3.64.517 5.068 1.425zm-3.64 2.165c-1.862 0-3.339 1.041-3.339 2.724 0 1.69 1.428 2.725 3.297 2.725 1.911 0 3.689-.908 3.689-2.683 0-1.774-1.953-2.766-3.647-2.766zm22.764-5.972c-2.647 0-3.773 2.074-3.773 4.973v9.954h-6.111V53.411h5.725l.133 2.466h.085c1.603-2.033 3.514-2.941 5.334-2.941 1.043 0 1.911.258 2.729.65l-1.127 5.448c-1.05-.39-2.176-.65-2.995-.65zm8.624-.308h-2.905v-4.673h2.905V47.04h6.111v6.364h4.164v4.673h-4.164v15.228h-6.111V58.077z" fill="#121212"/></g><defs><clipPath id="clip0_88_633"><path fill="#fff" transform="translate(46 41)" d="M0 0h197v33H0z"/></clipPath></defs></svg>