<svg width="288" height="125" viewBox="0 0 288 125" fill="none" xmlns="http://www.w3.org/2000/svg"><path fill-rule="evenodd" clip-rule="evenodd" d="M57.371 91.904L43.028 78.03l-9.352 9.25a2.883 2.883 0 002.297 4.624h21.398z" fill="#FF4F12"/><path fill-rule="evenodd" clip-rule="evenodd" d="M66.62 54.907L45.809 34.096l-11.62 12.103a8.093 8.093 0 00-2.254 5.605v35.475a4.625 4.625 0 004.624 4.625 2.865 2.865 0 01-2.022-4.895" fill="#7800FF"/><path fill-rule="evenodd" clip-rule="evenodd" d="M214.925 70.138h-5.004l-5.979 6.045v-6.045h-4.232v16.658h4.232v-6.885l6.08 6.885h5.105l-7.86-8.934 7.658-7.724zM80.634 74.463h-6.112v-7.39h6.112c3.09 0 4.5 1.478 4.5 3.695 0 2.217-1.41 3.695-4.5 3.695zm.135-11.353h-10.68v23.51h4.433v-8.194h6.247c5.306 0 8.8-2.72 8.8-7.658 0-4.937-3.494-7.658-8.8-7.658zm18.807 20.193c-2.486 0-4.803-1.78-4.803-4.836s2.317-4.836 4.803-4.836c2.485 0 4.802 1.78 4.802 4.836s-2.317 4.837-4.802 4.837zm0-13.635c-4.568 0-9.102 2.955-9.102 8.799 0 5.844 4.534 8.8 9.102 8.8 4.567 0 9.101-2.956 9.101-8.8 0-5.844-4.534-8.8-9.101-8.8zm19.904 13.635c-2.552 0-4.433-1.847-4.433-4.836 0-2.956 1.948-4.836 4.433-4.836 1.512 0 2.821.705 3.862 2.284l3.628-2.083c-1.209-2.586-3.829-4.164-7.456-4.164-4.736 0-8.766 3.492-8.766 8.799 0 5.306 3.829 8.8 8.766 8.8 3.56 0 5.944-1.612 7.624-4.467l-3.493-1.915c-1.008 1.41-2.083 2.418-4.165 2.418zm45.06-3.727c-.201 2.552-.706 3.123-1.579 3.123-.597 0-.877-.066-1.286-.173l.022 4.311s.526.16 1.499.16c3.594 0 4.937-2.317 5.274-7.254l.403-5.81h4.769v12.83h4.232V70.138h-12.629l-.705 9.438zm-16.638-3.326c.604-1.88 2.283-3.358 4.5-3.358 2.351 0 3.93 1.276 4.333 3.358h-8.833zm4.635-6.582c-4.837 0-8.766 3.526-8.766 8.799s3.929 8.8 8.564 8.8c3.661 0 5.978-1.377 7.658-4.232l-3.359-1.68c-1.041 1.31-1.982 2.284-4.232 2.284-2.485 0-4.299-1.612-4.568-4.164h12.83v-1.478c0-4.87-3.358-8.33-8.127-8.33zm31.836 6.582c.605-1.88 2.284-3.358 4.501-3.358 2.351 0 3.929 1.276 4.332 3.358h-8.833zm4.635-6.582c-4.836 0-8.766 3.526-8.766 8.799s3.93 8.8 8.565 8.8c3.66 0 5.978-1.377 7.657-4.232l-3.358-1.68c-1.042 1.31-1.982 2.284-4.232 2.284-2.486 0-4.299-1.612-4.568-4.164h12.83v-1.478c0-4.87-3.359-8.33-8.128-8.33zm-60.552 4.164h4.971v12.964h4.231V73.832h4.971v-3.694h-14.173v3.694z" fill="#101828"/><path fill-rule="evenodd" clip-rule="evenodd" d="M223.527 83.303c-2.485 0-4.803-1.78-4.803-4.836s2.318-4.836 4.803-4.836c2.486 0 4.803 1.78 4.803 4.836s-2.317 4.837-4.803 4.837zm0-13.635c-4.567 0-9.102 2.955-9.102 8.799 0 5.844 4.535 8.8 9.102 8.8 4.568 0 9.102-2.956 9.102-8.8 0-5.844-4.534-8.8-9.102-8.8zm25.942.467l-4.593 11.667-4.593-11.667h-5.532v16.628h4.023V76.236l4.459 10.527h3.286l4.458-10.527v10.527H255V70.135h-5.531z" fill="#101828"/></svg>