<svg width="288" height="125" viewBox="0 0 288 125" fill="none" xmlns="http://www.w3.org/2000/svg"><path d="M73.849 63.928H71.09l-4.532 6.892h-3.645l5.025-7.384c-1.281-.394-2.266-.985-2.858-1.871-.59-.886-.886-1.97-.886-3.249 0-.985.197-1.87.492-2.56.296-.689.788-1.28 1.478-1.772s1.38-.788 2.266-1.083c.887-.197 1.872-.394 2.956-.394h5.91V70.82h-3.448v-6.892zm0-2.56v-6.006h-2.66c-1.183 0-2.07.197-2.759.69-.69.393-.985 1.28-.985 2.362 0 .985.295 1.773.887 2.265.59.492 1.477.689 2.561.689h2.956zm15.27 3.938h-5.517v5.513h-3.054V57.53h3.054v5.217h5.517v-5.218h3.152V70.82H89.12v-5.513zm17.043 5.612h-9.26l-.197 3.741h-2.759v-6.3h1.183c.394-.296.69-.788.886-1.38.197-.59.394-1.377.591-2.263.099-.887.296-1.871.296-3.052 0-1.182.098-2.56.197-4.037h9.753v10.731h2.167v6.301h-2.66l-.197-3.741zm-2.364-10.83h-3.94c-.1 2.068-.198 3.742-.395 5.021-.197 1.28-.492 2.363-.985 3.15h5.32v-8.17zm18.521 9.747c-.099.099-.296.197-.493.295-.295.099-.591.296-.985.394-.394.099-.887.296-1.478.394-.591.098-1.182.197-1.97.197-2.463 0-4.236-.59-5.517-1.772-1.182-1.182-1.773-2.954-1.773-5.12a8.24 8.24 0 01.492-2.855c.296-.886.788-1.575 1.379-2.166.591-.59 1.281-1.083 2.069-1.378a7.525 7.525 0 012.66-.492c.985 0 1.872.196 2.66.492.788.295 1.478.787 1.97 1.477a6.242 6.242 0 011.084 2.46c.197.985.197 2.068 0 3.348h-9.162c.099 1.182.493 2.068 1.182 2.659.69.59 1.675.886 3.054.886.591 0 1.084 0 1.478-.099.493-.098.887-.197 1.182-.295.296-.099.591-.296.887-.394.295-.099.394-.197.492-.295l.789 2.264zm-5.517-10.042c-.887 0-1.577.295-2.168.788-.591.492-.985 1.28-1.182 2.264h6.108c0-.985-.197-1.772-.689-2.264-.493-.591-1.183-.788-2.069-.788zm12.61 5.71h-1.182v5.316h-3.054V57.53h3.054v5.414h1.182l4.138-5.415h3.251l-4.926 6.4 5.221 6.891h-3.645l-4.039-5.316zm15.073 5.612a8.244 8.244 0 01-2.857-.492c-.886-.296-1.576-.788-2.266-1.379a7.012 7.012 0 01-1.477-2.165 9.263 9.263 0 01-.493-2.954c0-1.083.197-2.068.493-2.954.295-.886.788-1.575 1.477-2.166a6.274 6.274 0 012.168-1.378c.886-.295 1.773-.492 2.758-.492.887 0 1.774.098 2.463.295.69.197 1.281.492 1.675.788l-.69 2.363a6.775 6.775 0 00-1.477-.69c-.493-.197-1.183-.295-1.971-.295-1.182 0-2.069.394-2.758 1.083-.69.69-.985 1.87-.985 3.347 0 1.379.394 2.462 1.083 3.25.69.689 1.675 1.082 2.956 1.082.689 0 1.281-.098 1.773-.295.493-.197.985-.394 1.379-.69l.591 2.364c-.492.295-.985.492-1.576.689-.591.59-1.379.689-2.266.689zm8.177-.099c-.591 0-1.084-.197-1.478-.59-.394-.394-.591-.886-.591-1.477 0-.59.197-1.083.591-1.477.394-.394.887-.59 1.478-.59s1.084.196 1.478.59c.394.394.591.886.591 1.477 0 .59-.197 1.083-.591 1.477-.394.393-.887.59-1.478.59zm16.551-7.876h-8.472v7.778h-3.153V52.605h3.251v7.877h8.473v-7.877h3.251v18.313h-3.251V63.14h-.099zm14.383 7.778c0-.197-.099-.492-.099-.886s-.098-.69-.098-.985c-.197.296-.394.493-.69.788-.295.295-.591.492-.886.689-.296.197-.69.394-1.183.492a5.958 5.958 0 01-1.477.197c-.591 0-1.084-.098-1.577-.197-.492-.197-.985-.394-1.28-.689-.296-.295-.69-.689-.887-1.181-.197-.493-.295-1.083-.295-1.674 0-1.477.492-2.56 1.576-3.249 1.083-.788 2.66-1.181 4.926-1.181h1.674v-.69c0-.886-.197-1.476-.689-1.772-.493-.295-1.182-.492-2.069-.492-.788 0-1.576.099-2.266.295-.69.197-1.281.493-1.872.788l-.689-2.461a9.128 9.128 0 012.167-.788c.887-.197 1.872-.394 2.956-.394 1.773 0 3.152.394 4.137 1.083.985.69 1.478 1.87 1.478 3.446v8.959h-2.857v-.098zm-3.547-2.166c.394 0 .789-.099 1.084-.197.296-.099.591-.295.887-.492.295-.197.492-.394.689-.591a3.01 3.01 0 00.493-.69v-2.067h-1.478c-1.281 0-2.167.197-2.758.591-.591.394-.788.886-.788 1.575 0 .591.197.985.492 1.379.296.295.788.492 1.379.492zm9.36-11.125h5.418c1.773 0 2.956.295 3.842.788.887.492 1.281 1.378 1.281 2.46 0 .788-.197 1.478-.69 1.97-.492.492-1.182.788-2.069 1.083 1.084.197 1.971.492 2.463 1.083.493.492.788 1.181.788 2.166 0 1.28-.492 2.264-1.576 2.855-1.084.59-2.364.886-4.138.886h-5.418V57.627h.099zm3.054 2.264v3.052h2.068c.69 0 1.281-.098 1.675-.393.394-.296.69-.591.69-1.182 0-.59-.197-.984-.591-1.181-.394-.197-.887-.296-1.577-.296h-2.265zm0 5.218v3.446h2.167c.788 0 1.379-.098 1.872-.394.492-.197.689-.689.689-1.378 0-.59-.197-1.083-.689-1.378-.394-.296-1.084-.394-2.069-.394h-1.97v.098zm10.542-7.482h3.054v9.156l6.305-9.156h3.054v13.291h-3.054v-9.156l-6.305 9.156h-3.054V57.627zm18.717 2.461V70.82h-3.054V57.53h8.571v2.56h-5.517zm15.271 10.83c0-.197-.099-.492-.099-.886s-.098-.69-.098-.985c-.197.296-.394.493-.69.788-.295.295-.591.492-.886.689-.296.197-.69.394-1.183.492a5.958 5.958 0 01-1.477.197c-.591 0-1.084-.098-1.577-.197-.492-.197-.985-.394-1.28-.689a2.688 2.688 0 01-.887-1.181c-.197-.493-.295-1.083-.295-1.674 0-1.477.492-2.56 1.576-3.249 1.083-.788 2.66-1.181 4.926-1.181h1.674v-.69c0-.886-.197-1.476-.689-1.772-.493-.295-1.182-.492-2.069-.492-.788 0-1.576.099-2.266.295-.69.197-1.281.493-1.872.788l-.689-2.461a9.128 9.128 0 012.167-.788c.887-.197 1.872-.394 2.955-.394 1.774 0 3.153.394 4.138 1.083.985.69 1.478 1.87 1.478 3.446v8.959h-2.857v-.098zm-3.448-2.166c.394 0 .788-.099 1.084-.197.295-.099.591-.295.886-.492.296-.197.493-.394.69-.591.197-.197.394-.492.492-.69v-2.067h-1.477c-1.281 0-2.168.197-2.759.591-.591.394-.788.886-.788 1.575 0 .591.197.985.493 1.379.295.295.689.492 1.379.492zm15.171-8.664V70.82h-3.054V60.09h-3.94v-2.56h11.034v2.56h-4.04zm11.823 11.027c-.986 0-1.774-.197-2.66-.492-.887-.296-1.478-.788-2.069-1.379-.591-.59-1.084-1.28-1.379-2.165a9.263 9.263 0 01-.493-2.954c0-1.083.197-2.068.493-2.954.295-.886.788-1.575 1.379-2.166.591-.59 1.281-.984 2.069-1.378.788-.394 1.674-.492 2.66-.492.985 0 1.773.197 2.66.492.886.295 1.576.788 2.167 1.378.591.591 1.084 1.28 1.379 2.166a9.26 9.26 0 01.493 2.954 9.263 9.263 0 01-.493 2.954c-.295.886-.788 1.575-1.379 2.165-.591.591-1.281 1.083-2.167 1.379-.887.295-1.675.492-2.66.492zm0-2.56c.985 0 1.871-.394 2.463-1.083.689-.689.985-1.772.985-3.347 0-.69-.099-1.378-.296-1.97-.197-.59-.394-.984-.689-1.377-.296-.394-.69-.591-1.084-.788-.394-.197-.887-.296-1.379-.296-.986 0-1.774.394-2.463 1.084-.69.689-.985 1.772-.985 3.248 0 1.477.295 2.56.985 3.348.689.886 1.477 1.181 2.463 1.181zm16.451 2.56c-.985 0-1.871-.197-2.561-.69a6.443 6.443 0 01-1.773-1.87v6.793h-3.054v-17.82h2.857l.197 2.265c.492-.788.985-1.379 1.773-1.87.69-.493 1.576-.69 2.66-.69.788 0 1.576.098 2.266.394.689.295 1.28.689 1.872 1.28.492.59.985 1.28 1.28 2.166a9.42 9.42 0 01.493 3.052 9.42 9.42 0 01-.493 3.052c-.295.886-.788 1.575-1.28 2.165-.493.591-1.183.985-1.872 1.28-.788.394-1.577.493-2.365.493zm-.689-2.56c.985 0 1.872-.394 2.463-1.083.591-.69.985-1.772.985-3.249s-.296-2.56-.985-3.249c-.69-.69-1.478-1.083-2.463-1.083-.493 0-.985.099-1.38.296a4.36 4.36 0 00-1.083.787c-.296.394-.591.788-.788 1.378-.197.591-.296 1.182-.296 1.97 0 .787.099 1.378.296 1.968.197.591.394.985.788 1.379.295.394.689.59 1.083.788.395.098.789.098 1.38.098z" fill="#191A17"/><path d="M39.159 48.366L8.717 60.77l13.3 4.725 4.729 13.291 12.413-30.421z" fill="url(#paint0_linear_75_520)"/><path d="M39.158 48.366L21.524 65.989l5.221 12.798 12.413-30.421z" fill="#F4C944"/><path d="M21.032 66.48l5.714 12.307-1.872-16.146-16.157-1.87 12.315 5.71z" fill="#E4A745"/><path d="M36.018 82.929H12.867C8.039 82.929 4 78.991 4 74.069V50.931c0-4.824 3.94-8.86 8.867-8.86h23.151c4.827 0 8.867 3.937 8.867 8.86v23.136a8.827 8.827 0 01-8.867 8.861zM12.867 43.154c-4.335 0-7.882 3.545-7.882 7.877v23.136c0 4.332 3.547 7.876 7.881 7.876h23.152c4.335 0 7.881-3.544 7.881-7.876V51.03c0-4.332-3.546-7.877-7.881-7.877H12.867z" fill="#D8D8D8"/><defs><linearGradient id="paint0_linear_75_520" x1="8.701" y1="78.817" x2="39.102" y2="48.395" gradientUnits="userSpaceOnUse"><stop stop-color="#F4C944"/><stop offset="1" stop-color="#FAE595"/></linearGradient></defs></svg>