<svg width="289" height="125" viewBox="0 0 289 125" fill="none" xmlns="http://www.w3.org/2000/svg"><path d="M127.784 52.468v-3.871c.423.07 1.056.07 1.408.07 2.534 0 3.871-1.619 3.871-3.449 0-1.76-.985-3.449-4.153-3.449h-3.026v10.629h1.9v.07zm1.338-8.94c1.266 0 1.97.564 1.97 1.69 0 1.197-.844 1.69-1.97 1.69-.423 0-.915 0-1.338-.071v-3.238c.563 0 .986-.07 1.338-.07zm5.349 3.59c0 3.309 2.393 5.49 5.56 5.49 3.168 0 5.561-2.322 5.561-5.49 0-3.308-2.393-5.49-5.561-5.49-3.308.07-5.56 2.464-5.56 5.49zm1.971 0c0-2.181 1.548-3.73 3.589-3.73 1.971 0 3.59 1.549 3.59 3.73 0 2.112-1.337 3.731-3.59 3.731-2.041.07-3.589-1.548-3.589-3.73zm18.652 2.957c-.704.563-1.619.844-2.534.844-2.182 0-3.66-1.548-3.66-3.73 0-2.323 1.478-3.73 3.449-3.73 1.056 0 1.759.281 2.393.703l.845-1.407c-.704-.634-1.83-1.056-3.238-1.056-3.519 0-5.42 2.463-5.42 5.49 0 3.308 2.252 5.49 5.49 5.49 1.408 0 2.745-.493 3.379-1.197l-.704-1.407zm9.924 0c-.704.563-1.619.844-2.534.844-2.182 0-3.66-1.548-3.66-3.73 0-2.323 1.478-3.73 3.449-3.73 1.056 0 1.76.281 2.393.703l.845-1.407c-.704-.634-1.83-1.056-3.238-1.056-3.519 0-5.42 2.463-5.42 5.49 0 3.308 2.253 5.49 5.491 5.49 1.407 0 2.745-.493 3.378-1.197l-.704-1.407zm4.223 2.393l5.561-7.531v7.53h1.9V41.84h-1.619l-5.56 7.601V41.84h-1.901v10.628h1.619zm12.036 0l5.561-7.531v7.53h1.9V41.84h-1.619l-5.56 7.601V41.84h-1.901v10.628h1.619zm.071-13.233c.14 1.267 1.196 2.182 3.026 2.182 1.69 0 2.886-.844 2.956-2.182h-1.759c-.071.634-.563.915-1.197.915-.774 0-1.196-.281-1.267-.915h-1.759zm17.737 10.84c-.704.563-1.619.844-2.534.844-2.182 0-3.66-1.548-3.66-3.73 0-2.323 1.478-3.73 3.449-3.73 1.056 0 1.76.281 2.393.703l.845-1.407c-.704-.634-1.83-1.056-3.238-1.056-3.519 0-5.42 2.463-5.42 5.49 0 3.308 2.252 5.49 5.49 5.49 1.408 0 2.745-.493 3.379-1.197l-.704-1.407zm2.534 2.393h1.9v-5.49l4.364 5.49h2.393l-4.645-5.701 4.364-4.927h-2.253l-4.223 5.067V41.84h-1.9v10.628zm11.895 0l5.56-7.531v7.53h1.901V41.84h-1.619l-5.56 7.601V41.84h-1.901v10.628h1.619zm12.036 0l5.56-7.531v7.53h1.901V41.84h-1.619l-5.561 7.601V41.84h-1.9v10.628h1.619zm0-13.233c.141 1.267 1.196 2.182 3.027 2.182 1.689 0 2.885-.844 2.956-2.182h-1.76c-.07.634-.563.915-1.196.915-.775 0-1.197-.281-1.267-.915h-1.76zm4.997 33.855h1.9V62.462h-1.619l-5.56 7.602v-7.602h-1.9V73.09h1.618l5.561-7.53v7.53zm.422-13.232h-1.759c-.071.633-.564.915-1.197.915-.774 0-1.197-.282-1.267-.915h-1.76c.141 1.267 1.197 2.182 3.027 2.182 1.689 0 2.956-.915 2.956-2.182zM218.511 73.09h1.83V62.462h-1.83V73.09zm-1.408-3.66c0-2.111-1.267-3.449-3.871-3.449-.282 0-.704 0-1.197.07v-3.66h-1.9V73.02h2.675c2.745.07 4.293-1.337 4.293-3.59zm-1.971.07c0 1.268-.703 1.901-2.111 1.901-.352 0-.704 0-.986-.07v-3.45c.423-.07.775-.07 1.056-.07 1.267-.07 2.041.493 2.041 1.69zm-9.783 3.59h1.83V62.462h-1.83v4.364h-4.857v-4.364h-1.9V73.09h1.9v-4.575h4.857v4.575zm-11.755-8.939h3.449v-1.76h-8.798v1.76h3.449v8.869h1.9v-8.869zm-6.194 1.69c0-1.76-.985-3.45-4.152-3.45h-3.027V73.02h1.901v-3.871c.422.07 1.055.07 1.407.07 2.534.07 3.871-1.619 3.871-3.378zm-1.97-.07c0 1.196-.845 1.689-1.971 1.689-.422 0-.915 0-1.337-.07v-3.24h1.337c1.267 0 1.971.564 1.971 1.62zm-7.32 1.97c0-3.308-2.394-5.49-5.561-5.49-3.238 0-5.56 2.393-5.56 5.49 0 3.308 2.393 5.49 5.56 5.49s5.561-2.322 5.561-5.49zm-1.971 0c0 2.112-1.338 3.73-3.59 3.73-1.971 0-3.59-1.618-3.59-3.73 0-2.182 1.549-3.73 3.59-3.73s3.59 1.548 3.59 3.73zm-13.162 5.35h1.9v-10.63h-8.446V73.09h1.9v-8.939h4.716v8.94h-.07zm-15.344-5.35c0-2.323 1.478-3.73 3.448-3.73 1.056 0 1.76.281 2.394.704l.844-1.408c-.704-.634-1.83-1.056-3.238-1.056-3.519 0-5.419 2.464-5.419 5.49 0 3.308 2.252 5.49 5.49 5.49 1.408 0 2.745-.492 3.378-1.196l-.704-1.408c-.703.563-1.618.845-2.533.845-2.182 0-3.66-1.478-3.66-3.73zm-2.816 5.35l-4.645-5.702 4.364-4.927h-2.253l-4.223 5.068v-5.068h-1.9V73.09h1.9V67.6l4.364 5.49h2.393zm-10.769-5.35c0-3.308-2.252-5.49-5.349-5.49-1.619 0-2.886.563-3.66 1.197l.704 1.407c.774-.563 1.618-.844 2.463-.844 2.041 0 3.449.985 3.801 2.745h-4.716v1.76h4.786c-.352 1.97-1.83 2.956-3.66 2.956-1.126 0-2.041-.423-2.745-.915l-.774 1.548c.774.633 2.112 1.126 3.59 1.126 3.449 0 5.56-2.182 5.56-5.49zm154.848-1.9c0-1.76-.986-3.449-4.153-3.449h-3.026V73.02h1.9v-3.87c.422.07 1.056.07 1.408.07 2.534.07 3.871-1.62 3.871-3.379zm-1.971-.07c0 1.196-.845 1.689-1.971 1.689-.422 0-.915 0-1.337-.07v-3.238h1.337c1.267 0 1.971.563 1.971 1.619zm-10.206-1.62h3.449v-1.759h-8.798v1.76h3.449v8.868h1.9v-8.868zm-8.798 8.94h1.83V62.463h-1.83v4.363h-4.857v-4.363h-1.9V73.09h1.9v-4.575h4.857v4.575zm-15.485 0h6.335v-1.76h-4.435v-2.745h3.801v-1.76h-3.801v-2.674h4.294v-1.76h-6.124v10.699h-.07zm-3.59 1.9h1.76v-3.66h-1.478v-8.869h-1.9v8.87h-4.646v-8.87h-1.9v10.629h8.094v1.9h.07z" fill="#15284D"/><path d="M52.541 31l-6.194 2.323L45.221 31h7.32z" fill="#5B7BBB"/><path d="M45.222 31l1.126 2.323-5.35 1.97L45.222 31z" fill="#D24A43"/><path d="M71.546 31.563l5.067 7.18-19.215-1.76 14.148-5.42zM103.079 31l-7.602 3.027L91.394 31h11.685zM40.998 43.177l-6.123 7.25-7.602-.775 13.725-6.475z" fill="#5B7BBB"/><path d="M34.874 50.427l-7.602 9.009-.07-9.784 7.672.775zM103.219 31l-3.097 6.405-4.645-3.378L103.078 31h.141z" fill="#D24A43"/><path d="M12.21 65.278l-.633 7.32L.104 78.722 12.21 65.278z" fill="#5B7BBB"/><path d="M11.577 72.598l-.915 8.235-10.558-2.04 11.473-6.195z" fill="#D24A43"/><path d="M80.695 45.358l10.77 13.092-17.949-1.9 7.18-11.192z" fill="#5B7BBB"/><path d="M91.465 58.45L65.28 69.36l8.235-12.81 17.949 1.9zM52.47 74.076L27.133 84.705v-16.33l25.339 5.701z" fill="#D24A43"/><path d="M83.441 78.933l-7.39 15.132-3.942-10.487 11.332-4.645z" fill="#5B7BBB"/><path d="M72.108 83.578l3.942 10.488-19.075-3.872 15.133-6.616z" fill="#D24A43"/><path d="M44.799 51.834l14.851-5.842 4.083 7.813-18.934-1.97z" fill="#5B7BBB"/><path d="M44.799 51.834l18.934 1.97-16.611 6.687-2.323-8.657z" fill="#D24A43"/></svg>