<svg width="288" height="125" viewBox="0 0 288 125" fill="none" xmlns="http://www.w3.org/2000/svg"><path d="M61.688 51.1c-2.185 0-4.006.73-5.099 2.064-1.213 1.335-1.82 3.278-1.82 5.827s.607 4.49 1.942 5.826c1.335 1.335 3.156 2.064 5.34 2.064 1.215 0 2.186-.122 3.035-.486.85-.364 1.578-.728 2.428-1.092.486.364.85.85 1.214 1.456.243.607.364 1.214.364 1.942 0 1.214-.607 2.185-1.942 3.035-1.336.85-3.399 1.214-6.07 1.214-1.942 0-3.762-.243-5.462-.85-1.7-.607-3.277-1.456-4.49-2.549-1.336-1.092-2.307-2.549-3.035-4.37C47.364 63.361 47 61.297 47 58.87c0-2.306.364-4.248 1.093-5.947.728-1.7 1.699-3.156 2.913-4.37 1.213-1.214 2.67-2.064 4.37-2.67 1.699-.608 3.398-.972 5.34-.972 2.67 0 4.734.486 6.191 1.335 1.457.85 2.185 1.943 2.185 3.4 0 .727-.243 1.456-.607 1.941-.364.607-.85.971-1.335 1.336-.729-.486-1.578-.972-2.428-1.214-.971-.364-1.942-.607-3.034-.607zm20.272-.727c1.699 0 3.398.242 4.855.728 1.456.485 2.792 1.092 3.884 2.063 1.093.971 1.942 2.064 2.55 3.52.606 1.457.97 3.157.97 5.099 0 1.82-.242 3.52-.728 4.855a8.672 8.672 0 01-2.185 3.52c-.971.971-2.063 1.7-3.52 2.064-1.335.485-2.913.728-4.491.728-1.214 0-2.428-.243-3.52-.607v7.283c-.243.121-.729.121-1.457.243-.607.121-1.335.121-1.942.121s-1.214 0-1.7-.121c-.485-.121-.97-.243-1.335-.486-.364-.242-.607-.607-.728-1.092a7.346 7.346 0 01-.243-1.82v-21c0-.729.121-1.457.486-1.942.364-.486.85-.972 1.335-1.336.85-.607 2.063-1.092 3.399-1.456 1.213-.122 2.67-.364 4.37-.364zm.12 16.75c3.035 0 4.492-1.82 4.492-5.34 0-1.821-.364-3.278-1.092-4.127-.729-.85-1.821-1.336-3.156-1.336-.607 0-1.093.122-1.457.243-.364.121-.85.243-1.093.486v9.589c.365.121.729.364 1.093.486.243-.122.728 0 1.214 0zm24.52-16.751c1.578 0 3.035.122 4.249.486 1.335.364 2.427.85 3.277 1.457a6.197 6.197 0 012.064 2.549c.485.97.728 2.184.728 3.52v9.832a2.98 2.98 0 01-.607 1.82c-.364.486-.971.85-1.457 1.215-1.942 1.092-4.612 1.699-8.011 1.699-1.578 0-2.913-.122-4.127-.486-1.214-.242-2.306-.728-3.156-1.335-.85-.607-1.578-1.335-2.064-2.185-.485-.85-.728-1.942-.728-3.156 0-2.063.607-3.52 1.82-4.612 1.215-1.093 3.035-1.7 5.585-2.064l5.705-.607v-.364c0-.85-.365-1.457-1.093-1.82-.728-.365-1.821-.608-3.156-.608a15.11 15.11 0 00-3.277.364c-1.093.243-1.942.486-2.792.85a2.536 2.536 0 01-.971-1.214c-.243-.485-.364-1.092-.364-1.7 0-.727.121-1.334.607-1.82.364-.485.97-.85 1.699-1.214.85-.364 1.821-.607 3.035-.728.971.243 2.063.121 3.034.121zm.364 17.237c.486 0 1.093 0 1.7-.121.607-.122 1.092-.243 1.335-.365v-3.52l-3.156.243c-.85 0-1.457.243-2.064.486-.485.242-.728.728-.728 1.335s.243 1.092.728 1.456c.365.243 1.093.486 2.185.486zm33.502-1.821c-.365.365-.85.607-1.457.729-.607.243-1.335.243-2.064.243-1.092 0-1.942-.122-2.549-.365-.728-.242-1.092-.728-1.335-1.335-.85-2.549-1.457-4.613-2.063-6.19-.486-1.578-.972-3.035-1.214-4.127h-.243c-.121 1.699-.121 3.277-.243 4.733 0 1.457-.121 2.792-.121 4.127 0 1.336 0 2.671-.122 4.006 0 1.335-.121 2.913-.242 4.491-.365.122-.85.243-1.457.365-.607.121-1.214.121-1.821.121-1.335 0-2.306-.243-3.034-.607-.729-.364-1.093-1.092-1.093-2.185l1.214-22.335c.243-.364.728-.728 1.578-1.213.728-.486 1.942-.607 3.277-.607 1.578 0 2.792.242 3.642.728.85.486 1.457 1.214 1.942 2.306.243.729.607 1.457.85 2.428.243.971.607 1.82.971 2.792.364.97.607 1.942.85 2.913.242.971.606 1.82.728 2.55h.243c.728-2.429 1.456-4.856 2.063-7.041.728-2.306 1.335-4.249 1.942-5.705.486-.243.971-.486 1.7-.607.728-.122 1.456-.243 2.306-.243 1.457 0 2.549.243 3.52.607.85.364 1.457.971 1.578 1.82.121.608.243 1.457.364 2.671.122 1.214.243 2.55.364 4.127.122 1.457.243 3.156.486 4.856.121 1.699.243 3.277.364 4.855.121 1.578.243 3.035.364 4.248.122 1.336.122 2.307.122 3.035-.486.243-.971.486-1.578.607a8.726 8.726 0 01-2.064.243c-1.092 0-2.063-.243-2.792-.607-.728-.364-1.214-1.093-1.214-2.185a929.52 929.52 0 00-.364-8.618c0-2.55-.121-4.613-.242-6.434h-.243c-.243 1.093-.729 2.55-1.214 4.249-.243 1.7-.85 3.884-1.699 6.554z" fill="#000"/><path d="M178.459 61.661c0 1.821-.242 3.4-.849 4.856s-1.335 2.549-2.307 3.52c-.971.97-2.184 1.7-3.641 2.185-1.457.485-2.913.728-4.734.728-1.821 0-3.277-.243-4.734-.728-1.457-.486-2.549-1.214-3.642-2.307-1.092-1.092-1.82-2.184-2.306-3.52-.607-1.456-.85-2.913-.85-4.734 0-1.7.243-3.277.85-4.734.607-1.456 1.335-2.549 2.306-3.52.972-.97 2.185-1.7 3.642-2.306 1.457-.486 2.913-.728 4.734-.728 1.821 0 3.277.242 4.734.85 1.457.485 2.549 1.334 3.641 2.306.972.97 1.821 2.184 2.307 3.52.485 1.335.849 2.913.849 4.612zm-15.294 0c0 1.821.364 3.156.971 4.127.728.971 1.578 1.457 2.913 1.457 1.336 0 2.185-.486 2.792-1.457.607-.97.971-2.306.971-4.005 0-1.7-.364-3.035-.971-4.006-.728-.971-1.578-1.457-2.792-1.457-1.213 0-2.185.486-2.791 1.457-.729.728-1.093 2.185-1.093 3.884z" fill="#F07F7F"/><path d="M189.504 64.939c0 .728.243 1.335.729 1.578.485.364 1.213.485 2.063.485.486 0 .85 0 1.335-.121.486-.122.85-.122 1.214-.243l.728 1.093c.243.364.243.85.243 1.456 0 1.093-.364 2.064-1.214 2.67-.849.608-2.306 1.093-4.369 1.093-2.55 0-4.492-.607-5.948-1.7-1.335-1.213-2.064-3.034-2.064-5.704V46.852c.364-.121.728-.121 1.335-.242.607-.122 1.214-.122 1.943-.122 1.335 0 2.306.243 3.034.729.728.485 1.093 1.456 1.093 2.913v2.792h5.705c.121.364.364.728.485 1.214.122.485.243.97.243 1.577 0 .971-.243 1.7-.728 2.185-.486.486-1.093.729-1.821.729h-4.006v6.312zm32.045-3.278c0 1.821-.242 3.4-.849 4.856s-1.336 2.549-2.307 3.52c-.971.97-2.185 1.7-3.641 2.185-1.457.485-2.913.728-4.734.728-1.821 0-3.278-.243-4.734-.728-1.457-.486-2.549-1.214-3.642-2.307-1.092-1.092-1.82-2.184-2.306-3.52-.607-1.456-.85-2.913-.85-4.734 0-1.7.243-3.277.85-4.734.607-1.456 1.335-2.549 2.306-3.52.971-.97 2.185-1.7 3.642-2.306 1.456-.486 2.913-.728 4.734-.728 1.821 0 3.277.242 4.734.85 1.456.485 2.549 1.334 3.641 2.306.971.97 1.821 2.184 2.307 3.52.485 1.335.849 2.913.849 4.612zm-15.294 0c0 1.821.364 3.156.971 4.127.728.971 1.699 1.457 2.913 1.457 1.214 0 2.185-.486 2.792-1.457.607-.97.971-2.306.971-4.005 0-1.7-.364-3.035-.971-4.006-.728-.971-1.578-1.457-2.792-1.457-1.214 0-2.185.486-2.792 1.457-.849.728-1.092 2.185-1.092 3.884zm26.341 10.561c-.243.12-.728.12-1.335.242s-1.336.122-1.943.122c-.606 0-1.213 0-1.699-.122-.485-.121-.971-.242-1.335-.485s-.607-.607-.85-1.093c-.243-.485-.243-1.092-.243-1.82v-13.11c0-.728.122-1.214.365-1.7.242-.485.606-.849 1.092-1.335a7.748 7.748 0 011.699-.97c.729-.365 1.457-.608 2.185-.85.729-.243 1.578-.364 2.428-.607.85-.122 1.699-.243 2.549-.243 1.457 0 2.549.243 3.277.85.85.485 1.214 1.456 1.214 2.67 0 .364 0 .85-.121 1.214-.122.364-.243.728-.486 1.092-.607 0-1.213 0-1.82.122-.607 0-1.214.121-1.821.243-.607.121-1.214.242-1.7.364-.485.121-.971.242-1.335.485v14.93h-.121z" fill="#000"/></svg>