<svg width="288" height="125" viewBox="0 0 288 125" fill="none" xmlns="http://www.w3.org/2000/svg"><path d="M67.278 47.438H77.29c3.456 0 5.96.715 7.508 2.264 1.669 1.43 2.384 3.575 2.384 6.078s-.834 4.648-2.383 6.078c-1.669 1.43-4.172 2.264-7.509 2.264h-3.694v7.747h-6.317V47.438zm9.177 11.56c1.55 0 2.741-.239 3.337-.834.596-.477.953-1.312.953-2.384 0-1.073-.357-1.788-.953-2.384-.596-.476-1.788-.834-3.337-.834h-2.98v6.317h2.98v.119zm21.81 13.348c-1.31 0-2.503-.239-3.694-.596a6.899 6.899 0 01-2.98-1.788c-.834-.834-1.55-1.787-2.026-2.98-.477-1.19-.715-2.621-.715-4.17v-.715c0-1.55.239-2.86.715-3.933a7.314 7.314 0 012.026-2.86c.834-.716 1.907-1.312 2.98-1.788 1.191-.358 2.383-.596 3.694-.596s2.503.238 3.695.596a6.9 6.9 0 012.979 1.788 7.32 7.32 0 012.026 2.86c.477 1.191.715 2.502.715 3.933v.715c0 1.549-.238 2.98-.715 4.17-.477 1.193-1.192 2.146-2.026 2.98-.834.835-1.907 1.43-2.979 1.788a12.005 12.005 0 01-3.695.596zm0-4.41c1.311 0 2.265-.476 2.86-1.31.715-.954.954-2.146.954-3.695v-.715c0-1.43-.358-2.503-.954-3.456-.715-.835-1.668-1.311-2.86-1.311s-2.264.476-2.86 1.31c-.715.835-.954 2.027-.954 3.457v.715c0 1.668.358 2.86.954 3.814.715.715 1.668 1.191 2.86 1.191zm20.975 4.41c-1.43 0-2.622-.239-3.814-.596a6.894 6.894 0 01-2.979-1.788c-.835-.834-1.55-1.787-1.907-2.98-.358-1.19-.715-2.621-.715-4.17v-.715c0-1.43.238-2.742.715-3.933a7.31 7.31 0 012.026-2.86 6.894 6.894 0 012.979-1.788c1.192-.358 2.384-.596 3.695-.596 1.43 0 2.622.238 3.694.596 1.073.357 1.907.834 2.622 1.55a6.232 6.232 0 011.669 2.264c.357.834.596 1.787.715 2.74h-5.482c-.239-.834-.477-1.549-1.073-1.906-.477-.477-1.192-.715-2.145-.715-1.192 0-2.026.357-2.861 1.192-.715.834-1.072 2.026-1.072 3.575v.715c0 1.788.357 2.98 1.072 3.814.716.834 1.669 1.191 2.861 1.191.834 0 1.549-.238 2.026-.596.596-.476.953-1.072 1.192-1.906h5.482a12.117 12.117 0 01-.715 2.979c-.477.834-1.073 1.669-1.788 2.264-.715.596-1.668 1.073-2.741 1.43-.954 0-2.145.239-3.456.239zm11.442-18.949h5.363v7.031h1.43l5.124-7.031h5.84l-6.793 8.7 7.151 9.772h-6.317l-5.005-7.389h-1.43v7.389h-5.363V53.397zm25.622 18.948c-.954 0-1.907-.119-2.622-.476-.834-.358-1.43-.716-2.026-1.192-.477-.477-.954-1.192-1.192-1.907-.238-.715-.477-1.43-.477-2.264 0-1.788.596-3.218 1.669-4.172 1.072-.953 2.86-1.43 5.124-1.43h5.244v-.715c0-1.072-.238-1.907-.834-2.264-.477-.477-1.311-.596-2.145-.596-.834 0-1.549.12-1.907.477-.477.238-.596.715-.715 1.31h-5.363c0-.834.238-1.668.596-2.264.357-.715.953-1.31 1.549-1.907.715-.476 1.549-.953 2.503-1.191.953-.358 2.145-.477 3.456-.477a15.1 15.1 0 013.337.357c.953.239 1.907.715 2.622 1.311.715.596 1.311 1.311 1.668 2.265.358.953.596 2.145.596 3.456v6.555c0 .953 0 1.787.119 2.622 0 .715.12 1.43.239 2.145h-5.125c0-.358-.119-.715-.119-1.073v-1.072c-.596.715-1.311 1.31-2.264 1.906-1.073.358-2.384.596-3.933.596zm1.787-3.813c1.192 0 2.146-.358 2.861-.954.834-.596 1.191-1.55 1.191-2.74v-.716h-4.171c-.834 0-1.43.238-1.787.596-.358.477-.596.953-.596 1.43 0 .715.238 1.192.596 1.669.357.476.953.715 1.906.715zm11.442-1.072h1.907c.476-.716.834-1.669 1.072-2.98.239-1.31.358-2.98.358-5.125v-5.958h15.135V67.46h2.145v8.819h-4.528v-4.41h-11.561v4.41h-4.528v-8.82zm13.228 0v-9.654h-4.886v2.264a42.67 42.67 0 01-.238 4.41c-.119 1.192-.477 2.264-.834 2.98h5.958zm15.851 4.885c-.953 0-1.907-.119-2.622-.476-.834-.358-1.43-.716-2.026-1.192-.476-.477-.953-1.192-1.191-1.907-.239-.715-.477-1.43-.477-2.264 0-1.788.596-3.218 1.668-4.172 1.073-.953 2.861-1.43 5.125-1.43h5.244v-.715c0-1.072-.239-1.907-.834-2.264-.477-.477-1.311-.596-2.146-.596-.834 0-1.549.12-1.906.477-.477.238-.596.715-.716 1.31h-5.363c0-.834.239-1.668.596-2.264.358-.715.954-1.31 1.55-1.907.596-.596 1.549-.953 2.502-1.191.954-.358 2.146-.477 3.457-.477 1.191 0 2.264.119 3.337.357 1.072.239 1.906.715 2.621 1.311.716.596 1.311 1.311 1.669 2.265.357.953.596 2.145.596 3.456v6.555c0 .953 0 1.787.119 2.622.119.834.119 1.43.238 2.145h-5.124c0-.358-.119-.715-.119-1.073v-1.072c-.596.715-1.311 1.31-2.265 1.906-1.072.358-2.383.596-3.933.596zm1.669-3.813c1.192 0 2.145-.358 2.86-.954.834-.596 1.192-1.55 1.192-2.74v-.716h-4.171c-.835 0-1.431.238-1.788.596-.358.477-.596.953-.596 1.43 0 .715.238 1.192.596 1.669.357.476 1.073.715 1.907.715zm21.571 3.814c-1.43 0-2.622-.239-3.814-.596a6.9 6.9 0 01-2.979-1.788c-.834-.834-1.549-1.787-1.907-2.98-.477-1.19-.715-2.621-.715-4.17v-.715c0-1.43.238-2.742.715-3.933a7.32 7.32 0 012.026-2.86 6.898 6.898 0 012.98-1.788c1.191-.358 2.383-.596 3.694-.596 1.43 0 2.622.238 3.695.596 1.072.357 1.906.834 2.621 1.55.716.595 1.311 1.43 1.669 2.264.358.834.596 1.787.715 2.74h-5.482c-.238-.834-.477-1.549-1.073-1.906-.596-.358-1.192-.715-2.145-.715-1.192 0-2.026.357-2.86 1.192-.715.834-1.073 2.026-1.073 3.575v.715c0 1.788.358 2.98 1.073 3.814.715.834 1.668 1.191 2.86 1.191.834 0 1.549-.238 2.026-.596.596-.476.954-1.072 1.192-1.906h5.482a12.072 12.072 0 01-.715 2.979c-.477.834-1.073 1.669-1.788 2.264-.715.596-1.668 1.073-2.741 1.43-1.072 0-2.264.239-3.456.239zm15.97-14.54h-5.721v-4.41h16.804v4.41h-5.72V71.87h-5.363V57.806zm13.467-4.409h5.006v2.502c.238-.357.476-.715.834-1.072a5.276 5.276 0 011.311-.954c.476-.238 1.072-.476 1.668-.715.596-.119 1.311-.238 1.907-.238 2.622 0 4.529.715 5.959 2.264 1.311 1.55 2.026 3.814 2.026 6.913v.715c0 1.549-.238 2.98-.596 4.17-.357 1.193-.953 2.146-1.549 2.98-.715.835-1.55 1.43-2.503 1.788a9.273 9.273 0 01-3.337.596 6.457 6.457 0 01-2.979-.715 6.563 6.563 0 01-2.384-2.026V78.9h-5.363V53.397zm9.415 14.54c1.073 0 1.907-.477 2.622-1.312.715-.834 1.073-2.145 1.073-3.813v-.715c0-1.55-.358-2.742-1.073-3.576-.715-.834-1.549-1.191-2.741-1.191-1.192 0-2.145.357-2.86 1.072-.835.715-1.192 1.788-1.192 3.218v1.788c0 1.43.357 2.621 1.192 3.337.953.715 1.906 1.191 2.979 1.191z" fill="#4C4D4B"/><mask id="mask0_95_902" style="mask-type:luminance" maskUnits="userSpaceOnUse" x="17" y="38" width="41" height="41"><path d="M26.877 59.832L17.7 68.055v-8.223h9.177zm11.799-20.975v18.95h18.949c-.477-10.13-8.7-18.354-18.95-18.95zM17.7 69.843v8.938h19.07v-8.938l-9.535-8.58-9.534 8.58zm20.976-10.01V78.78c10.249-.476 18.472-8.7 18.949-18.949h-18.95zm-2.026 8.342V59.95h-9.177l9.177 8.224zM17.7 57.925h18.95V38.857c-10.249.477-18.472 8.7-18.949 19.068z" fill="#fff"/></mask><g mask="url(#mask0_95_902)"><path d="M57.624 57.568c-.596-10.011-8.7-18.115-18.71-18.711-11.56-.715-21.214 8.58-21.214 20.022V78.9h20.022c11.44 0 20.617-9.654 19.902-21.333z" fill="url(#paint0_linear_95_902)"/></g><defs><linearGradient id="paint0_linear_95_902" x1="51.794" y1="44.758" x2="17.687" y2="78.865" gradientUnits="userSpaceOnUse"><stop stop-color="#4AFFC3"/><stop offset=".328" stop-color="#00CAFF"/><stop offset=".701" stop-color="#3B9BFF"/><stop offset="1" stop-color="#007CFF"/></linearGradient></defs></svg>