<svg width="288" height="125" viewBox="0 0 288 125" fill="none" xmlns="http://www.w3.org/2000/svg"><path d="M102.201 49.632h8.716l7.026 18.603 6.969-18.603h8.408v24.804h-5.586V55.468l-7.276 18.968h-5.74l-7.276-18.853v18.853h-5.222V49.632h-.019zm67.596 0h19.217v24.804h-5.952V54.854h-7.832c-.058 3.474-.154 8.159-.25 10.77-.211 6.508-2.112 8.812-7.679 8.812h-2.669v-5.222h1.479c2.514 0 3.321-1.133 3.494-4.665.134-3.802.192-11.327.192-14.917zm49.607 0H242v5.222h-8.351v19.582h-5.894V54.854h-8.351v-5.222zm-132.6-.518h-2.131c-5.107 0-8.985 3.11-9.868 7.736l5.433.864c.749-2.207 2.457-3.705 4.608-3.8.403-.02.825-.02 1.228 0 3.206.114 4.665 1.65 4.665 5.451-6.086 0-10.232-.288-13.304 1.728-2.496 1.651-3.57 3.475-3.57 6.355 0 4.185 3.244 7.487 8.485 7.487h.73c3.704 0 6.7-1.44 7.909-3.187v2.669h5.471V59.48c.02-5.76-3.072-10.367-9.656-10.367zm-3.34 20.983c-2.324-.057-3.668-1.42-3.668-3.11 0-1.401.634-2.112 1.479-2.592.883-.518 2.035-.69 3.8-.748 1.71-.058 3.092-.135 5.76-.135 0 4.224-2.668 6.355-5.97 6.585-.461.02-.922.02-1.402 0zm134.558-6.392v-2.323c0-8.006-5.03-12.133-11.519-12.133h-1.267c-6.988 0-11.442 4.76-11.673 11.48-.038.979-.038 1.401 0 2.745.154 6.681 4.858 11.193 11.116 11.365 1.152.039.998.039 2.073 0 5.453-.153 9.58-3.302 10.809-7.41l-5.28-.922c-1.286 2.573-3.743 3.571-5.721 3.667-.441.02-.883.02-1.343 0-3.091-.134-5.837-2.534-5.837-6.047v-.384l18.642-.038zm-12.882-9.791a9.35 9.35 0 011.478 0c2.592.134 5.318 1.823 5.587 5.164h-12.767c.288-2.995 2.688-4.992 5.702-5.164zm-42.139 5.932c-.135-6.01-4.973-10.597-11.366-10.597h-2.323c-6.392 0-11.23 4.607-11.365 10.635a81.848 81.848 0 000 4.32c.135 6.028 4.973 10.635 11.365 10.635h2.323c6.393 0 11.231-4.588 11.366-10.635.019-1.69.019-2.688 0-4.358zm-5.856 4.031c-.077 3.514-2.611 5.894-6.047 6.067a6.982 6.982 0 01-1.267 0c-3.456-.173-5.971-2.553-6.048-6.067a61.482 61.482 0 010-3.743c.077-3.475 2.592-5.856 6.048-6.028a6.982 6.982 0 011.267 0c3.436.172 5.99 2.553 6.047 6.066.039 1.46.039 2.266 0 3.705zM64.65 65.682c-.692 2.304-2.535 3.878-5.03 4.224a6.957 6.957 0 01-1.997 0c-3.09-.423-5.26-2.746-5.337-6.01a60.841 60.841 0 010-3.743c.077-3.283 2.361-5.683 5.51-6.028a6.846 6.846 0 011.536 0c2.65.288 4.626 1.881 5.356 4.28l5.76-1.113c-1.248-4.703-5.51-8.044-10.963-8.044h-1.65c-6.413 0-11.25 4.589-11.385 10.617-.02 1.67-.02 2.65 0 4.32.134 6.028 4.972 10.635 11.365 10.635h1.651c5.568 0 9.868-3.475 11-8.35l-5.816-.788z" fill="#007BFB"/></svg>