<svg width="288" height="125" viewBox="0 0 288 125" fill="none" xmlns="http://www.w3.org/2000/svg"><path d="M176.838 79.435v-6.227c-2.351 1.606-6.289 3.017-9.972 3.017-5.526 0-7.623-2.632-7.939-8.025h18.229v-4.043c0-11.235-4.891-15.472-12.45-15.472-9.21 0-13.592 7.126-13.592 16.883 0 11.235 5.462 16.692 15.116 16.692 4.828 0 8.384-1.285 10.608-2.825zm47.255 2.825c3.493 0 5.971-.642 7.812-1.991v-6.226c-1.905 1.347-4.192 2.182-7.367 2.182-5.399 0-7.622-4.236-7.622-10.914 0-6.997 2.731-10.592 7.685-10.592 2.923 0 5.78 1.027 7.304 1.99v-6.485c-1.587-.898-4.381-1.539-8.13-1.539-9.654 0-14.672 6.997-14.672 16.819 0 10.785 4.892 16.756 14.99 16.756zM107.606 49.326V62.1H97.507V49.327H89.95V81.62h7.558V68.138h10.099v13.481h7.558V49.326h-7.558zm41.665 26.257h-3.364V49.327h-22.044v2.761c0 7.896-.507 18.104-3.175 23.496h-2.35V89h6.988v-7.382h16.959V89h6.986V75.583zm51.702 6.035h8.576L197.416 64.22l10.67-14.895h-7.621l-10.67 14.895V49.324h-7.559v32.292h7.559V65.761l11.178 15.857zm-36.394-26.9c3.747 0 4.891 3.147 4.891 7.19v.643h-10.545c.19-5.136 2.033-7.83 5.653-7.83l.001-.002zm-26.232 20.865h-10.671c2.095-4.879 2.667-13.673 2.667-19.258v-.964h8.004v20.222z" fill="#050505"/><path d="M75.912 81.618h7.685V37h-11.18c-11.24 0-17.149 5.842-17.149 14.444 0 6.87 3.24 10.914 9.02 15.087L54.252 81.618h8.32l11.18-16.885-3.875-2.63c-4.7-3.213-6.986-5.715-6.986-11.107 0-4.752 3.303-7.961 9.59-7.961h3.43v38.583z" fill="#FC3F1D"/></svg>